# Blender v2.80 (sub 75) OBJ File: 'Ballroom.blend'
# www.blender.org
mtllib Ballroom.mtl
o Arch.000_Cube.001
v -1.000000 -2.000000 -0.500000
v -5.928285 -2.000000 -0.500000
v -10.000000 -2.000000 -5.386058
v -10.000000 2.000000 -5.386058
v -5.928285 2.000000 -0.500000
v -10.000000 -2.000000 -19.613941
v -5.928285 -2.000000 -24.500000
v -5.928285 2.000000 -24.500000
v -10.000000 2.000000 -19.613941
v 10.000000 -2.000000 -5.386058
v 5.928285 -2.000000 -0.500000
v 5.928285 2.000000 -0.500000
v 10.000000 2.000000 -5.386058
v 5.928285 -2.000000 -24.500000
v 10.000000 -2.000000 -19.613941
v 10.000000 2.000000 -19.613941
v 5.928285 2.000000 -24.500000
v -1.000000 2.000000 -24.500000
v 1.000000 -2.000000 -24.500000
v 1.000000 2.000000 -24.500000
v -1.000000 2.000000 -0.500000
v -1.000000 -2.000000 -24.500000
v 1.000000 -2.000000 -0.500000
v 1.000000 2.000000 -0.500000
v 10.000000 -2.000000 -17.825500
v 10.000000 2.000000 -17.825500
v 10.000000 -2.000000 -15.825500
v 10.000000 2.000000 -15.825500
v -9.850622 -2.000000 -5.400996
v -5.843784 -2.000000 -0.563375
v -5.843784 2.000000 -0.563375
v -9.850622 2.000000 -5.400996
v -9.850622 2.000000 -19.599003
v -5.843784 2.000000 -24.436625
v -5.843784 -2.000000 -24.436625
v -9.850622 -2.000000 -19.599003
v 5.843784 2.000000 -24.436625
v 9.850622 2.000000 -19.599003
v 9.850622 -2.000000 -19.599003
v 5.843784 -2.000000 -24.436625
v 9.850622 2.000000 -5.400996
v 5.843784 2.000000 -0.563375
v 5.843784 -2.000000 -0.563375
v 9.850622 -2.000000 -5.400996
v 9.847664 2.000000 -17.825500
v 9.847664 -2.000000 -17.825500
v -1.000000 -2.000000 -24.423832
v -1.000000 2.000000 -0.576168
v 1.000000 2.000000 -0.576168
v 1.000000 -2.000000 -0.576168
v -1.000000 2.000000 -24.423832
v -1.000000 -2.000000 -0.576168
v 1.000000 -2.000000 -24.423832
v 1.000000 2.000000 -24.423832
v 9.847664 -2.000000 -15.825500
v 9.847664 2.000000 -15.825500
v -1.000000 -2.000000 0.500000
v -1.000000 2.000000 0.500000
v -1.000000 -2.000000 -0.500000
v -1.000000 1.790588 -0.500000
v 1.000000 -2.000000 0.500000
v 1.000000 1.790588 0.500000
v 1.000000 1.790588 -0.500000
v 0.000083 2.061248 -0.500000
v 0.000083 2.061248 0.500000
v 0.478985 1.966729 -0.500000
v 0.478985 1.966729 0.500000
v -0.486371 1.963687 0.500000
v -0.486371 1.963687 -0.500000
v -1.000000 1.790588 0.500000
v 0.500000 2.313313 -0.500000
v 1.000000 2.000000 0.500000
v -0.507544 2.310205 0.500000
v -0.507544 2.310205 -0.500000
v 0.000000 2.411996 -0.500000
v 0.500000 2.313313 0.500000
v 0.000000 2.411996 0.500000
v 0.750000 2.156657 -0.500000
v 0.750000 -2.000000 0.500000
v 0.750000 -2.000000 -0.500000
v 0.750000 2.156657 0.500000
v 0.731483 1.808507 -0.500000
v 0.731483 1.808507 0.500000
v -0.753772 -2.000000 -0.500000
v -0.753772 2.155103 0.500000
v -0.753772 2.155103 -0.500000
v -0.753772 -2.000000 0.500000
v -0.735136 1.806986 0.500000
v -0.735136 1.806986 -0.500000
v -5.928285 -2.000000 -0.500000
v -10.000000 -2.000000 -5.386058
v -10.000000 -2.000000 -19.613941
v -5.928285 -2.000000 -24.500000
v 10.000000 -2.000000 -5.386058
v 5.928285 -2.000000 -0.500000
v 5.928285 -2.000000 -24.500000
v 10.000000 -2.000000 -19.613941
v -1.000000 2.000000 -24.500000
v -1.000000 -2.000000 -25.500000
v -1.000000 1.790588 -25.500000
v 1.000000 -2.000000 -24.500000
v 1.000000 1.790588 -24.500000
v 1.000000 -2.000000 -25.500000
v 1.000000 1.790588 -25.500000
v 0.000083 2.061248 -25.500000
v 0.000083 2.061248 -24.500000
v 0.478985 1.966729 -25.500000
v 0.478985 1.966729 -24.500000
v -0.486371 1.963687 -24.500000
v -0.486371 1.963687 -25.500000
v -1.000000 1.790588 -24.500000
v -1.000000 2.000000 -25.500000
v 0.500000 2.313313 -25.500000
v 1.000000 2.000000 -25.500000
v 1.000000 2.000000 -24.500000
v -0.507544 2.310205 -24.500000
v -0.507544 2.310205 -25.500000
v 0.000000 2.411996 -25.500000
v 0.500000 2.313313 -24.500000
v 0.000000 2.411996 -24.500000
v 0.750000 2.156657 -25.500000
v 0.750000 -2.000000 -24.500000
v 0.750000 -2.000000 -25.500000
v 0.750000 2.156657 -24.500000
v 0.731483 1.808507 -25.500000
v 0.731483 1.808507 -24.500000
v -0.753772 -2.000000 -25.500000
v -0.753772 2.155103 -24.500000
v -0.753772 2.155103 -25.500000
v -0.753772 -2.000000 -24.500000
v -0.735136 1.806986 -24.500000
v -0.735136 1.806986 -25.500000
v -1.000000 2.000000 -0.500000
v -1.000000 -2.000000 -24.500000
v 1.000000 -2.000000 -0.500000
v 1.000000 2.000000 -0.500000
vt 0.625000 0.800896
vt 0.375000 0.800896
vt 0.375000 0.800896
vt 0.625000 0.550896
vt 0.375000 0.550896
vt 0.375000 0.550896
vt 0.375000 0.949104
vt 0.625000 0.949104
vt 0.625000 0.949104
vt 0.625000 0.050896
vt 0.375000 0.199104
vt 0.375000 0.050896
vt 0.625000 0.300896
vt 0.375000 0.300896
vt 0.375000 0.300896
vt 0.375000 1.000000
vt 0.625000 0.199104
vt 0.625000 0.449104
vt 0.625000 0.699104
vt 0.375000 0.449104
vt 0.625000 0.449104
vt 0.375000 0.699104
vt 0.625000 0.699104
vt 0.375000 0.800896
vt 0.625000 0.800896
vt 0.375000 0.800896
vt 0.375000 0.550896
vt 0.625000 0.550896
vt 0.375000 0.550896
vt 0.625000 0.949104
vt 0.375000 0.949104
vt 0.625000 0.949104
vt 0.375000 0.199104
vt 0.625000 0.050896
vt 0.375000 0.050896
vt 0.375000 0.300896
vt 0.625000 0.300896
vt 0.375000 0.300896
vt 0.375000 1.000000
vt 0.625000 0.199104
vt 0.625000 0.449104
vt 0.625000 0.699104
vt 0.625000 0.449104
vt 0.375000 0.449104
vt 0.625000 0.699104
vt 0.375000 0.699104
vt 0.375000 0.699104
vt 0.375000 0.699104
vt 0.625000 0.800896
vt 0.625000 0.800896
vt 0.625000 0.300896
vt 0.625000 0.300896
vt 0.375000 0.949104
vt 0.375000 0.949104
vt 0.375000 0.449104
vt 0.375000 0.449104
vt 0.625000 1.000000
vt 0.625000 0.550896
vt 0.625000 0.550896
vt 0.611912 0.000000
vt 0.375000 0.250000
vt 0.375000 0.000000
vt 0.375000 0.468750
vt 0.611912 0.500000
vt 0.375000 0.500000
vt 0.375000 0.750000
vt 0.375000 0.969221
vt 0.611383 0.997988
vt 0.375000 1.000000
vt 0.611867 0.283108
vt 0.612824 0.935796
vt 0.612103 0.966892
vt 0.875000 0.500000
vt 0.844221 0.750000
vt 0.844221 0.500000
vt 0.750000 0.500000
vt 0.687500 0.750000
vt 0.687500 0.500000
vt 0.613076 0.375010
vt 0.612351 0.314204
vt 0.656250 0.750000
vt 0.656250 0.500000
vt 0.612834 0.434873
vt 0.613075 0.874990
vt 0.612366 0.815127
vt 0.612373 0.467437
vt 0.611878 0.783565
vt 0.813443 0.500000
vt 0.750000 0.750000
vt 0.625000 0.250000
vt 0.611383 0.252012
vt 0.625000 0.468750
vt 0.625000 0.750000
vt 0.611389 0.752002
vt 0.625000 0.969221
vt 0.625000 0.311557
vt 0.625000 0.375000
vt 0.625000 0.812500
vt 0.625000 0.875000
vt 0.625000 0.437500
vt 0.625000 0.781250
vt 0.625000 0.938443
vt 0.625000 0.280779
vt 0.625000 0.500000
vt 0.375000 0.781250
vt 0.625000 1.000000
vt 0.375000 0.280779
vt 0.813443 0.750000
vt 0.375000 0.550896
vt 0.324104 0.500000
vt 0.175896 0.500000
vt 0.611912 0.000000
vt 0.375000 0.250000
vt 0.375000 0.000000
vt 0.375000 0.468750
vt 0.611912 0.500000
vt 0.375000 0.500000
vt 0.375000 0.750000
vt 0.375000 0.969221
vt 0.611383 0.997988
vt 0.375000 1.000000
vt 0.611867 0.283108
vt 0.612824 0.935796
vt 0.612103 0.966892
vt 0.875000 0.500000
vt 0.844221 0.750000
vt 0.844221 0.500000
vt 0.750000 0.500000
vt 0.687500 0.750000
vt 0.687500 0.500000
vt 0.613076 0.375010
vt 0.612351 0.314204
vt 0.656250 0.750000
vt 0.656250 0.500000
vt 0.612834 0.434873
vt 0.613075 0.874990
vt 0.612366 0.815127
vt 0.612373 0.467437
vt 0.611878 0.783565
vt 0.813443 0.500000
vt 0.750000 0.750000
vt 0.625000 0.250000
vt 0.611383 0.252012
vt 0.625000 0.468750
vt 0.625000 0.750000
vt 0.611389 0.752002
vt 0.625000 0.969221
vt 0.625000 0.311557
vt 0.625000 0.375000
vt 0.625000 0.812500
vt 0.625000 0.875000
vt 0.625000 0.437500
vt 0.625000 0.781250
vt 0.625000 0.938443
vt 0.625000 0.280779
vt 0.625000 0.500000
vt 0.375000 0.781250
vt 0.625000 1.000000
vt 0.375000 0.280779
vt 0.813443 0.750000
vt 0.625000 1.000000
vt 0.875000 0.750000
vt 0.625000 0.000000
vt 0.155779 0.500000
vt 0.125000 0.550896
vt 0.125000 0.699104
vt 0.175896 0.750000
vt 0.324104 0.750000
vt 0.375000 0.699104
vt 0.875000 0.750000
vt 0.625000 0.000000
vt 0.155779 0.500000
vn 0.0000 0.0000 1.0000
vn 1.0000 0.0000 0.0000
vn -1.0000 0.0000 0.0000
vn 0.0000 0.0000 -1.0000
vn -0.7682 0.0000 0.6402
vn -0.7682 0.0000 -0.6402
vn 0.7682 0.0000 -0.6402
vn 0.7682 0.0000 0.6402
vn 0.0026 0.0000 -1.0000
vn -1.0000 0.0000 -0.0017
vn -0.0026 0.0000 -1.0000
vn -0.0026 0.0000 1.0000
vn 0.7701 0.0000 -0.6379
vn 0.7701 0.0000 0.6379
vn -0.7701 0.0000 0.6379
vn -0.7701 0.0000 -0.6379
vn 0.0026 0.0000 1.0000
vn -1.0000 0.0000 0.0003
vn 0.0000 -1.0000 0.0000
vn 0.0000 1.0000 0.0000
vn 0.5330 -0.8461 0.0000
vn -0.5330 0.8461 0.0000
vn 0.1936 0.9811 0.0000
vn 0.1966 -0.9805 0.0000
vn 0.5310 0.8474 0.0000
vn -0.1936 -0.9811 0.0000
vn -0.5310 -0.8474 0.0000
vn -0.1966 0.9805 0.0000
vn -1.0000 -0.0049 0.0000
vn 1.0000 -0.0049 0.0000
usemtl None
s off
f 12/1/1 23/2/1 11/3/1
f 16/4/2 25/5/2 15/6/2
f 2/7/1 21/8/1 5/9/1
f 4/10/3 6/11/3 3/12/3
f 8/13/4 22/14/4 7/15/4
f 5/9/5 3/16/5 2/7/5
f 7/15/6 9/17/6 8/13/6
f 15/6/7 17/18/7 16/4/7
f 11/3/8 13/19/8 12/1/8
f 14/20/4 20/21/4 17/18/4
f 10/22/2 28/23/2 13/19/2
f 50/24/9 42/25/9 43/26/9
f 46/27/10 38/28/10 39/29/10
f 48/30/11 30/31/11 31/32/11
f 36/33/2 32/34/2 29/35/2
f 47/36/12 34/37/12 35/38/12
f 29/39/13 31/32/13 30/31/13
f 33/40/14 35/38/14 34/37/14
f 37/41/15 39/29/15 38/28/15
f 41/42/16 43/26/16 42/25/16
f 54/43/17 40/44/17 37/41/17
f 56/45/18 44/46/18 41/42/18
f 22/14/19 35/38/19 7/15/19
f 35/38/19 6/11/19 7/15/19
f 55/47/4 28/23/4 27/48/4
f 21/8/20 31/32/20 5/9/20
f 28/23/20 41/42/20 13/19/20
f 49/49/3 23/2/3 24/50/3
f 37/41/20 16/4/20 17/18/20
f 44/46/19 27/48/19 10/22/19
f 23/2/19 43/26/19 11/3/19
f 42/25/20 24/50/20 12/1/20
f 15/6/19 40/44/19 14/20/19
f 51/51/2 22/14/2 18/52/2
f 52/53/2 21/8/2 1/54/2
f 13/19/20 42/25/20 12/1/20
f 34/37/20 18/52/20 8/13/20
f 3/16/19 30/31/19 2/7/19
f 30/31/19 1/54/19 2/7/19
f 43/26/19 10/22/19 11/3/19
f 53/55/3 20/21/3 19/56/3
f 31/32/20 4/57/20 5/9/20
f 20/21/20 37/41/20 17/18/20
f 36/33/19 3/12/19 6/11/19
f 40/44/19 19/56/19 14/20/19
f 4/10/20 33/40/20 9/17/20
f 9/17/20 34/37/20 8/13/20
f 25/5/19 39/29/19 15/6/19
f 45/58/1 25/5/1 26/59/1
f 38/28/20 26/59/20 16/4/20
f 70/60/3 59/61/3 57/62/3
f 80/63/4 63/64/4 135/65/4
f 63/64/2 61/66/2 135/65/2
f 87/67/1 70/68/1 57/69/1
f 89/70/21 68/71/21 88/72/21
f 133/73/22 85/74/22 86/75/22
f 75/76/23 76/77/23 71/78/23
f 64/79/24 68/71/24 69/80/24
f 71/78/25 81/81/25 78/82/25
f 66/83/26 65/84/26 64/79/26
f 67/85/27 82/86/27 83/87/27
f 74/88/28 77/89/28 75/76/28
f 70/60/3 133/90/3 60/91/3
f 66/83/4 78/92/4 82/86/4
f 63/64/2 72/93/2 62/94/2
f 68/71/1 85/95/1 88/72/1
f 64/79/4 74/96/4 75/97/4
f 65/84/1 76/98/1 77/99/1
f 64/79/4 71/100/4 66/83/4
f 83/87/1 72/93/1 81/101/1
f 65/84/1 73/102/1 68/71/1
f 89/70/4 133/90/4 86/103/4
f 67/85/1 81/101/1 76/98/1
f 82/86/4 136/104/4 63/64/4
f 78/82/25 72/93/25 136/104/25
f 62/94/1 79/105/1 61/66/1
f 83/87/29 80/63/29 79/105/29
f 69/80/4 86/103/4 74/96/4
f 88/72/1 58/106/1 70/68/1
f 60/91/4 84/107/4 59/61/4
f 86/75/22 73/108/22 74/88/22
f 87/67/30 89/70/30 88/72/30
f 97/109/20 96/110/20 93/111/20
f 111/112/3 99/113/3 134/114/3
f 123/115/4 104/116/4 103/117/4
f 104/116/2 101/118/2 103/117/2
f 130/119/1 111/120/1 134/121/1
f 132/122/21 109/123/21 131/124/21
f 112/125/22 128/126/22 129/127/22
f 118/128/23 119/129/23 113/130/23
f 105/131/24 109/123/24 110/132/24
f 113/130/25 124/133/25 121/134/25
f 107/135/26 106/136/26 105/131/26
f 108/137/27 125/138/27 126/139/27
f 117/140/28 120/141/28 118/128/28
f 111/112/3 112/142/3 100/143/3
f 107/135/4 121/144/4 125/138/4
f 104/116/2 115/145/2 102/146/2
f 109/123/1 128/147/1 131/124/1
f 105/131/4 117/148/4 118/149/4
f 106/136/1 119/150/1 120/151/1
f 105/131/4 113/152/4 107/135/4
f 126/139/1 115/145/1 124/153/1
f 106/136/1 116/154/1 109/123/1
f 132/122/4 112/142/4 129/155/4
f 108/137/1 124/153/1 119/150/1
f 125/138/4 114/156/4 104/116/4
f 121/134/25 115/145/25 114/156/25
f 102/146/1 122/157/1 101/118/1
f 126/139/29 123/115/29 122/157/29
f 110/132/4 129/155/4 117/148/4
f 131/124/1 98/158/1 111/120/1
f 100/143/4 127/159/4 99/113/4
f 129/127/22 116/160/22 117/140/22
f 130/119/30 132/122/30 131/124/30
f 80/63/20 87/67/20 79/105/20
f 123/115/20 130/119/20 122/157/20
f 12/1/1 24/50/1 23/2/1
f 16/4/2 26/59/2 25/5/2
f 2/7/1 1/54/1 21/8/1
f 4/10/3 9/17/3 6/11/3
f 8/13/4 18/52/4 22/14/4
f 5/9/5 4/57/5 3/16/5
f 7/15/6 6/11/6 9/17/6
f 15/6/7 14/20/7 17/18/7
f 11/3/8 10/22/8 13/19/8
f 14/20/4 19/56/4 20/21/4
f 10/22/2 27/48/2 28/23/2
f 50/24/9 49/49/9 42/25/9
f 46/27/10 45/58/10 38/28/10
f 48/30/11 52/53/11 30/31/11
f 36/33/2 33/40/2 32/34/2
f 47/36/12 51/51/12 34/37/12
f 29/39/13 32/161/13 31/32/13
f 33/40/14 36/33/14 35/38/14
f 37/41/15 40/44/15 39/29/15
f 41/42/16 44/46/16 43/26/16
f 54/43/17 53/55/17 40/44/17
f 56/45/18 55/47/18 44/46/18
f 22/14/19 47/36/19 35/38/19
f 35/38/19 36/33/19 6/11/19
f 55/47/4 56/45/4 28/23/4
f 21/8/20 48/30/20 31/32/20
f 28/23/20 56/45/20 41/42/20
f 49/49/3 50/24/3 23/2/3
f 37/41/20 38/28/20 16/4/20
f 44/46/19 55/47/19 27/48/19
f 23/2/19 50/24/19 43/26/19
f 42/25/20 49/49/20 24/50/20
f 15/6/19 39/29/19 40/44/19
f 51/51/2 47/36/2 22/14/2
f 52/53/2 48/30/2 21/8/2
f 13/19/20 41/42/20 42/25/20
f 34/37/20 51/51/20 18/52/20
f 3/16/19 29/39/19 30/31/19
f 30/31/19 52/53/19 1/54/19
f 43/26/19 44/46/19 10/22/19
f 53/55/3 54/43/3 20/21/3
f 31/32/20 32/161/20 4/57/20
f 20/21/20 54/43/20 37/41/20
f 36/33/19 29/35/19 3/12/19
f 40/44/19 53/55/19 19/56/19
f 4/10/20 32/34/20 33/40/20
f 9/17/20 33/40/20 34/37/20
f 25/5/19 46/27/19 39/29/19
f 45/58/1 46/27/1 25/5/1
f 38/28/20 45/58/20 26/59/20
f 70/60/3 60/91/3 59/61/3
f 80/63/4 82/86/4 63/64/4
f 63/64/2 62/94/2 61/66/2
f 87/67/1 88/72/1 70/68/1
f 89/70/21 69/80/21 68/71/21
f 133/73/22 58/162/22 85/74/22
f 75/76/23 77/89/23 76/77/23
f 64/79/24 65/84/24 68/71/24
f 71/78/25 76/77/25 81/81/25
f 66/83/26 67/85/26 65/84/26
f 67/85/27 66/83/27 82/86/27
f 74/88/28 73/108/28 77/89/28
f 70/60/3 58/163/3 133/90/3
f 66/83/4 71/100/4 78/92/4
f 63/64/2 136/104/2 72/93/2
f 68/71/1 73/102/1 85/95/1
f 64/79/4 69/80/4 74/96/4
f 65/84/1 67/85/1 76/98/1
f 64/79/4 75/97/4 71/100/4
f 83/87/1 62/94/1 72/93/1
f 65/84/1 77/99/1 73/102/1
f 89/70/4 60/91/4 133/90/4
f 67/85/1 83/87/1 81/101/1
f 82/86/4 78/92/4 136/104/4
f 78/82/25 81/81/25 72/93/25
f 62/94/1 83/87/1 79/105/1
f 83/87/29 82/86/29 80/63/29
f 69/80/4 89/70/4 86/103/4
f 88/72/1 85/95/1 58/106/1
f 60/91/4 89/70/4 84/107/4
f 86/75/22 85/74/22 73/108/22
f 87/67/30 84/164/30 89/70/30
f 93/111/20 92/165/20 97/109/20
f 92/165/20 91/166/20 97/109/20
f 91/166/20 90/167/20 95/168/20
f 95/168/20 94/169/20 91/166/20
f 94/169/20 97/109/20 91/166/20
f 111/112/3 100/143/3 99/113/3
f 123/115/4 125/138/4 104/116/4
f 104/116/2 102/146/2 101/118/2
f 130/119/1 131/124/1 111/120/1
f 132/122/21 110/132/21 109/123/21
f 112/125/22 98/170/22 128/126/22
f 118/128/23 120/141/23 119/129/23
f 105/131/24 106/136/24 109/123/24
f 113/130/25 119/129/25 124/133/25
f 107/135/26 108/137/26 106/136/26
f 108/137/27 107/135/27 125/138/27
f 117/140/28 116/160/28 120/141/28
f 111/112/3 98/171/3 112/142/3
f 107/135/4 113/152/4 121/144/4
f 104/116/2 114/156/2 115/145/2
f 109/123/1 116/154/1 128/147/1
f 105/131/4 110/132/4 117/148/4
f 106/136/1 108/137/1 119/150/1
f 105/131/4 118/149/4 113/152/4
f 126/139/1 102/146/1 115/145/1
f 106/136/1 120/151/1 116/154/1
f 132/122/4 100/143/4 112/142/4
f 108/137/1 126/139/1 124/153/1
f 125/138/4 121/144/4 114/156/4
f 121/134/25 124/133/25 115/145/25
f 102/146/1 126/139/1 122/157/1
f 126/139/29 125/138/29 123/115/29
f 110/132/4 132/122/4 129/155/4
f 131/124/1 128/147/1 98/158/1
f 100/143/4 132/122/4 127/159/4
f 129/127/22 128/126/22 116/160/22
f 130/119/30 127/172/30 132/122/30
f 80/63/20 84/164/20 87/67/20
f 123/115/20 127/172/20 130/119/20
