# Blender v2.80 (sub 75) OBJ File: 'Bathroom 1.blend'
# www.blender.org
mtllib Bathroom 1.mtl
o Bathroom_2.001_Cube.000
v -4.000000 -2.000000 3.000000
v -4.000000 2.000000 3.000000
v -4.000000 -2.000000 -3.000000
v -4.000000 2.000000 -3.000000
v 4.000000 -2.000000 3.000000
v 4.000000 2.000000 3.000000
v 4.000000 -2.000000 -3.000000
v 4.000000 2.000000 -3.000000
v 3.937637 -1.968819 2.953228
v 3.891984 -2.000000 0.993893
v -3.937637 -1.968819 2.953228
v -3.923621 2.000000 2.942716
v -3.923621 2.000000 -2.942716
v -3.937637 -1.968819 -2.953228
v 3.937637 -1.968819 -2.953228
v 3.923621 2.000000 -2.942716
v 3.891984 2.000000 0.993894
v 3.923621 2.000000 2.942716
v 3.891984 -2.000000 -1.006107
v 3.891984 2.000000 -1.006106
v 4.000000 -2.000000 -1.006107
v 4.000000 -2.000000 0.993893
v 5.000000 -2.000000 0.993894
v 5.000000 2.000000 0.993894
v 4.000000 1.790588 0.993894
v 5.000000 -2.000000 -1.006106
v 5.000000 1.790588 -1.006106
v 4.000000 1.790588 -1.006106
v 4.000000 2.061248 -0.006190
v 5.000000 2.061248 -0.006190
v 4.000000 1.966729 -0.485092
v 5.000000 1.966729 -0.485092
v 5.000000 1.963687 0.480264
v 4.000000 1.963687 0.480264
v 5.000000 1.790588 0.993894
v 4.000000 2.000000 0.993894
v 4.000000 2.313313 -0.506106
v 4.000000 2.000000 -1.006106
v 5.000000 2.000000 -1.006106
v 5.000000 2.310205 0.501437
v 4.000000 2.310205 0.501437
v 4.000000 2.411996 -0.006106
v 5.000000 2.313313 -0.506106
v 5.000000 2.411996 -0.006106
v 4.000000 2.156657 -0.756106
v 5.000000 -2.000000 -0.756106
v 4.000000 -2.000000 -0.756106
v 5.000000 2.156657 -0.756106
v 4.000000 1.808507 -0.737590
v 5.000000 1.808507 -0.737590
v 4.000000 -2.000000 0.747665
v 5.000000 2.155103 0.747665
v 4.000000 2.155103 0.747665
v 5.000000 -2.000000 0.747665
v 5.000000 1.806986 0.729029
v 4.000000 1.806986 0.729029
vt 0.097023 0.917925
vt 0.142544 0.917925
vt 0.142544 0.917925
vt 0.142544 0.826883
vt 0.097023 0.872404
vt 0.097023 0.826883
vt 0.097023 0.963446
vt 0.142544 0.781362
vt 0.097023 0.781362
vt 0.837757 0.669723
vt 0.952006 0.555474
vt 0.837757 0.555474
vt 0.142544 0.872404
vt 0.097023 0.872404
vt 0.392544 0.675738
vt 0.347023 0.675738
vt 0.392544 0.675738
vt 0.347023 0.630217
vt 0.392544 0.584695
vt 0.347023 0.584695
vt 0.347023 0.721259
vt 0.392544 0.539174
vt 0.347023 0.539174
vt 0.392544 0.630217
vt 0.392544 0.630217
vt 0.142544 0.917925
vt 0.097023 0.872404
vt 0.097023 0.917925
vt 0.097023 0.917925
vt 0.350929 0.648394
vt 0.396450 0.648394
vt 0.350929 0.648394
vt 0.142544 0.826883
vt 0.142544 0.781362
vt 0.142544 0.872404
vt 0.142544 0.872404
vt 0.142544 0.963446
vt 0.396450 0.602873
vt 0.350929 0.602873
vt 0.396450 0.602873
vt 0.907121 0.703719
vt 0.907121 0.548229
vt 0.839011 0.557938
vt 0.402928 0.824596
vt 0.374568 0.854522
vt 0.374568 0.824596
vt 0.374568 0.880708
vt 0.402928 0.884449
vt 0.374568 0.884449
vt 0.374568 0.914375
vt 0.374568 0.940617
vt 0.402864 0.944061
vt 0.374568 0.944302
vt 0.402923 0.858485
vt 0.403037 0.936616
vt 0.402951 0.940338
vt 0.434421 0.884449
vt 0.430737 0.914375
vt 0.430737 0.884449
vt 0.419458 0.884449
vt 0.411976 0.914375
vt 0.411976 0.884449
vt 0.403067 0.869487
vt 0.402980 0.862208
vt 0.408235 0.914375
vt 0.408235 0.884449
vt 0.403038 0.876653
vt 0.403067 0.929337
vt 0.402982 0.922171
vt 0.402983 0.880551
vt 0.402924 0.918393
vt 0.427052 0.884449
vt 0.419458 0.914375
vt 0.404495 0.854522
vt 0.402864 0.854763
vt 0.404495 0.880708
vt 0.404495 0.914375
vt 0.402865 0.914615
vt 0.404495 0.940617
vt 0.404495 0.861891
vt 0.404495 0.869485
vt 0.404495 0.921857
vt 0.404495 0.929338
vt 0.404495 0.876967
vt 0.404495 0.918116
vt 0.404495 0.936933
vt 0.404495 0.858207
vt 0.404495 0.884449
vt 0.374568 0.918116
vt 0.404495 0.944302
vt 0.374568 0.858207
vt 0.427052 0.914375
vt 0.952006 0.669723
vt 0.347023 0.675738
vt 0.392544 0.721259
vt 0.347023 0.630217
vt 0.142544 0.917925
vt 0.097023 0.872404
vt 0.097023 0.917925
vt 0.396450 0.648394
vt 0.142544 0.872404
vt 0.142544 0.963446
vt 0.350929 0.602873
vt 0.907121 0.645319
vt 0.434421 0.914375
vt 0.404495 0.824596
vt 0.348326 0.884449
vn 1.0000 0.0000 0.0000
vn 0.0000 0.0000 -1.0000
vn 0.0000 0.0000 1.0000
vn -1.0000 0.0000 0.0000
vn 0.0000 1.0000 0.0000
vn -0.9999 -0.0035 0.0162
vn 0.0000 -0.0026 1.0000
vn 0.0000 -0.0026 -1.0000
vn 1.0000 -0.0035 0.0000
vn -0.9999 -0.0035 -0.0163
vn -0.4472 -0.8944 0.0000
vn 0.0000 -0.8461 -0.5330
vn 0.0000 0.8461 0.5330
vn 0.0000 0.9811 -0.1936
vn 0.0000 -0.9805 -0.1966
vn 0.0000 0.8474 -0.5310
vn 0.0000 -0.9811 0.1936
vn 0.0000 -0.8474 0.5310
vn 0.0000 0.9805 0.1966
vn 0.0000 -0.0049 1.0000
vn 0.0000 -0.0049 -1.0000
vn -0.9997 0.0000 0.0233
vn -0.9997 0.0000 -0.0234
vn 0.0000 -0.9999 -0.0160
vn 0.0000 -0.9999 0.0159
usemtl Material
s off
f 5/1/1 36/2/1 6/3/1
f 4/4/2 7/5/2 3/6/2
f 6/3/3 1/7/3 5/1/3
f 2/8/4 3/6/4 1/9/4
f 1/10/5 7/11/5 3/12/5
f 8/13/1 21/14/1 7/5/1
f 17/15/6 9/16/6 18/17/6
f 15/18/7 13/19/7 14/20/7
f 11/21/8 18/17/8 9/16/8
f 14/20/9 12/22/9 11/23/9
f 15/18/10 20/24/10 16/25/10
f 36/2/5 18/26/5 6/3/5
f 21/14/11 15/27/11 7/5/11
f 9/28/11 22/29/11 5/1/11
f 10/30/2 36/31/2 22/32/2
f 13/33/5 8/13/5 4/4/5
f 12/34/5 4/4/5 2/8/5
f 16/35/5 38/36/5 8/13/5
f 18/26/5 2/37/5 6/3/5
f 20/38/3 21/39/3 38/40/3
f 54/41/5 47/42/5 51/43/5
f 35/44/3 22/45/3 23/46/3
f 47/47/4 28/48/4 21/49/4
f 28/48/2 26/50/2 21/49/2
f 54/51/1 35/52/1 23/53/1
f 56/54/12 33/55/12 55/56/12
f 36/57/13 52/58/13 53/59/13
f 42/60/14 43/61/14 37/62/14
f 29/63/15 33/55/15 34/64/15
f 37/62/16 48/65/16 45/66/16
f 31/67/17 30/68/17 29/63/17
f 32/69/18 49/70/18 50/71/18
f 41/72/19 44/73/19 42/60/19
f 35/44/3 36/74/3 25/75/3
f 31/67/4 45/76/4 49/70/4
f 28/48/2 39/77/2 27/78/2
f 33/55/1 52/79/1 55/56/1
f 29/63/4 41/80/4 42/81/4
f 30/68/1 43/82/1 44/83/1
f 29/63/4 37/84/4 31/67/4
f 50/71/1 39/77/1 48/85/1
f 30/68/1 40/86/1 33/55/1
f 56/54/4 36/74/4 53/87/4
f 32/69/1 48/85/1 43/82/1
f 49/70/4 38/88/4 28/48/4
f 45/66/16 39/77/16 38/88/16
f 27/78/1 46/89/1 26/50/1
f 50/71/20 47/47/20 46/89/20
f 34/64/4 53/87/4 41/80/4
f 55/56/1 24/90/1 35/52/1
f 25/75/4 51/91/4 22/45/4
f 53/59/13 40/92/13 41/72/13
f 54/51/21 56/54/21 55/56/21
f 5/1/1 22/29/1 36/2/1
f 4/4/2 8/13/2 7/5/2
f 6/3/3 2/37/3 1/7/3
f 2/8/4 4/4/4 3/6/4
f 1/10/5 5/93/5 7/11/5
f 8/13/1 38/36/1 21/14/1
f 17/15/22 10/94/22 9/16/22
f 15/18/7 16/25/7 13/19/7
f 11/21/8 12/95/8 18/17/8
f 14/20/9 13/19/9 12/22/9
f 15/18/23 19/96/23 20/24/23
f 36/2/5 17/97/5 18/26/5
f 21/14/24 19/98/24 15/27/24
f 9/28/25 10/99/25 22/29/25
f 10/30/2 17/100/2 36/31/2
f 13/33/5 16/35/5 8/13/5
f 12/34/5 13/33/5 4/4/5
f 16/35/5 20/101/5 38/36/5
f 18/26/5 12/102/5 2/37/5
f 20/38/3 19/103/3 21/39/3
f 54/41/5 46/104/5 47/42/5
f 35/44/3 25/75/3 22/45/3
f 47/47/4 49/70/4 28/48/4
f 28/48/2 27/78/2 26/50/2
f 54/51/1 55/56/1 35/52/1
f 56/54/12 34/64/12 33/55/12
f 36/57/13 24/105/13 52/58/13
f 42/60/14 44/73/14 43/61/14
f 29/63/15 30/68/15 33/55/15
f 37/62/16 43/61/16 48/65/16
f 31/67/17 32/69/17 30/68/17
f 32/69/18 31/67/18 49/70/18
f 41/72/19 40/92/19 44/73/19
f 35/44/3 24/106/3 36/74/3
f 31/67/4 37/84/4 45/76/4
f 28/48/2 38/88/2 39/77/2
f 33/55/1 40/86/1 52/79/1
f 29/63/4 34/64/4 41/80/4
f 30/68/1 32/69/1 43/82/1
f 29/63/4 42/81/4 37/84/4
f 50/71/1 27/78/1 39/77/1
f 30/68/1 44/83/1 40/86/1
f 56/54/4 25/75/4 36/74/4
f 32/69/1 50/71/1 48/85/1
f 49/70/4 45/76/4 38/88/4
f 45/66/16 48/65/16 39/77/16
f 27/78/1 50/71/1 46/89/1
f 50/71/20 49/70/20 47/47/20
f 34/64/4 56/54/4 53/87/4
f 55/56/1 52/79/1 24/90/1
f 25/75/4 56/54/4 51/91/4
f 53/59/13 52/58/13 40/92/13
f 54/51/21 51/107/21 56/54/21
