# Blender v2.80 (sub 75) OBJ File: 'Bathroom.blend'
# www.blender.org
mtllib Bathroom.mtl
o Bathroom_Cube.003
v 4.000000 -2.000000 5.000000
v -4.000000 -2.000000 5.000000
v 1.537680 -2.000000 -5.000000
v 4.000000 -2.000000 -1.922101
v -4.000000 -2.000000 -1.922101
v -1.537681 -2.000000 -5.000000
v -0.977080 -2.000000 -6.000000
v -0.977079 1.790588 -6.000000
v 1.022921 1.790588 -5.000000
v 1.022920 -2.000000 -6.000000
v 1.022921 1.790588 -6.000000
v 0.023003 2.061248 -6.000000
v 0.023003 2.061248 -5.000000
v 0.501906 1.966729 -6.000000
v 0.501906 1.966729 -5.000000
v -0.463450 1.963687 -5.000000
v -0.463450 1.963687 -6.000000
v -0.977079 1.790588 -5.000000
v -0.977080 2.000000 -6.000000
v 0.522920 2.313313 -6.000000
v 1.022920 2.000000 -6.000000
v 1.022920 2.000000 -5.000000
v -0.484623 2.310205 -5.000000
v -0.484623 2.310205 -6.000000
v 0.022920 2.411996 -6.000000
v 0.522920 2.313313 -5.000000
v 0.022920 2.411996 -5.000000
v 0.772920 2.156657 -6.000000
v 0.772920 -2.000000 -5.000000
v 0.772920 -2.000000 -6.000000
v 0.772920 2.156657 -5.000000
v 0.754404 1.808507 -6.000000
v 0.754404 1.808507 -5.000000
v -0.730851 -2.000000 -6.000000
v -0.730851 2.155103 -5.000000
v -0.730851 2.155103 -6.000000
v -0.730851 -2.000000 -5.000000
v -0.712215 1.806986 -5.000000
v -0.712215 1.806986 -6.000000
v 1.022921 -2.000000 -5.000000
v -0.977079 -2.000000 -5.000000
v -0.977079 2.000000 -5.000000
v -4.000000 -2.000000 0.592705
v -4.000000 -2.000000 2.592705
v -4.000000 2.000000 2.592705
v -5.000000 -2.000000 2.592705
v -5.000000 1.790588 2.592704
v -4.000000 1.790588 0.592704
v -5.000000 -2.000000 0.592705
v -5.000000 1.790588 0.592705
v -5.000000 2.061248 1.592621
v -4.000000 2.061248 1.592621
v -5.000000 1.966729 1.113719
v -4.000000 1.966729 1.113719
v -4.000000 1.963687 2.079075
v -5.000000 1.963687 2.079075
v -4.000000 1.790588 2.592704
v -5.000000 2.000000 2.592705
v -5.000000 2.313313 1.092704
v -5.000000 2.000000 0.592705
v -4.000000 2.000000 0.592704
v -4.000000 2.310205 2.100248
v -5.000000 2.310205 2.100248
v -5.000000 2.411996 1.592704
v -4.000000 2.313313 1.092704
v -4.000000 2.411996 1.592704
v -5.000000 2.156657 0.842705
v -4.000000 -2.000000 0.842704
v -5.000000 -2.000000 0.842705
v -4.000000 2.156657 0.842704
v -5.000000 1.808507 0.861221
v -4.000000 1.808507 0.861221
v -5.000000 -2.000000 2.346477
v -4.000000 2.155103 2.346477
v -5.000000 2.155103 2.346477
v -4.000000 -2.000000 2.346477
v -4.000000 1.806986 2.327840
v -5.000000 1.806986 2.327840
v 4.000000 -2.000000 5.000000
v 4.000000 2.000000 5.000000
v -4.000000 -2.000000 5.000000
v -4.000000 2.000000 5.000000
v 1.537680 -2.000000 -5.000000
v 4.000000 -2.000000 -1.922101
v 4.000000 2.000000 -1.922101
v 1.537680 2.000000 -5.000000
v -4.000000 -2.000000 -1.922101
v -1.537681 -2.000000 -5.000000
v -1.537681 2.000000 -5.000000
v -4.000000 2.000000 -1.922101
v 1.022920 2.000000 -5.000000
v 1.022921 -2.000000 -5.000000
v -0.977079 -2.000000 -5.000000
v -0.977079 2.000000 -5.000000
v -4.000000 -2.000000 0.592705
v -4.000000 -2.000000 2.592705
v -4.000000 2.000000 2.592705
v -4.000000 2.000000 0.592704
v -3.863617 -2.000000 4.829522
v 3.863618 -2.000000 4.829522
v 3.863618 2.000000 4.829522
v -3.863617 2.000000 4.829522
v -3.821808 2.000000 -1.829839
v -1.463871 2.000000 -4.777260
v -1.463871 -2.000000 -4.777260
v -3.821808 -2.000000 -1.829839
v 1.463871 2.000000 -4.777260
v 3.821808 2.000000 -1.829839
v 3.821808 -2.000000 -1.829839
v 1.463871 -2.000000 -4.777260
v 1.022921 -2.000000 -4.758908
v -0.977079 2.000000 -4.758908
v -0.977079 -2.000000 -4.758908
v 1.022920 2.000000 -4.758908
v -3.807126 -2.000000 0.592705
v -3.807126 2.000000 0.592704
v -3.807126 2.000000 2.592705
v -3.807126 -2.000000 2.592705
vt 0.375000 0.673052
vt 0.375000 0.576947
vt 0.298052 0.500000
vt 0.611912 0.000000
vt 0.375000 0.250000
vt 0.375000 0.000000
vt 0.375000 0.468750
vt 0.611912 0.500000
vt 0.375000 0.500000
vt 0.375000 0.750000
vt 0.375000 0.969221
vt 0.611383 0.997988
vt 0.375000 1.000000
vt 0.611867 0.283108
vt 0.612824 0.935796
vt 0.612103 0.966892
vt 0.875000 0.500000
vt 0.844221 0.750000
vt 0.844221 0.500000
vt 0.750000 0.500000
vt 0.687500 0.750000
vt 0.687500 0.500000
vt 0.613076 0.375010
vt 0.612351 0.314204
vt 0.656250 0.750000
vt 0.656250 0.500000
vt 0.612834 0.434873
vt 0.613075 0.874990
vt 0.612366 0.815127
vt 0.612373 0.467437
vt 0.611878 0.783565
vt 0.813443 0.500000
vt 0.750000 0.750000
vt 0.625000 0.250000
vt 0.611383 0.252012
vt 0.625000 0.468750
vt 0.625000 0.750000
vt 0.611389 0.752002
vt 0.625000 0.969221
vt 0.625000 0.311557
vt 0.625000 0.375000
vt 0.625000 0.812500
vt 0.625000 0.875000
vt 0.625000 0.437500
vt 0.625000 0.781250
vt 0.625000 0.938443
vt 0.625000 0.280779
vt 0.625000 0.500000
vt 0.375000 0.781250
vt 0.625000 1.000000
vt 0.375000 0.280779
vt 0.813443 0.750000
vt 0.155779 0.500000
vt 0.611912 0.000000
vt 0.375000 0.250000
vt 0.375000 0.000000
vt 0.375000 0.468750
vt 0.611912 0.500000
vt 0.375000 0.500000
vt 0.375000 0.750000
vt 0.375000 0.969221
vt 0.611383 0.997988
vt 0.375000 1.000000
vt 0.611867 0.283108
vt 0.612824 0.935796
vt 0.612103 0.966892
vt 0.875000 0.500000
vt 0.844221 0.750000
vt 0.844221 0.500000
vt 0.750000 0.500000
vt 0.687500 0.750000
vt 0.687500 0.500000
vt 0.613076 0.375010
vt 0.612351 0.314204
vt 0.656250 0.750000
vt 0.656250 0.500000
vt 0.612834 0.434873
vt 0.613075 0.874990
vt 0.612366 0.815127
vt 0.612373 0.467437
vt 0.611878 0.783565
vt 0.813443 0.500000
vt 0.750000 0.750000
vt 0.625000 0.250000
vt 0.611383 0.252012
vt 0.625000 0.468750
vt 0.625000 0.750000
vt 0.611389 0.752002
vt 0.625000 0.969221
vt 0.625000 0.311557
vt 0.625000 0.375000
vt 0.625000 0.812500
vt 0.625000 0.875000
vt 0.625000 0.437500
vt 0.625000 0.781250
vt 0.625000 0.938443
vt 0.625000 0.280779
vt 0.625000 0.500000
vt 0.375000 0.781250
vt 0.625000 1.000000
vt 0.375000 0.280779
vt 0.813443 0.750000
vt 0.625000 0.000000
vt 0.375000 0.250000
vt 0.375000 0.000000
vt 0.625000 0.826947
vt 0.375000 1.000000
vt 0.375000 0.826947
vt 0.375000 0.673052
vt 0.625000 0.673052
vt 0.625000 0.673052
vt 0.625000 0.250000
vt 0.375000 0.250000
vt 0.375000 0.576947
vt 0.625000 0.423053
vt 0.625000 0.576947
vt 0.375000 0.576947
vt 0.375000 0.423053
vt 0.625000 0.423053
vt 0.375000 0.250000
vt 0.625000 0.000000
vt 0.375000 0.000000
vt 0.375000 1.000000
vt 0.625000 0.826947
vt 0.375000 0.826947
vt 0.625000 0.673052
vt 0.375000 0.673052
vt 0.625000 0.673052
vt 0.375000 0.250000
vt 0.625000 0.250000
vt 0.625000 0.423053
vt 0.375000 0.576947
vt 0.625000 0.576947
vt 0.375000 0.576947
vt 0.625000 0.423053
vt 0.375000 0.423053
vt 0.625000 1.000000
vt 0.625000 1.000000
vt 0.375000 0.423053
vt 0.375000 0.423053
vt 0.375000 0.673052
vt 0.625000 0.250000
vt 0.625000 0.250000
vt 0.625000 0.576947
vt 0.625000 0.576947
vt 0.375000 0.673052
vt 0.125000 0.500000
vt 0.125000 0.750000
vt 0.298052 0.750000
vt 0.875000 0.750000
vt 0.625000 0.000000
vt 0.875000 0.750000
vt 0.625000 0.000000
vt 0.155779 0.500000
vn 0.0000 1.0000 0.0000
vn -1.0000 0.0000 0.0000
vn 0.0000 0.0000 -1.0000
vn 1.0000 -0.0000 -0.0000
vn 0.0000 0.0000 1.0000
vn 0.5330 -0.8461 0.0000
vn -0.5330 0.8461 0.0000
vn 0.1936 0.9811 0.0000
vn 0.1966 -0.9805 -0.0000
vn 0.5310 0.8474 0.0000
vn -0.1936 -0.9811 -0.0000
vn -0.5310 -0.8474 0.0000
vn -0.1966 0.9805 -0.0000
vn -1.0000 -0.0049 0.0000
vn 1.0000 -0.0049 0.0000
vn 0.0000 -0.8461 -0.5330
vn 0.0000 0.8461 0.5330
vn 0.0000 0.9811 -0.1936
vn 0.0000 -0.9805 -0.1966
vn 0.0000 0.8474 -0.5310
vn 0.0000 -0.9811 0.1936
vn 0.0000 -0.8474 0.5310
vn 0.0000 0.9805 0.1966
vn 0.0000 -0.0049 1.0000
vn 0.0000 -0.0049 -1.0000
vn -0.7809 0.0000 -0.6247
vn 0.7809 0.0000 -0.6247
vn -1.0000 0.0000 0.0063
vn 0.0416 0.0000 0.9991
vn 0.9997 0.0000 0.0252
vn 0.7809 0.0000 0.6247
vn -0.7809 0.0000 0.6247
vn -0.0377 0.0000 0.9993
vn 1.0000 0.0000 -0.0061
vn 0.0000 -1.0000 0.0000
usemtl None
s off
f 3/1/1 6/2/1 5/3/1
f 18/4/2 7/5/2 41/6/2
f 30/7/3 11/8/3 10/9/3
f 11/8/4 40/10/4 10/9/4
f 37/11/5 18/12/5 41/13/5
f 39/14/6 16/15/6 38/16/6
f 19/17/7 35/18/7 36/19/7
f 25/20/8 26/21/8 20/22/8
f 12/23/9 16/15/9 17/24/9
f 20/22/10 31/25/10 28/26/10
f 14/27/11 13/28/11 12/23/11
f 15/29/12 32/30/12 33/31/12
f 24/32/13 27/33/13 25/20/13
f 18/4/2 19/34/2 8/35/2
f 14/27/3 28/36/3 32/30/3
f 11/8/4 22/37/4 9/38/4
f 16/15/5 35/39/5 38/16/5
f 12/23/3 24/40/3 25/41/3
f 13/28/5 26/42/5 27/43/5
f 12/23/3 20/44/3 14/27/3
f 33/31/5 22/37/5 31/45/5
f 13/28/5 23/46/5 16/15/5
f 39/14/3 19/34/3 36/47/3
f 15/29/5 31/45/5 26/42/5
f 32/30/3 21/48/3 11/8/3
f 28/26/10 22/37/10 21/48/10
f 9/38/5 29/49/5 40/10/5
f 33/31/14 30/7/14 29/49/14
f 17/24/3 36/47/3 24/40/3
f 38/16/5 42/50/5 18/12/5
f 8/35/3 34/51/3 7/5/3
f 36/19/7 23/52/7 24/32/7
f 37/11/15 39/14/15 38/16/15
f 29/49/1 34/53/1 37/11/1
f 57/54/5 46/55/5 44/56/5
f 69/57/2 50/58/2 49/59/2
f 50/58/3 43/60/3 49/59/3
f 76/61/4 57/62/4 44/63/4
f 78/64/16 55/65/16 77/66/16
f 58/67/17 74/68/17 75/69/17
f 64/70/18 65/71/18 59/72/18
f 51/73/19 55/65/19 56/74/19
f 59/72/20 70/75/20 67/76/20
f 53/77/21 52/78/21 51/73/21
f 54/79/22 71/80/22 72/81/22
f 63/82/23 66/83/23 64/70/23
f 57/54/5 58/84/5 47/85/5
f 53/77/2 67/86/2 71/80/2
f 50/58/3 61/87/3 48/88/3
f 55/65/4 74/89/4 77/66/4
f 51/73/2 63/90/2 64/91/2
f 52/78/4 65/92/4 66/93/4
f 51/73/2 59/94/2 53/77/2
f 72/81/4 61/87/4 70/95/4
f 52/78/4 62/96/4 55/65/4
f 78/64/2 58/84/2 75/97/2
f 54/79/4 70/95/4 65/92/4
f 71/80/2 60/98/2 50/58/2
f 67/76/20 61/87/20 60/98/20
f 48/88/4 68/99/4 43/60/4
f 72/81/24 69/57/24 68/99/24
f 56/74/2 75/97/2 63/90/2
f 77/66/4 45/100/4 57/62/4
f 47/85/2 73/101/2 46/55/2
f 75/69/17 62/102/17 63/82/17
f 76/61/25 78/64/25 77/66/25
f 69/57/1 76/61/1 68/99/1
f 80/103/5 81/104/5 79/105/5
f 85/106/4 79/107/4 84/108/4
f 83/109/3 91/110/3 86/111/3
f 82/112/2 96/113/2 81/104/2
f 88/114/26 90/115/26 89/116/26
f 84/108/27 86/111/27 85/106/27
f 89/116/3 93/117/3 88/114/3
f 87/118/2 98/119/2 90/115/2
f 99/120/3 101/121/3 100/122/3
f 100/123/28 108/124/28 109/125/28
f 114/126/29 110/127/29 107/128/29
f 118/129/30 102/130/30 99/120/30
f 103/131/31 105/132/31 104/133/31
f 107/128/32 109/125/32 108/124/32
f 113/134/33 104/133/33 105/132/33
f 116/135/34 106/136/34 103/131/34
f 85/106/1 101/137/1 80/138/1
f 105/132/35 87/118/35 88/114/35
f 115/139/5 98/119/5 95/140/5
f 110/127/35 92/141/35 83/109/35
f 117/142/3 96/113/3 97/143/3
f 81/104/35 100/122/35 79/105/35
f 112/144/4 93/117/4 94/145/4
f 107/128/1 85/106/1 86/111/1
f 98/119/1 103/131/1 90/115/1
f 93/117/35 105/132/35 88/114/35
f 96/113/35 99/120/35 81/104/35
f 80/103/1 102/130/1 82/112/1
f 104/133/1 94/145/1 89/116/1
f 109/125/35 83/109/35 84/108/35
f 102/130/1 97/143/1 82/112/1
f 111/146/2 91/110/2 92/141/2
f 103/131/1 89/116/1 90/115/1
f 91/110/1 107/128/1 86/111/1
f 100/123/35 84/108/35 79/107/35
f 106/136/35 95/140/35 87/118/35
f 5/3/1 2/147/1 1/148/1
f 1/148/1 4/149/1 5/3/1
f 4/149/1 3/1/1 5/3/1
f 18/4/2 8/35/2 7/5/2
f 30/7/3 32/30/3 11/8/3
f 11/8/4 9/38/4 40/10/4
f 37/11/5 38/16/5 18/12/5
f 39/14/6 17/24/6 16/15/6
f 19/17/7 42/150/7 35/18/7
f 25/20/8 27/33/8 26/21/8
f 12/23/9 13/28/9 16/15/9
f 20/22/10 26/21/10 31/25/10
f 14/27/11 15/29/11 13/28/11
f 15/29/12 14/27/12 32/30/12
f 24/32/13 23/52/13 27/33/13
f 18/4/2 42/151/2 19/34/2
f 14/27/3 20/44/3 28/36/3
f 11/8/4 21/48/4 22/37/4
f 16/15/5 23/46/5 35/39/5
f 12/23/3 17/24/3 24/40/3
f 13/28/5 15/29/5 26/42/5
f 12/23/3 25/41/3 20/44/3
f 33/31/5 9/38/5 22/37/5
f 13/28/5 27/43/5 23/46/5
f 39/14/3 8/35/3 19/34/3
f 15/29/5 33/31/5 31/45/5
f 32/30/3 28/36/3 21/48/3
f 28/26/10 31/25/10 22/37/10
f 9/38/5 33/31/5 29/49/5
f 33/31/14 32/30/14 30/7/14
f 17/24/3 39/14/3 36/47/3
f 38/16/5 35/39/5 42/50/5
f 8/35/3 39/14/3 34/51/3
f 36/19/7 35/18/7 23/52/7
f 37/11/15 34/53/15 39/14/15
f 29/49/1 30/7/1 34/53/1
f 57/54/5 47/85/5 46/55/5
f 69/57/2 71/80/2 50/58/2
f 50/58/3 48/88/3 43/60/3
f 76/61/4 77/66/4 57/62/4
f 78/64/16 56/74/16 55/65/16
f 58/67/17 45/152/17 74/68/17
f 64/70/18 66/83/18 65/71/18
f 51/73/19 52/78/19 55/65/19
f 59/72/20 65/71/20 70/75/20
f 53/77/21 54/79/21 52/78/21
f 54/79/22 53/77/22 71/80/22
f 63/82/23 62/102/23 66/83/23
f 57/54/5 45/153/5 58/84/5
f 53/77/2 59/94/2 67/86/2
f 50/58/3 60/98/3 61/87/3
f 55/65/4 62/96/4 74/89/4
f 51/73/2 56/74/2 63/90/2
f 52/78/4 54/79/4 65/92/4
f 51/73/2 64/91/2 59/94/2
f 72/81/4 48/88/4 61/87/4
f 52/78/4 66/93/4 62/96/4
f 78/64/2 47/85/2 58/84/2
f 54/79/4 72/81/4 70/95/4
f 71/80/2 67/86/2 60/98/2
f 67/76/20 70/75/20 61/87/20
f 48/88/4 72/81/4 68/99/4
f 72/81/24 71/80/24 69/57/24
f 56/74/2 78/64/2 75/97/2
f 77/66/4 74/89/4 45/100/4
f 47/85/2 78/64/2 73/101/2
f 75/69/17 74/68/17 62/102/17
f 76/61/25 73/154/25 78/64/25
f 69/57/1 73/154/1 76/61/1
f 80/103/5 82/112/5 81/104/5
f 85/106/4 80/138/4 79/107/4
f 83/109/3 92/141/3 91/110/3
f 82/112/2 97/143/2 96/113/2
f 88/114/26 87/118/26 90/115/26
f 84/108/27 83/109/27 86/111/27
f 89/116/3 94/145/3 93/117/3
f 87/118/2 95/140/2 98/119/2
f 99/120/3 102/130/3 101/121/3
f 100/123/28 101/137/28 108/124/28
f 114/126/29 111/146/29 110/127/29
f 118/129/30 117/142/30 102/130/30
f 103/131/31 106/136/31 105/132/31
f 107/128/32 110/127/32 109/125/32
f 113/134/33 112/144/33 104/133/33
f 116/135/34 115/139/34 106/136/34
f 85/106/1 108/124/1 101/137/1
f 105/132/35 106/136/35 87/118/35
f 115/139/5 116/135/5 98/119/5
f 110/127/35 111/146/35 92/141/35
f 117/142/3 118/129/3 96/113/3
f 81/104/35 99/120/35 100/122/35
f 112/144/4 113/134/4 93/117/4
f 107/128/1 108/124/1 85/106/1
f 98/119/1 116/135/1 103/131/1
f 93/117/35 113/134/35 105/132/35
f 96/113/35 118/129/35 99/120/35
f 80/103/1 101/121/1 102/130/1
f 104/133/1 112/144/1 94/145/1
f 109/125/35 110/127/35 83/109/35
f 102/130/1 117/142/1 97/143/1
f 111/146/2 114/126/2 91/110/2
f 103/131/1 104/133/1 89/116/1
f 91/110/1 114/126/1 107/128/1
f 100/123/35 109/125/35 84/108/35
f 106/136/35 115/139/35 95/140/35
