# Blender v2.80 (sub 75) OBJ File: 'Billiard Room.blend'
# www.blender.org
mtllib Billiard Room.mtl
o Billiard_Room.001_Cube.000
v 6.000000 -2.000000 5.000000
v 6.000000 2.000000 5.000000
v -6.000000 -2.000000 5.000000
v -6.000000 2.000000 5.000000
v 6.000000 -2.000000 -5.000000
v 6.000000 2.000000 -5.000000
v -6.000000 -2.000000 -5.000000
v -6.000000 2.000000 -5.000000
v -6.000001 2.000000 -0.990903
v 0.985306 -2.000000 -5.000000
v -1.014695 2.000000 -5.000000
v 0.985305 2.000000 -5.000000
v -1.014694 -2.000000 -5.000000
v 5.728891 -2.000000 4.774075
v 5.728891 2.000000 4.774075
v -5.728891 2.000000 4.774076
v -5.728891 -2.000000 4.774076
v 0.985305 2.000000 -4.680495
v 0.985306 -2.000000 -4.680495
v -5.728891 -2.000000 -4.774075
v -5.616594 -2.000000 -0.990902
v -5.728891 2.000000 -4.774075
v -5.616595 2.000000 -0.990903
v 5.728891 2.000000 -4.774076
v 5.728891 -2.000000 -4.774076
v -5.616594 2.000000 1.009097
v -5.616594 -2.000000 1.009097
v -1.014694 -2.000000 -4.680495
v -1.014695 2.000000 -4.680495
v -6.000000 2.000000 1.009097
v -6.000000 -2.000000 1.009097
v -7.000001 -2.000000 1.009097
v -7.000001 1.790588 1.009097
v -6.000001 1.790588 -0.990903
v -7.000001 -2.000000 -0.990903
v -7.000001 1.790588 -0.990903
v -7.000001 2.061248 0.009014
v -6.000001 2.061248 0.009014
v -7.000001 1.966729 -0.469889
v -6.000001 1.966729 -0.469889
v -6.000001 1.963687 0.495468
v -7.000001 1.963687 0.495468
v -6.000001 1.790588 1.009097
v -7.000001 2.000000 1.009097
v -7.000001 2.313313 -0.490903
v -7.000001 2.000000 -0.990903
v -6.000001 2.310205 0.516641
v -7.000001 2.310205 0.516641
v -7.000001 2.411996 0.009097
v -6.000001 2.313313 -0.490903
v -6.000001 2.411996 0.009097
v -7.000001 2.156657 -0.740903
v -6.000001 -2.000000 -0.740903
v -7.000001 -2.000000 -0.740903
v -6.000001 2.156657 -0.740903
v -7.000001 1.808507 -0.722387
v -6.000001 1.808507 -0.722387
v -7.000001 -2.000000 0.762869
v -6.000001 2.155103 0.762869
v -7.000001 2.155103 0.762869
v -6.000001 -2.000000 0.762869
v -6.000001 1.806986 0.744233
v -7.000001 1.806986 0.744233
v -6.000000 -2.000000 -0.990902
v 0.985306 -2.000000 -6.000001
v 0.985306 2.000000 -6.000001
v 0.985306 1.790588 -5.000000
v -1.014695 -2.000000 -6.000001
v -1.014694 1.790588 -6.000001
v -1.014694 1.790588 -5.000000
v -0.014777 2.061248 -5.000000
v -0.014777 2.061248 -6.000001
v -0.493680 1.966729 -5.000000
v -0.493680 1.966729 -6.000001
v 0.471676 1.963686 -6.000001
v 0.471676 1.963686 -5.000000
v 0.985306 1.790588 -6.000001
v -0.514694 2.313313 -5.000000
v -1.014695 2.000000 -6.000001
v 0.492849 2.310205 -6.000001
v 0.492849 2.310205 -5.000000
v -0.014694 2.411996 -5.000000
v -0.514694 2.313313 -6.000001
v -0.014694 2.411996 -6.000001
v -0.764694 2.156657 -5.000000
v -0.764694 -2.000000 -6.000001
v -0.764694 -2.000000 -5.000000
v -0.764694 2.156657 -6.000001
v -0.746178 1.808507 -5.000000
v -0.746178 1.808507 -6.000001
v 0.739078 -2.000000 -5.000000
v 0.739078 2.155103 -6.000001
v 0.739078 2.155103 -5.000000
v 0.739078 -2.000000 -6.000001
v 0.720441 1.806986 -6.000001
v 0.720441 1.806986 -5.000000
vt 0.145327 0.878906
vt 0.112486 0.878906
vt 0.112486 0.878906
vt 0.112486 0.911747
vt 0.145327 0.911747
vt 0.145327 0.911747
vt 0.145327 0.813225
vt 0.112486 0.846066
vt 0.112486 0.813225
vt 0.145327 0.878906
vt 0.145327 0.846066
vt 0.112486 0.846066
vt 0.112486 0.944588
vt 0.534361 0.652344
vt 0.567202 0.652344
vt 0.534361 0.652344
vt 0.567202 0.685184
vt 0.534361 0.685184
vt 0.567202 0.685184
vt 0.534361 0.619503
vt 0.567202 0.586662
vt 0.534361 0.586662
vt 0.567202 0.652344
vt 0.534361 0.619503
vt 0.567202 0.619503
vt 0.534361 0.718025
vt 0.145327 0.878906
vt 0.112486 0.846066
vt 0.112486 0.911747
vt 0.112486 0.911747
vt 0.614077 0.646847
vt 0.581236 0.646847
vt 0.614077 0.646847
vt 0.581236 0.712528
vt 0.614077 0.712528
vt 0.581236 0.712528
vt 0.112486 0.878906
vt 0.145327 0.813225
vt 0.112486 0.878906
vt 0.614077 0.679688
vt 0.581236 0.679688
vt 0.614077 0.679688
vt 0.145327 0.911747
vt 0.145327 0.878906
vt 0.112486 0.944588
vt 0.581236 0.679688
vt 0.614077 0.679688
vt 0.581236 0.679688
vt 0.145327 0.944588
vt 0.145327 0.846066
vt 0.145327 0.846066
vt 0.398277 0.923065
vt 0.424459 0.926251
vt 0.398277 0.926474
vt 0.845585 0.888408
vt 0.888790 0.845204
vt 0.845585 0.845204
vt 0.398277 0.867633
vt 0.424518 0.871094
vt 0.398277 0.871094
vt 0.424518 0.815713
vt 0.398277 0.843404
vt 0.398277 0.815713
vt 0.398277 0.898784
vt 0.312588 0.887539
vt 0.292617 0.908613
vt 0.292617 0.887539
vt 0.292617 0.927053
vt 0.312588 0.929688
vt 0.292617 0.929688
vt 0.292617 0.950762
vt 0.292617 0.969241
vt 0.312544 0.971666
vt 0.292617 0.971836
vt 0.312584 0.911404
vt 0.312665 0.966424
vt 0.312604 0.969045
vt 0.334766 0.929688
vt 0.332171 0.950762
vt 0.332171 0.929688
vt 0.324229 0.929688
vt 0.318960 0.950762
vt 0.318960 0.929688
vt 0.312686 0.919151
vt 0.312625 0.914026
vt 0.316326 0.950762
vt 0.316326 0.929688
vt 0.312666 0.924198
vt 0.312686 0.961298
vt 0.312626 0.956252
vt 0.312627 0.926943
vt 0.312585 0.953591
vt 0.329577 0.929688
vt 0.324229 0.950762
vt 0.313691 0.908613
vt 0.312544 0.908783
vt 0.313691 0.927053
vt 0.313691 0.950762
vt 0.312544 0.950930
vt 0.313691 0.969241
vt 0.313691 0.913802
vt 0.313691 0.919150
vt 0.313691 0.956030
vt 0.313691 0.961299
vt 0.313691 0.924419
vt 0.313691 0.953396
vt 0.313691 0.966647
vt 0.313691 0.911208
vt 0.313691 0.929688
vt 0.292617 0.953396
vt 0.313691 0.971836
vt 0.292617 0.911208
vt 0.329577 0.950762
vt 0.424513 0.847071
vt 0.424619 0.919363
vt 0.424539 0.922807
vt 0.450248 0.871094
vt 0.453658 0.898784
vt 0.450248 0.898784
vt 0.439812 0.871094
vt 0.432890 0.898784
vt 0.432890 0.871094
vt 0.424647 0.857250
vt 0.424566 0.850515
vt 0.429429 0.898784
vt 0.429429 0.871094
vt 0.424620 0.863880
vt 0.424646 0.912628
vt 0.424568 0.905997
vt 0.424569 0.867487
vt 0.424514 0.902502
vt 0.446839 0.871094
vt 0.439812 0.898784
vt 0.424459 0.843626
vt 0.425967 0.815713
vt 0.425967 0.843404
vt 0.425967 0.867633
vt 0.425967 0.898784
vt 0.424460 0.899006
vt 0.425967 0.923065
vt 0.425967 0.850222
vt 0.425967 0.857249
vt 0.425967 0.905706
vt 0.425967 0.912629
vt 0.425967 0.864171
vt 0.425967 0.902245
vt 0.425967 0.919656
vt 0.425967 0.846813
vt 0.425967 0.871094
vt 0.398277 0.902245
vt 0.425967 0.926474
vt 0.398277 0.846813
vt 0.446839 0.898784
vt 0.888790 0.839803
vt 0.888790 0.926293
vt 0.888790 0.893809
vt 0.888790 0.839803
vt 0.888790 0.926293
vt 0.888790 0.893809
vt 0.567202 0.652344
vt 0.534361 0.685184
vt 0.534361 0.652344
vt 0.567202 0.619503
vt 0.567202 0.718025
vt 0.145327 0.878906
vt 0.112486 0.846066
vt 0.112486 0.911747
vt 0.581236 0.646847
vt 0.112486 0.813225
vt 0.614077 0.712528
vt 0.112486 0.878906
vt 0.112486 0.878906
vt 0.581236 0.679688
vt 0.145327 0.911747
vt 0.145327 0.878906
vt 0.614077 0.679688
vt 0.145327 0.944588
vt 0.145327 0.846066
vt 0.888790 0.888408
vt 0.334766 0.950762
vt 0.313691 0.887539
vt 0.274138 0.929688
vt 0.453658 0.871094
vt 0.373996 0.871094
vt 0.850904 0.845204
vt 0.850904 0.845204
vn 0.0000 0.0000 -1.0000
vn 0.0000 0.0000 1.0000
vn -1.0000 0.0000 -0.0000
vn 1.0000 0.0000 0.0000
vn -0.0198 0.0000 0.9998
vn 0.0197 0.0000 0.9998
vn 0.9996 0.0000 -0.0297
vn 0.9996 0.0000 0.0298
vn 0.0000 1.0000 0.0000
vn 0.0000 -1.0000 0.0000
vn 0.0000 -0.8461 -0.5330
vn 0.0000 0.8461 0.5330
vn -0.0000 0.9811 -0.1936
vn -0.0000 -0.9805 -0.1966
vn 0.0000 0.8474 -0.5310
vn 0.0000 -0.9811 0.1936
vn 0.0000 -0.8474 0.5310
vn 0.0000 0.9805 0.1966
vn 0.0000 -0.0049 1.0000
vn 0.0000 -0.0049 -1.0000
vn -0.5330 -0.8461 0.0000
vn 0.5330 0.8461 0.0000
vn -0.1936 0.9811 0.0000
vn -0.1966 -0.9805 0.0000
vn -0.5310 0.8474 0.0000
vn 0.1936 -0.9811 0.0000
vn 0.5310 -0.8474 0.0000
vn 0.1966 0.9805 0.0000
vn 1.0000 -0.0049 0.0000
vn -1.0000 -0.0049 0.0000
usemtl Material
s off
f 8/1/1 13/2/1 7/3/1
f 5/4/1 12/5/1 6/6/1
f 2/7/2 3/8/2 1/9/2
f 7/3/3 9/10/3 8/1/3
f 4/11/3 31/12/3 3/8/3
f 6/6/4 1/13/4 5/4/4
f 28/14/5 22/15/5 20/16/5
f 18/17/6 25/18/6 24/19/6
f 17/20/1 15/21/1 14/22/1
f 23/23/7 20/16/7 22/15/7
f 27/24/8 16/25/8 17/20/8
f 14/26/3 24/19/3 25/18/3
f 9/10/9 22/27/9 8/1/9
f 31/12/10 17/28/10 3/8/10
f 25/29/10 10/30/10 5/4/10
f 26/31/1 31/32/1 30/33/1
f 17/28/10 1/9/10 3/8/10
f 19/34/3 12/35/3 10/36/3
f 13/2/10 20/37/10 7/3/10
f 15/38/9 4/11/9 2/7/9
f 20/37/10 64/39/10 7/3/10
f 29/40/4 13/41/4 11/42/4
f 12/5/9 24/43/9 6/6/9
f 22/27/9 11/44/9 8/1/9
f 14/45/10 5/4/10 1/13/10
f 21/46/2 9/47/2 64/48/2
f 24/43/9 2/49/9 6/6/9
f 16/50/9 30/51/9 4/11/9
f 94/52/1 77/53/1 65/54/1
f 1/55/9 7/56/9 3/57/9
f 87/58/2 70/59/2 13/60/2
f 77/61/4 10/62/4 65/63/4
f 70/59/3 68/64/3 13/60/3
f 43/65/2 32/66/2 31/67/2
f 54/68/3 36/69/3 35/70/3
f 36/69/1 64/71/1 35/70/1
f 61/72/4 43/73/4 31/74/4
f 63/75/11 41/76/11 62/77/11
f 44/78/12 59/79/12 60/80/12
f 49/81/13 50/82/13 45/83/13
f 37/84/14 41/76/14 42/85/14
f 45/83/15 55/86/15 52/87/15
f 39/88/16 38/89/16 37/84/16
f 40/90/17 56/91/17 57/92/17
f 48/93/18 51/94/18 49/81/18
f 43/65/2 44/95/2 33/96/2
f 39/88/3 52/97/3 56/91/3
f 36/69/1 9/98/1 34/99/1
f 41/76/4 59/100/4 62/77/4
f 37/84/3 48/101/3 49/102/3
f 38/89/4 50/103/4 51/104/4
f 37/84/3 45/105/3 39/88/3
f 57/92/4 9/98/4 55/106/4
f 38/89/4 47/107/4 41/76/4
f 63/75/3 44/95/3 60/108/3
f 40/90/4 55/106/4 50/103/4
f 56/91/3 46/109/3 36/69/3
f 52/87/15 9/98/15 46/109/15
f 34/99/4 53/110/4 64/71/4
f 57/92/19 54/68/19 53/110/19
f 42/85/3 60/108/3 48/101/3
f 62/77/4 30/111/4 43/73/4
f 33/96/3 58/112/3 32/66/3
f 60/80/12 47/113/12 48/93/12
f 61/72/20 63/75/20 62/77/20
f 96/114/21 75/115/21 95/116/21
f 93/117/22 66/118/22 92/119/22
f 82/120/23 83/121/23 78/122/23
f 71/123/24 75/115/24 76/124/24
f 78/122/25 88/125/25 85/126/25
f 73/127/26 72/128/26 71/123/26
f 74/129/27 89/130/27 90/131/27
f 81/132/28 84/133/28 82/120/28
f 67/134/4 66/135/4 12/136/4
f 73/127/2 85/137/2 89/130/2
f 70/59/3 79/138/3 69/139/3
f 75/115/1 92/140/1 95/116/1
f 71/123/2 81/141/2 82/142/2
f 72/128/1 83/143/1 84/144/1
f 71/123/2 78/145/2 73/127/2
f 90/131/1 79/138/1 88/146/1
f 72/128/1 80/147/1 75/115/1
f 96/114/2 12/136/2 93/148/2
f 74/129/1 88/146/1 83/143/1
f 89/130/2 11/149/2 70/59/2
f 85/126/25 79/138/25 11/149/25
f 69/139/1 86/150/1 68/64/1
f 90/131/29 87/58/29 86/150/29
f 76/124/2 93/148/2 81/141/2
f 95/116/1 66/151/1 77/53/1
f 67/134/2 91/152/2 10/62/2
f 93/117/22 80/153/22 81/132/22
f 94/52/30 96/114/30 95/116/30
f 54/154/9 61/155/9 53/156/9
f 87/157/9 94/158/9 86/159/9
f 8/1/1 11/44/1 13/2/1
f 5/4/1 10/30/1 12/5/1
f 2/7/2 4/11/2 3/8/2
f 7/3/3 64/39/3 9/10/3
f 4/11/3 30/51/3 31/12/3
f 6/6/4 2/49/4 1/13/4
f 28/14/5 29/160/5 22/15/5
f 18/17/6 19/161/6 25/18/6
f 17/20/1 16/25/1 15/21/1
f 23/23/7 21/162/7 20/16/7
f 27/24/8 26/163/8 16/25/8
f 14/26/3 15/164/3 24/19/3
f 9/10/9 23/165/9 22/27/9
f 31/12/10 27/166/10 17/28/10
f 25/29/10 19/167/10 10/30/10
f 26/31/1 27/168/1 31/32/1
f 17/28/10 14/169/10 1/9/10
f 19/34/3 18/170/3 12/35/3
f 13/2/10 28/171/10 20/37/10
f 15/38/9 16/50/9 4/11/9
f 20/37/10 21/172/10 64/39/10
f 29/40/4 28/173/4 13/41/4
f 12/5/9 18/174/9 24/43/9
f 22/27/9 29/175/9 11/44/9
f 14/45/10 25/29/10 5/4/10
f 21/46/2 23/176/2 9/47/2
f 24/43/9 15/177/9 2/49/9
f 16/50/9 26/178/9 30/51/9
f 94/52/1 95/116/1 77/53/1
f 1/55/9 5/179/9 7/56/9
f 87/58/2 89/130/2 70/59/2
f 77/61/4 67/134/4 10/62/4
f 70/59/3 69/139/3 68/64/3
f 43/65/2 33/96/2 32/66/2
f 54/68/3 56/91/3 36/69/3
f 36/69/1 34/99/1 64/71/1
f 61/72/4 62/77/4 43/73/4
f 63/75/11 42/85/11 41/76/11
f 44/78/12 30/180/12 59/79/12
f 49/81/13 51/94/13 50/82/13
f 37/84/14 38/89/14 41/76/14
f 45/83/15 50/82/15 55/86/15
f 39/88/16 40/90/16 38/89/16
f 40/90/17 39/88/17 56/91/17
f 48/93/18 47/113/18 51/94/18
f 43/65/2 30/181/2 44/95/2
f 39/88/3 45/105/3 52/97/3
f 36/69/1 46/109/1 9/98/1
f 41/76/4 47/107/4 59/100/4
f 37/84/3 42/85/3 48/101/3
f 38/89/4 40/90/4 50/103/4
f 37/84/3 49/102/3 45/105/3
f 57/92/4 34/99/4 9/98/4
f 38/89/4 51/104/4 47/107/4
f 63/75/3 33/96/3 44/95/3
f 40/90/4 57/92/4 55/106/4
f 56/91/3 52/97/3 46/109/3
f 52/87/15 55/86/15 9/98/15
f 34/99/4 57/92/4 53/110/4
f 57/92/19 56/91/19 54/68/19
f 42/85/3 63/75/3 60/108/3
f 62/77/4 59/100/4 30/111/4
f 33/96/3 63/75/3 58/112/3
f 60/80/12 59/79/12 47/113/12
f 61/72/20 58/182/20 63/75/20
f 96/114/21 76/124/21 75/115/21
f 93/117/22 12/183/22 66/118/22
f 82/120/23 84/133/23 83/121/23
f 71/123/24 72/128/24 75/115/24
f 78/122/25 83/121/25 88/125/25
f 73/127/26 74/129/26 72/128/26
f 74/129/27 73/127/27 89/130/27
f 81/132/28 80/153/28 84/133/28
f 67/134/4 77/61/4 66/135/4
f 73/127/2 78/145/2 85/137/2
f 70/59/3 11/149/3 79/138/3
f 75/115/1 80/147/1 92/140/1
f 71/123/2 76/124/2 81/141/2
f 72/128/1 74/129/1 83/143/1
f 71/123/2 82/142/2 78/145/2
f 90/131/1 69/139/1 79/138/1
f 72/128/1 84/144/1 80/147/1
f 96/114/2 67/134/2 12/136/2
f 74/129/1 90/131/1 88/146/1
f 89/130/2 85/137/2 11/149/2
f 85/126/25 88/125/25 79/138/25
f 69/139/1 90/131/1 86/150/1
f 90/131/29 89/130/29 87/58/29
f 76/124/2 96/114/2 93/148/2
f 95/116/1 92/140/1 66/151/1
f 67/134/2 96/114/2 91/152/2
f 93/117/22 92/119/22 80/153/22
f 94/52/30 91/184/30 96/114/30
f 54/154/9 58/185/9 61/155/9
f 87/157/9 91/186/9 94/158/9
