# Blender v2.80 (sub 75) OBJ File: 'Dinning Room.blend'
# www.blender.org
mtllib Dinning Room.mtl
o Dinning_Room_Cube.004
v -4.742628 -2.000000 10.000000
v -8.000000 -2.000000 5.928285
v -8.000000 2.000000 5.928285
v -4.742628 2.000000 10.000000
v -8.000000 -2.000000 -5.928285
v -4.742628 -2.000000 -10.000000
v -4.742628 2.000000 -10.000000
v -8.000000 2.000000 -5.928285
v 8.000000 -2.000000 5.928285
v 4.742628 -2.000000 10.000000
v 4.742628 2.000000 10.000000
v 8.000000 2.000000 5.928285
v 4.742628 -2.000000 -10.000000
v 8.000000 -2.000000 -5.928285
v 8.000000 2.000000 -5.928285
v 4.742628 2.000000 -10.000000
v -1.002348 -2.000000 -10.000000
v -1.002348 2.000000 -10.000001
v -1.002348 -2.000000 -11.000000
v -1.002349 1.790588 -11.000000
v 0.997653 1.790588 -10.000001
v 0.997652 -2.000000 -11.000000
v 0.997653 1.790588 -11.000000
v -0.002265 2.061248 -11.000000
v -0.002265 2.061248 -10.000001
v 0.476637 1.966729 -11.000000
v 0.476637 1.966729 -10.000001
v -0.488719 1.963687 -10.000001
v -0.488719 1.963687 -11.000000
v -1.002349 1.790588 -10.000001
v -1.002348 2.000000 -11.000000
v 0.497652 2.313313 -11.000000
v 0.997652 2.000000 -11.000000
v -0.509892 2.310205 -10.000001
v -0.509892 2.310205 -11.000000
v -0.002348 2.411996 -11.000000
v 0.497652 2.313313 -10.000001
v -0.002348 2.411996 -10.000001
v 0.747652 2.156657 -11.000000
v 0.747652 -2.000000 -10.000001
v 0.747652 -2.000000 -11.000000
v 0.747652 2.156657 -10.000001
v 0.729136 1.808507 -11.000000
v 0.729136 1.808507 -10.000001
v -0.756120 -2.000000 -11.000000
v -0.756120 2.155103 -10.000001
v -0.756120 2.155103 -11.000000
v -0.756120 -2.000000 -10.000001
v -0.737484 1.806986 -10.000001
v -0.737484 1.806986 -11.000000
v 0.997652 -2.000000 -10.000000
v 0.997652 2.000000 -10.000000
v -1.002348 -2.000000 10.999999
v -1.002348 2.000000 10.999998
v -1.002348 -2.000000 9.999999
v -1.002349 1.790588 9.999999
v 0.997653 1.790588 10.999998
v 0.997652 -2.000000 9.999999
v 0.997653 1.790588 9.999999
v -0.002265 2.061248 9.999999
v -0.002265 2.061248 10.999998
v 0.476637 1.966729 9.999999
v 0.476637 1.966729 10.999998
v -0.488719 1.963687 10.999998
v -0.488719 1.963687 9.999999
v -1.002349 1.790588 10.999998
v 8.999998 2.000000 1.498567
v 0.497652 2.313313 9.999999
v 9.000000 -2.000000 1.498567
v -0.509892 2.310205 10.999998
v -0.509892 2.310205 9.999999
v -0.002348 2.411996 9.999999
v 0.497652 2.313313 10.999998
v -0.002348 2.411996 10.999998
v 0.747652 2.156657 9.999999
v 0.747652 -2.000000 10.999998
v 0.747652 -2.000000 9.999999
v 0.747652 2.156657 10.999998
v 0.729136 1.808507 9.999999
v 0.729136 1.808507 10.999998
v -0.756120 -2.000000 9.999999
v -0.756120 2.155103 10.999998
v -0.756120 2.155103 9.999999
v -0.756120 -2.000000 10.999998
v -0.737484 1.806986 10.999998
v -0.737484 1.806986 9.999999
v 0.997652 -2.000000 10.999999
v 0.997652 2.000000 10.999999
v 8.000000 -2.000000 1.498567
v 0.997652 2.000000 10.000000
v 8.000000 -2.000000 0.000000
v -1.002348 2.000000 10.000000
v 7.999999 1.790588 1.498568
v 8.999998 1.790588 -0.501434
v 7.999999 -2.000000 -0.501433
v 7.999999 1.790588 -0.501434
v 7.999999 2.061248 0.498484
v 8.999998 2.061248 0.498484
v 7.999999 1.966729 0.019582
v 8.999998 1.966729 0.019582
v 8.999998 1.963686 0.984938
v 7.999999 1.963686 0.984938
v 8.999998 1.790588 1.498568
v 7.999999 2.313313 -0.001433
v 8.999998 2.310205 1.006111
v 7.999999 2.310205 1.006111
v 7.999999 2.411996 0.498567
v 8.999998 2.313313 -0.001433
v 8.999998 2.411996 0.498567
v 7.999999 2.156657 -0.251433
v 8.999998 -2.000000 -0.251433
v 7.999999 -2.000000 -0.251433
v 8.999998 2.156657 -0.251433
v 7.999999 1.808507 -0.232916
v 8.999998 1.808507 -0.232916
v 7.999999 -2.000000 1.252339
v 8.999998 2.155103 1.252339
v 7.999999 2.155103 1.252339
v 8.999998 -2.000000 1.252339
v 8.999998 1.806986 1.233703
v 7.999999 1.806986 1.233703
v 9.000000 -2.000000 -0.501433
v 9.000000 2.000000 -0.501433
v 8.000000 2.000000 -0.501433
v 8.000000 2.000000 1.498567
vt 0.625000 0.800896
vt 0.375000 0.800896
vt 0.375000 0.800896
vt 0.625000 0.550896
vt 0.375000 0.550896
vt 0.375000 0.550896
vt 0.625000 0.300896
vt 0.375000 0.300896
vt 0.375000 0.300896
vt 0.625000 0.050896
vt 0.375000 0.199104
vt 0.375000 0.050896
vt 0.625000 0.949104
vt 0.375000 1.000000
vt 0.375000 0.949104
vt 0.625000 0.199104
vt 0.625000 0.449104
vt 0.625000 0.699104
vt 0.375000 0.625000
vt 0.324104 0.750000
vt 0.175896 0.750000
vt 0.375000 0.449104
vt 0.625000 0.449104
vt 0.611912 0.000000
vt 0.375000 0.250000
vt 0.375000 0.000000
vt 0.375000 0.468750
vt 0.611912 0.500000
vt 0.375000 0.500000
vt 0.375000 0.750000
vt 0.375000 0.969221
vt 0.611383 0.997988
vt 0.375000 1.000000
vt 0.611867 0.283108
vt 0.612824 0.935796
vt 0.612103 0.966892
vt 0.875000 0.500000
vt 0.844221 0.750000
vt 0.844221 0.500000
vt 0.750000 0.500000
vt 0.687500 0.750000
vt 0.687500 0.500000
vt 0.613076 0.375010
vt 0.612351 0.314204
vt 0.656250 0.750000
vt 0.656250 0.500000
vt 0.612834 0.434873
vt 0.613075 0.874990
vt 0.612366 0.815127
vt 0.612373 0.467437
vt 0.611878 0.783565
vt 0.813443 0.500000
vt 0.750000 0.750000
vt 0.625000 0.250000
vt 0.611383 0.252012
vt 0.625000 0.468750
vt 0.611389 0.752002
vt 0.625000 0.500000
vt 0.625000 0.750000
vt 0.625000 0.969221
vt 0.625000 0.311557
vt 0.625000 0.375000
vt 0.625000 0.812500
vt 0.625000 0.875000
vt 0.625000 0.437500
vt 0.625000 0.781250
vt 0.625000 0.938443
vt 0.625000 0.280779
vt 0.375000 0.781250
vt 0.625000 1.000000
vt 0.375000 0.280779
vt 0.813443 0.750000
vt 0.611912 0.000000
vt 0.375000 0.250000
vt 0.375000 0.000000
vt 0.375000 0.468750
vt 0.611912 0.500000
vt 0.375000 0.500000
vt 0.375000 0.750000
vt 0.375000 0.969221
vt 0.611383 0.997988
vt 0.375000 1.000000
vt 0.611867 0.283108
vt 0.612824 0.935796
vt 0.612103 0.966892
vt 0.875000 0.500000
vt 0.844221 0.750000
vt 0.844221 0.500000
vt 0.750000 0.500000
vt 0.687500 0.750000
vt 0.687500 0.500000
vt 0.613076 0.375010
vt 0.612351 0.314204
vt 0.656250 0.750000
vt 0.656250 0.500000
vt 0.612834 0.434873
vt 0.613075 0.874990
vt 0.612366 0.815127
vt 0.612373 0.467437
vt 0.611878 0.783565
vt 0.813443 0.500000
vt 0.750000 0.750000
vt 0.625000 0.250000
vt 0.611383 0.252012
vt 0.625000 0.468750
vt 0.611389 0.752002
vt 0.625000 0.500000
vt 0.625000 0.750000
vt 0.625000 0.969221
vt 0.625000 0.311557
vt 0.625000 0.375000
vt 0.625000 0.812500
vt 0.625000 0.875000
vt 0.625000 0.437500
vt 0.625000 0.781250
vt 0.625000 0.938443
vt 0.625000 0.280779
vt 0.375000 0.781250
vt 0.625000 1.000000
vt 0.375000 0.280779
vt 0.813443 0.750000
vt 0.625000 0.949104
vt 0.375000 0.699104
vt 0.625000 0.699104
vt 0.611912 0.000000
vt 0.375000 0.250000
vt 0.375000 0.000000
vt 0.375000 0.468750
vt 0.611912 0.500000
vt 0.375000 0.500000
vt 0.375000 0.750000
vt 0.375000 0.969221
vt 0.611383 0.997988
vt 0.375000 1.000000
vt 0.611867 0.283108
vt 0.612824 0.935796
vt 0.612103 0.966892
vt 0.875000 0.500000
vt 0.844221 0.750000
vt 0.844221 0.500000
vt 0.750000 0.500000
vt 0.687500 0.750000
vt 0.687500 0.500000
vt 0.613076 0.375010
vt 0.612351 0.314204
vt 0.656250 0.750000
vt 0.656250 0.500000
vt 0.612834 0.434873
vt 0.613075 0.874990
vt 0.612366 0.815127
vt 0.612373 0.467437
vt 0.611878 0.783565
vt 0.813443 0.750000
vt 0.750000 0.750000
vt 0.625000 0.250000
vt 0.611383 0.252012
vt 0.625000 0.468750
vt 0.611389 0.752002
vt 0.625000 0.500000
vt 0.625000 0.750000
vt 0.625000 0.969221
vt 0.625000 0.311557
vt 0.625000 0.375000
vt 0.625000 0.812500
vt 0.625000 0.875000
vt 0.625000 0.437500
vt 0.625000 0.781250
vt 0.625000 0.938443
vt 0.625000 0.280779
vt 0.375000 0.781250
vt 0.625000 1.000000
vt 0.375000 0.280779
vt 0.813443 0.500000
vt 0.625000 0.800896
vt 0.625000 0.550896
vt 0.625000 0.300896
vt 0.625000 1.000000
vt 0.125000 0.699104
vt 0.125000 0.550896
vt 0.175896 0.500000
vt 0.324104 0.500000
vt 0.375000 0.449104
vt 0.875000 0.750000
vt 0.625000 0.000000
vt 0.155779 0.500000
vt 0.875000 0.750000
vt 0.625000 0.000000
vt 0.155779 0.500000
vt 0.375000 0.949104
vt 0.375000 0.699104
vt 0.875000 0.750000
vt 0.625000 0.000000
vt 0.155779 0.500000
vn 0.0000 0.0000 1.0000
vn 1.0000 0.0000 0.0000
vn 0.0000 0.0000 -1.0000
vn -1.0000 0.0000 0.0000
vn -0.7809 0.0000 0.6247
vn -0.7809 0.0000 -0.6247
vn 0.7809 0.0000 -0.6247
vn 0.7809 0.0000 0.6247
vn 0.0000 -1.0000 0.0000
vn 0.5330 -0.8461 0.0000
vn -0.5330 0.8461 0.0000
vn 0.1936 0.9811 0.0000
vn 0.1966 -0.9805 0.0000
vn 0.5310 0.8474 0.0000
vn -0.1936 -0.9811 0.0000
vn -0.5310 -0.8474 0.0000
vn -0.1966 0.9805 0.0000
vn -1.0000 -0.0049 0.0000
vn 1.0000 -0.0049 0.0000
vn 0.0000 1.0000 0.0000
vn 0.0000 -0.8461 -0.5330
vn 0.0000 0.8461 0.5330
vn -0.0000 0.9811 -0.1936
vn 0.0000 -0.9805 -0.1966
vn -0.0000 0.8474 -0.5310
vn 0.0000 -0.9811 0.1936
vn 0.0000 -0.8474 0.5310
vn 0.0000 0.9805 0.1966
vn 0.0000 -0.0049 1.0000
vn 0.0000 -0.0049 -1.0000
usemtl None
s off
f 11/1/1 58/2/1 10/3/1
f 15/4/2 95/5/2 14/6/2
f 7/7/3 17/8/3 6/9/3
f 3/10/4 5/11/4 2/12/4
f 4/13/5 2/14/5 1/15/5
f 6/9/6 8/16/6 7/7/6
f 14/6/7 16/17/7 15/4/7
f 10/3/8 12/18/8 11/1/8
f 91/19/9 10/20/9 1/21/9
f 13/22/3 52/23/3 16/17/3
f 30/24/4 19/25/4 17/26/4
f 41/27/3 23/28/3 22/29/3
f 23/28/2 51/30/2 22/29/2
f 48/31/1 30/32/1 17/33/1
f 50/34/10 28/35/10 49/36/10
f 31/37/11 46/38/11 47/39/11
f 36/40/12 37/41/12 32/42/12
f 24/43/13 28/35/13 29/44/13
f 32/42/14 42/45/14 39/46/14
f 26/47/15 25/48/15 24/43/15
f 27/49/16 43/50/16 44/51/16
f 35/52/17 38/53/17 36/40/17
f 30/24/4 31/54/4 20/55/4
f 26/47/3 39/56/3 43/50/3
f 21/57/2 33/58/2 52/59/2
f 28/35/1 46/60/1 49/36/1
f 24/43/3 35/61/3 36/62/3
f 25/48/1 37/63/1 38/64/1
f 24/43/3 32/65/3 26/47/3
f 44/51/1 52/59/1 42/66/1
f 25/48/1 34/67/1 28/35/1
f 50/34/3 31/54/3 47/68/3
f 27/49/1 42/66/1 37/63/1
f 43/50/3 33/58/3 23/28/3
f 33/58/14 42/45/14 52/59/14
f 21/57/1 40/69/1 51/30/1
f 44/51/18 41/27/18 40/69/18
f 29/44/3 47/68/3 35/61/3
f 49/36/1 18/70/1 30/32/1
f 20/55/3 45/71/3 19/25/3
f 47/39/11 34/72/11 35/52/11
f 48/31/19 50/34/19 49/36/19
f 41/27/20 48/31/20 40/69/20
f 66/73/4 55/74/4 53/75/4
f 77/76/3 59/77/3 58/78/3
f 59/77/2 87/79/2 58/78/2
f 84/80/1 66/81/1 53/82/1
f 86/83/10 64/84/10 85/85/10
f 92/86/11 82/87/11 83/88/11
f 72/89/12 73/90/12 68/91/12
f 60/92/13 64/84/13 65/93/13
f 68/91/14 78/94/14 75/95/14
f 62/96/15 61/97/15 60/92/15
f 63/98/16 79/99/16 80/100/16
f 71/101/17 74/102/17 72/89/17
f 66/73/4 92/103/4 56/104/4
f 62/96/3 75/105/3 79/99/3
f 57/106/2 90/107/2 88/108/2
f 64/84/1 82/109/1 85/85/1
f 60/92/3 71/110/3 72/111/3
f 61/97/1 73/112/1 74/113/1
f 60/92/3 68/114/3 62/96/3
f 80/100/1 88/108/1 78/115/1
f 61/97/1 70/116/1 64/84/1
f 86/83/3 92/103/3 83/117/3
f 63/98/1 78/115/1 73/112/1
f 79/99/3 90/107/3 59/77/3
f 90/107/14 78/94/14 88/108/14
f 57/106/1 76/118/1 87/79/1
f 80/100/18 77/76/18 76/118/18
f 65/93/3 83/117/3 71/110/3
f 85/85/1 54/119/1 66/81/1
f 56/104/3 81/120/3 55/74/3
f 83/88/11 70/121/11 71/101/11
f 84/80/19 86/83/19 85/85/19
f 77/76/20 84/80/20 76/118/20
f 1/15/1 92/122/1 4/13/1
f 9/123/2 125/124/2 12/18/2
f 103/125/1 89/126/1 69/127/1
f 112/128/4 96/129/4 95/130/4
f 96/129/3 122/131/3 95/130/3
f 119/132/2 103/133/2 69/134/2
f 121/135/21 101/136/21 120/137/21
f 125/138/22 117/139/22 118/140/22
f 107/141/23 108/142/23 104/143/23
f 97/144/24 101/136/24 102/145/24
f 104/143/25 113/146/25 110/147/25
f 99/148/26 98/149/26 97/144/26
f 100/150/27 114/151/27 115/152/27
f 107/141/28 105/153/28 109/154/28
f 103/125/1 125/155/1 93/156/1
f 99/148/4 110/157/4 114/151/4
f 94/158/3 124/159/3 123/160/3
f 101/136/2 117/161/2 120/137/2
f 97/144/4 106/162/4 107/163/4
f 98/149/2 108/164/2 109/165/2
f 97/144/4 104/166/4 99/148/4
f 115/152/2 123/160/2 113/167/2
f 98/149/2 105/168/2 101/136/2
f 121/135/4 125/155/4 118/169/4
f 100/150/2 113/167/2 108/164/2
f 114/151/4 124/159/4 96/129/4
f 124/159/25 113/146/25 123/160/25
f 94/158/2 111/170/2 122/131/2
f 115/152/29 112/128/29 111/170/29
f 102/145/4 118/169/4 106/162/4
f 120/137/2 67/171/2 103/133/2
f 93/156/4 116/172/4 89/126/4
f 118/140/22 105/153/22 106/173/22
f 119/132/30 121/135/30 120/137/30
f 112/128/20 119/132/20 111/170/20
f 11/1/1 90/174/1 58/2/1
f 15/4/2 124/175/2 95/5/2
f 7/7/3 18/176/3 17/8/3
f 3/10/4 8/16/4 5/11/4
f 4/13/5 3/177/5 2/14/5
f 6/9/6 5/11/6 8/16/6
f 14/6/7 13/22/7 16/17/7
f 10/3/8 9/123/8 12/18/8
f 2/178/9 5/179/9 91/19/9
f 5/179/9 6/180/9 91/19/9
f 6/180/9 13/181/9 91/19/9
f 13/181/9 14/6/9 91/19/9
f 91/19/9 9/123/9 10/20/9
f 1/21/9 2/178/9 91/19/9
f 13/22/3 51/182/3 52/23/3
f 30/24/4 20/55/4 19/25/4
f 41/27/3 43/50/3 23/28/3
f 23/28/2 21/57/2 51/30/2
f 48/31/1 49/36/1 30/32/1
f 50/34/10 29/44/10 28/35/10
f 31/37/11 18/183/11 46/38/11
f 36/40/12 38/53/12 37/41/12
f 24/43/13 25/48/13 28/35/13
f 32/42/14 37/41/14 42/45/14
f 26/47/15 27/49/15 25/48/15
f 27/49/16 26/47/16 43/50/16
f 35/52/17 34/72/17 38/53/17
f 30/24/4 18/184/4 31/54/4
f 26/47/3 32/65/3 39/56/3
f 21/57/2 23/28/2 33/58/2
f 28/35/1 34/67/1 46/60/1
f 24/43/3 29/44/3 35/61/3
f 25/48/1 27/49/1 37/63/1
f 24/43/3 36/62/3 32/65/3
f 44/51/1 21/57/1 52/59/1
f 25/48/1 38/64/1 34/67/1
f 50/34/3 20/55/3 31/54/3
f 27/49/1 44/51/1 42/66/1
f 43/50/3 39/56/3 33/58/3
f 33/58/14 39/46/14 42/45/14
f 21/57/1 44/51/1 40/69/1
f 44/51/18 43/50/18 41/27/18
f 29/44/3 50/34/3 47/68/3
f 49/36/1 46/60/1 18/70/1
f 20/55/3 50/34/3 45/71/3
f 47/39/11 46/38/11 34/72/11
f 48/31/19 45/185/19 50/34/19
f 41/27/20 45/185/20 48/31/20
f 66/73/4 56/104/4 55/74/4
f 77/76/3 79/99/3 59/77/3
f 59/77/2 57/106/2 87/79/2
f 84/80/1 85/85/1 66/81/1
f 86/83/10 65/93/10 64/84/10
f 92/86/11 54/186/11 82/87/11
f 72/89/12 74/102/12 73/90/12
f 60/92/13 61/97/13 64/84/13
f 68/91/14 73/90/14 78/94/14
f 62/96/15 63/98/15 61/97/15
f 63/98/16 62/96/16 79/99/16
f 71/101/17 70/121/17 74/102/17
f 66/73/4 54/187/4 92/103/4
f 62/96/3 68/114/3 75/105/3
f 57/106/2 59/77/2 90/107/2
f 64/84/1 70/116/1 82/109/1
f 60/92/3 65/93/3 71/110/3
f 61/97/1 63/98/1 73/112/1
f 60/92/3 72/111/3 68/114/3
f 80/100/1 57/106/1 88/108/1
f 61/97/1 74/113/1 70/116/1
f 86/83/3 56/104/3 92/103/3
f 63/98/1 80/100/1 78/115/1
f 79/99/3 75/105/3 90/107/3
f 90/107/14 75/95/14 78/94/14
f 57/106/1 80/100/1 76/118/1
f 80/100/18 79/99/18 77/76/18
f 65/93/3 86/83/3 83/117/3
f 85/85/1 82/109/1 54/119/1
f 56/104/3 86/83/3 81/120/3
f 83/88/11 82/87/11 70/121/11
f 84/80/19 81/188/19 86/83/19
f 77/76/20 81/188/20 84/80/20
f 1/15/1 55/189/1 92/122/1
f 9/123/2 89/190/2 125/124/2
f 103/125/1 93/156/1 89/126/1
f 112/128/4 114/151/4 96/129/4
f 96/129/3 94/158/3 122/131/3
f 119/132/2 120/137/2 103/133/2
f 121/135/21 102/145/21 101/136/21
f 125/138/22 67/191/22 117/139/22
f 107/141/23 109/154/23 108/142/23
f 97/144/24 98/149/24 101/136/24
f 104/143/25 108/142/25 113/146/25
f 99/148/26 100/150/26 98/149/26
f 100/150/27 99/148/27 114/151/27
f 107/141/28 106/173/28 105/153/28
f 103/125/1 67/192/1 125/155/1
f 99/148/4 104/166/4 110/157/4
f 94/158/3 96/129/3 124/159/3
f 101/136/2 105/168/2 117/161/2
f 97/144/4 102/145/4 106/162/4
f 98/149/2 100/150/2 108/164/2
f 97/144/4 107/163/4 104/166/4
f 115/152/2 94/158/2 123/160/2
f 98/149/2 109/165/2 105/168/2
f 121/135/4 93/156/4 125/155/4
f 100/150/2 115/152/2 113/167/2
f 114/151/4 110/157/4 124/159/4
f 124/159/25 110/147/25 113/146/25
f 94/158/2 115/152/2 111/170/2
f 115/152/29 114/151/29 112/128/29
f 102/145/4 121/135/4 118/169/4
f 120/137/2 117/161/2 67/171/2
f 93/156/4 121/135/4 116/172/4
f 118/140/22 117/139/22 105/153/22
f 119/132/30 116/193/30 121/135/30
f 112/128/20 116/193/20 119/132/20
