# Blender v2.80 (sub 75) OBJ File: 'Dinning Room.blend'
# www.blender.org
mtllib Dinning Room.mtl
o Dinning_Room.001_Cube.000
v -4.742628 -2.000000 10.000000
v -8.000000 2.000000 5.928285
v -4.742628 2.000000 10.000000
v -8.000000 -2.000000 -5.928285
v -4.742628 2.000000 -10.000000
v -8.000000 2.000000 -5.928285
v 8.000000 -2.000000 5.928285
v 4.742628 -2.000000 10.000000
v 4.742628 2.000000 10.000000
v 8.000000 2.000000 5.928285
v 4.742628 -2.000000 -10.000000
v 8.000000 -2.000000 -5.928285
v 8.000000 2.000000 -5.928285
v 4.742628 2.000000 -10.000000
v 0.997652 2.000000 -10.000000
v 0.997652 -2.000000 9.999999
v -1.002348 2.000000 10.000000
v 7.999999 -2.000000 -0.501433
v -7.529312 -2.000000 5.684578
v -4.547663 -2.000000 9.411640
v -4.547663 2.000000 9.411640
v -7.529312 2.000000 5.684578
v -7.529312 2.000000 -5.684578
v -4.547663 2.000000 -9.411640
v -4.547663 -2.000000 -9.411640
v -7.529312 -2.000000 -5.684578
v 4.547663 2.000000 -9.411640
v 7.529312 2.000000 -5.684578
v 7.529312 -2.000000 -5.684578
v 4.547663 -2.000000 -9.411640
v 7.529312 2.000000 5.684578
v 4.547663 2.000000 9.411640
v 4.547663 -2.000000 9.411640
v 7.529312 -2.000000 5.684578
v -1.002348 2.000000 -9.363165
v -1.002348 -2.000000 -9.363164
v 7.490531 -2.000000 1.498567
v 0.997652 -2.000000 -9.363164
v 0.997652 2.000000 -9.363164
v 7.490531 2.000000 1.498567
v 0.997652 2.000000 9.363164
v -1.002348 2.000000 9.363164
v 0.997652 -2.000000 9.363163
v -1.002348 -2.000000 9.363163
v 7.490531 2.000000 -0.501433
v 7.490530 -2.000000 -0.501433
v -8.000000 -2.000000 5.928285
v -4.742628 -2.000000 -10.000000
v -1.002348 -2.000000 -10.000000
v -1.002348 2.000000 -10.000001
v -1.002348 -2.000000 -11.000000
v -1.002349 1.790588 -11.000000
v 0.997653 1.790588 -10.000001
v 0.997652 -2.000000 -11.000000
v 0.997653 1.790588 -11.000000
v -0.002265 2.061248 -11.000000
v -0.002265 2.061248 -10.000001
v 0.476637 1.966729 -11.000000
v 0.476637 1.966729 -10.000001
v -0.488719 1.963687 -10.000001
v -0.488719 1.963687 -11.000000
v -1.002349 1.790588 -10.000001
v -1.002348 2.000000 -11.000000
v 0.497652 2.313313 -11.000000
v 0.997652 2.000000 -11.000000
v -0.509892 2.310205 -10.000001
v -0.509892 2.310205 -11.000000
v -0.002348 2.411996 -11.000000
v 0.497652 2.313313 -10.000001
v -0.002348 2.411996 -10.000001
v 0.747652 2.156657 -11.000000
v 0.747652 -2.000000 -10.000001
v 0.747652 -2.000000 -11.000000
v 0.747652 2.156657 -10.000001
v 0.729136 1.808507 -11.000000
v 0.729136 1.808507 -10.000001
v -0.756120 -2.000000 -11.000000
v -0.756120 2.155103 -10.000001
v -0.756120 2.155103 -11.000000
v -0.756120 -2.000000 -10.000001
v -0.737484 1.806986 -10.000001
v -0.737484 1.806986 -11.000000
v 0.997652 -2.000000 -10.000000
v -1.002348 -2.000000 10.999999
v -1.002348 2.000000 10.999998
v -1.002348 -2.000000 9.999999
v -1.002349 1.790588 9.999999
v 0.997653 1.790588 10.999998
v 0.997653 1.790588 9.999999
v -0.002265 2.061248 9.999999
v -0.002265 2.061248 10.999998
v 0.476637 1.966729 9.999999
v 0.476637 1.966729 10.999998
v -0.488719 1.963687 10.999998
v -0.488719 1.963687 9.999999
v -1.002349 1.790588 10.999998
v 8.999998 2.000000 1.498567
v 0.497652 2.313313 9.999999
v 9.000000 -2.000000 1.498567
v -0.509892 2.310205 10.999998
v -0.509892 2.310205 9.999999
v -0.002348 2.411996 9.999999
v 0.497652 2.313313 10.999998
v -0.002348 2.411996 10.999998
v 0.747652 2.156657 9.999999
v 0.747652 -2.000000 10.999998
v 0.747652 -2.000000 9.999999
v 0.747652 2.156657 10.999998
v 0.729136 1.808507 9.999999
v 0.729136 1.808507 10.999998
v -0.756120 -2.000000 9.999999
v -0.756120 2.155103 10.999998
v -0.756120 2.155103 9.999999
v -0.756120 -2.000000 10.999998
v -0.737484 1.806986 10.999998
v -0.737484 1.806986 9.999999
v 0.997652 -2.000000 10.999999
v 0.997652 2.000000 10.999999
v 8.000000 -2.000000 1.498567
v 0.997652 2.000000 10.000000
v 8.000000 -2.000000 0.000000
v 7.999999 1.790588 1.498568
v 8.999998 1.790588 -0.501434
v 7.999999 1.790588 -0.501434
v 7.999999 2.061248 0.498484
v 8.999998 2.061248 0.498484
v 7.999999 1.966729 0.019582
v 8.999998 1.966729 0.019582
v 8.999998 1.963686 0.984938
v 7.999999 1.963686 0.984938
v 8.999998 1.790588 1.498568
v 7.999999 2.313313 -0.001433
v 8.999998 2.310205 1.006111
v 7.999999 2.310205 1.006111
v 7.999999 2.411996 0.498567
v 8.999998 2.313313 -0.001433
v 8.999998 2.411996 0.498567
v 7.999999 2.156657 -0.251433
v 8.999998 -2.000000 -0.251433
v 7.999999 -2.000000 -0.251433
v 8.999998 2.156657 -0.251433
v 7.999999 1.808507 -0.232916
v 8.999998 1.808507 -0.232916
v 7.999999 -2.000000 1.252339
v 8.999998 2.155103 1.252339
v 7.999999 2.155103 1.252339
v 8.999998 -2.000000 1.252339
v 8.999998 1.806986 1.233703
v 7.999999 1.806986 1.233703
v 9.000000 -2.000000 -0.501433
v 9.000000 2.000000 -0.501433
v 8.000000 2.000000 -0.501433
v 8.000000 2.000000 1.498567
vt 0.159351 0.932266
vt 0.106275 0.932266
vt 0.106275 0.932266
vt 0.159351 0.879190
vt 0.106275 0.879190
vt 0.106275 0.879190
vt 0.159351 0.826114
vt 0.106275 0.826114
vt 0.106275 0.826114
vt 0.159351 0.773038
vt 0.106275 0.804503
vt 0.106275 0.773038
vt 0.159351 0.963731
vt 0.106275 0.974537
vt 0.106275 0.963731
vt 0.159351 0.804503
vt 0.159351 0.857579
vt 0.159351 0.910655
vt 0.106275 0.857579
vt 0.159351 0.857579
vt 0.159351 0.963731
vt 0.106275 0.910655
vt 0.159351 0.910655
vt 0.568294 0.916299
vt 0.604325 0.916299
vt 0.568294 0.916299
vt 0.568294 0.880268
vt 0.604325 0.880268
vt 0.568294 0.880268
vt 0.568294 0.844237
vt 0.604325 0.844237
vt 0.568294 0.844237
vt 0.568294 0.829566
vt 0.604325 0.808205
vt 0.568294 0.808205
vt 0.568294 0.944995
vt 0.604325 0.937659
vt 0.568294 0.937659
vt 0.604325 0.829566
vt 0.604325 0.865597
vt 0.604325 0.901628
vt 0.604325 0.865597
vt 0.568294 0.865597
vt 0.604325 0.937659
vt 0.604325 0.901628
vt 0.568294 0.901628
vt 0.106275 0.804503
vt 0.106275 0.932266
vt 0.604325 0.844237
vt 0.568294 0.844237
vt 0.604325 0.844237
vt 0.159351 0.826114
vt 0.072231 0.912856
vt 0.108262 0.912856
vt 0.072231 0.912856
vt 0.159351 0.773038
vt 0.106275 0.963731
vt 0.106275 0.963731
vt 0.106275 0.910655
vt 0.106275 0.910655
vt 0.604325 0.880268
vt 0.568294 0.880268
vt 0.604325 0.880268
vt 0.106275 0.826114
vt 0.106275 0.879190
vt 0.568294 0.865597
vt 0.604325 0.865597
vt 0.568294 0.865597
vt 0.159351 0.879190
vt 0.159351 0.879190
vt 0.159351 0.857579
vt 0.106275 0.857579
vt 0.106275 0.857579
vt 0.159351 0.826114
vt 0.159351 0.910655
vt 0.159351 0.932266
vt 0.159351 0.932266
vt 0.568294 0.901628
vt 0.604325 0.901628
vt 0.568294 0.901628
vt 0.159351 0.963731
vt 0.159351 0.974537
vt 0.159351 0.974537
vt 0.604325 0.916299
vt 0.568294 0.916299
vt 0.604325 0.916299
vt 0.424308 0.797376
vt 0.376271 0.797376
vt 0.440805 0.837891
vt 0.369999 0.825360
vt 0.350783 0.845638
vt 0.350783 0.825360
vt 0.350783 0.863382
vt 0.369999 0.865916
vt 0.350783 0.865916
vt 0.350783 0.886195
vt 0.350783 0.903977
vt 0.369956 0.906310
vt 0.350783 0.906473
vt 0.369996 0.848324
vt 0.370073 0.901266
vt 0.370015 0.903788
vt 0.414123 0.793878
vt 0.398326 0.922190
vt 0.398326 0.793878
vt 0.381200 0.865916
vt 0.376131 0.886195
vt 0.376131 0.865916
vt 0.370094 0.855778
vt 0.370035 0.850846
vt 0.373596 0.886195
vt 0.373596 0.865916
vt 0.370074 0.860634
vt 0.370094 0.896333
vt 0.370036 0.891478
vt 0.370037 0.863275
vt 0.369997 0.888917
vt 0.382529 0.793878
vt 0.349967 0.922190
vt 0.349967 0.793878
vt 0.371061 0.845638
vt 0.369956 0.845801
vt 0.371061 0.863382
vt 0.369957 0.886357
vt 0.371061 0.865916
vt 0.371061 0.886195
vt 0.371061 0.903977
vt 0.371061 0.850631
vt 0.371061 0.855777
vt 0.371061 0.891264
vt 0.371061 0.896334
vt 0.371061 0.860847
vt 0.371061 0.888730
vt 0.371061 0.901480
vt 0.371061 0.848135
vt 0.350783 0.888730
vt 0.371061 0.906473
vt 0.350783 0.848135
vt 0.382529 0.922190
vt 0.440805 0.787247
vt 0.440805 0.949460
vt 0.440805 0.888534
vt 0.379192 0.809565
vt 0.345495 0.845123
vt 0.345495 0.809565
vt 0.345495 0.876236
vt 0.379192 0.880681
vt 0.345495 0.880681
vt 0.345495 0.916240
vt 0.345495 0.947420
vt 0.379117 0.951512
vt 0.345495 0.951798
vt 0.379186 0.849832
vt 0.379322 0.942666
vt 0.379219 0.947089
vt 0.416612 0.880681
vt 0.412234 0.916240
vt 0.412234 0.880681
vt 0.398833 0.880681
vt 0.389943 0.916240
vt 0.389943 0.880681
vt 0.379358 0.862904
vt 0.379254 0.854255
vt 0.385498 0.916240
vt 0.385498 0.880681
vt 0.379323 0.871418
vt 0.379357 0.934017
vt 0.379257 0.925503
vt 0.379258 0.876050
vt 0.379187 0.921013
vt 0.407856 0.880681
vt 0.398833 0.916240
vt 0.381054 0.845123
vt 0.379117 0.845409
vt 0.381054 0.876236
vt 0.379118 0.916524
vt 0.381054 0.880681
vt 0.381054 0.916240
vt 0.381054 0.947420
vt 0.381054 0.853878
vt 0.381054 0.862902
vt 0.381054 0.925129
vt 0.381054 0.934019
vt 0.381054 0.871792
vt 0.381054 0.920684
vt 0.381054 0.943042
vt 0.381054 0.849501
vt 0.345495 0.920684
vt 0.381054 0.951798
vt 0.345495 0.849501
vt 0.407856 0.916240
vt 0.440805 0.787247
vt 0.440805 0.949460
vt 0.440805 0.888534
vt 0.378377 0.794102
vt 0.346681 0.827549
vt 0.346681 0.794102
vt 0.346681 0.856814
vt 0.378377 0.860995
vt 0.346681 0.860995
vt 0.346681 0.894441
vt 0.346681 0.923770
vt 0.378306 0.927619
vt 0.346681 0.927888
vt 0.378371 0.831978
vt 0.378499 0.919298
vt 0.378402 0.923458
vt 0.413574 0.860995
vt 0.409456 0.894441
vt 0.409456 0.860995
vt 0.396851 0.860995
vt 0.388489 0.894441
vt 0.388489 0.860995
vt 0.378532 0.844273
vt 0.378435 0.836138
vt 0.384308 0.894441
vt 0.384308 0.860995
vt 0.378500 0.852282
vt 0.378532 0.911163
vt 0.378437 0.903154
vt 0.378438 0.856638
vt 0.378372 0.898932
vt 0.405339 0.894441
vt 0.396851 0.894441
vt 0.380128 0.827549
vt 0.378306 0.827818
vt 0.380128 0.856814
vt 0.378307 0.894709
vt 0.380128 0.860995
vt 0.380128 0.894441
vt 0.380128 0.923770
vt 0.380128 0.835784
vt 0.380128 0.844272
vt 0.380128 0.902803
vt 0.380128 0.911165
vt 0.380128 0.852633
vt 0.380128 0.898622
vt 0.380128 0.919652
vt 0.380128 0.831666
vt 0.346681 0.898622
vt 0.380128 0.927888
vt 0.346681 0.831666
vt 0.405339 0.860995
vt 0.440805 0.787247
vt 0.440805 0.949460
vt 0.440805 0.888534
vt 0.604325 0.944995
vt 0.568294 0.937659
vt 0.106275 0.773038
vt 0.106275 0.932266
vt 0.159351 0.804503
vt 0.108262 0.912856
vt 0.106275 0.963731
vt 0.106275 0.910655
vt 0.106275 0.826114
vt 0.106275 0.879190
vt 0.159351 0.879190
vt 0.159351 0.857579
vt 0.106275 0.857579
vt 0.159351 0.826114
vt 0.159351 0.910655
vt 0.159351 0.932266
vt 0.106275 0.974537
vt 0.159351 0.963731
vt 0.359775 0.813872
vt 0.359775 0.861909
vt 0.376271 0.878406
vt 0.424308 0.878406
vt 0.440805 0.861909
vt 0.440805 0.813872
vt 0.414123 0.922190
vt 0.381200 0.886195
vt 0.371061 0.825360
vt 0.333001 0.865916
vt 0.369751 0.797376
vt 0.416612 0.916240
vt 0.381054 0.809565
vt 0.314315 0.880681
vt 0.369751 0.797376
vt 0.413574 0.894441
vt 0.380128 0.794102
vt 0.317353 0.860995
vt 0.369751 0.797376
vn 0.0000 0.0000 1.0000
vn 1.0000 0.0000 0.0000
vn 0.0000 0.0000 -1.0000
vn -1.0000 0.0000 0.0000
vn -0.7809 0.0000 0.6247
vn -0.7809 0.0000 -0.6247
vn 0.7809 0.0000 -0.6247
vn 0.7809 0.0000 0.6247
vn 0.0137 0.0000 -0.9999
vn -1.0000 0.0000 -0.0075
vn -0.0137 0.0000 0.9999
vn 0.0137 0.0000 0.9999
vn -0.0137 0.0000 -0.9999
vn -1.0000 0.0000 0.0093
vn 0.0000 -1.0000 0.0000
vn 0.0000 1.0000 0.0000
vn 0.5330 -0.8461 0.0000
vn -0.5330 0.8461 0.0000
vn 0.1936 0.9811 0.0000
vn 0.1966 -0.9805 0.0000
vn 0.5310 0.8474 0.0000
vn -0.1936 -0.9811 0.0000
vn -0.5310 -0.8474 0.0000
vn -0.1966 0.9805 0.0000
vn -1.0000 -0.0049 0.0000
vn 1.0000 -0.0049 0.0000
vn 0.0000 -0.8461 -0.5330
vn 0.0000 0.8461 0.5330
vn -0.0000 0.9811 -0.1936
vn 0.0000 -0.9805 -0.1966
vn -0.0000 0.8474 -0.5310
vn 0.0000 -0.9811 0.1936
vn 0.0000 -0.8474 0.5310
vn 0.0000 0.9805 0.1966
vn 0.0000 -0.0049 1.0000
vn 0.0000 -0.0049 -1.0000
usemtl Material
s off
f 9/1/1 16/2/1 8/3/1
f 13/4/2 18/5/2 12/6/2
f 5/7/3 49/8/3 48/9/3
f 2/10/4 4/11/4 47/12/4
f 3/13/5 47/14/5 1/15/5
f 48/9/6 6/16/6 5/7/6
f 12/6/7 14/17/7 13/4/7
f 8/3/8 10/18/8 9/1/8
f 11/19/3 15/20/3 14/17/3
f 1/15/1 17/21/1 3/13/1
f 7/22/2 153/23/2 10/18/2
f 43/24/9 32/25/9 33/26/9
f 46/27/10 28/28/10 29/29/10
f 36/30/11 24/31/11 25/32/11
f 26/33/2 22/34/2 19/35/2
f 19/36/7 21/37/7 20/38/7
f 23/39/8 25/32/8 24/31/8
f 27/40/5 29/29/5 28/28/5
f 31/41/6 33/26/6 32/25/6
f 39/42/12 30/43/12 27/40/12
f 42/44/13 20/38/13 21/37/13
f 40/45/14 34/46/14 31/41/14
f 26/47/15 47/12/15 4/11/15
f 16/2/15 33/48/15 8/3/15
f 35/49/2 49/50/2 50/51/2
f 6/16/16 24/52/16 5/7/16
f 44/53/2 17/54/2 86/55/2
f 22/56/16 6/16/16 2/10/16
f 20/57/15 86/58/15 1/15/15
f 34/59/15 119/60/15 7/22/15
f 48/9/15 26/47/15 4/11/15
f 45/61/1 18/62/1 152/63/1
f 49/8/15 25/64/15 48/9/15
f 18/5/15 29/65/15 12/6/15
f 38/66/4 15/67/4 83/68/4
f 14/17/16 28/69/16 13/4/16
f 28/69/16 152/70/16 13/4/16
f 15/20/16 27/71/16 14/17/16
f 30/72/15 83/73/15 11/19/15
f 12/6/15 30/72/15 11/19/15
f 24/52/16 50/74/16 5/7/16
f 153/23/16 31/75/16 10/18/16
f 10/18/16 32/76/16 9/1/16
f 32/76/16 120/77/16 9/1/16
f 47/14/15 20/57/15 1/15/15
f 37/78/3 153/79/3 119/80/3
f 8/3/15 34/59/15 7/22/15
f 17/21/16 21/81/16 3/13/16
f 3/13/16 22/82/16 2/83/16
f 41/84/4 16/85/4 120/86/4
f 11/87/16 48/88/16 121/89/16
f 62/90/4 51/91/4 49/92/4
f 73/93/3 55/94/3 54/95/3
f 55/94/2 83/96/2 54/95/2
f 80/97/1 62/98/1 49/99/1
f 82/100/17 60/101/17 81/102/17
f 63/103/18 78/104/18 79/105/18
f 68/106/19 69/107/19 64/108/19
f 56/109/20 60/101/20 61/110/20
f 64/108/21 74/111/21 71/112/21
f 58/113/22 57/114/22 56/109/22
f 59/115/23 75/116/23 76/117/23
f 67/118/24 70/119/24 68/120/24
f 62/90/4 63/121/4 52/122/4
f 58/113/3 71/123/3 75/116/3
f 53/124/2 65/125/2 15/126/2
f 60/101/1 78/127/1 81/102/1
f 56/109/3 67/128/3 68/129/3
f 57/114/1 69/130/1 70/131/1
f 56/109/3 64/132/3 58/113/3
f 76/117/1 15/126/1 74/133/1
f 57/114/1 66/134/1 60/101/1
f 82/100/3 63/121/3 79/135/3
f 59/115/1 74/133/1 69/130/1
f 75/116/3 65/125/3 55/94/3
f 65/125/21 74/111/21 15/126/21
f 53/124/1 72/136/1 83/96/1
f 76/117/25 73/93/25 72/136/25
f 61/110/3 79/135/3 67/128/3
f 81/102/1 50/137/1 62/98/1
f 52/122/3 77/138/3 51/91/3
f 79/105/18 66/139/18 67/118/18
f 80/97/26 82/100/26 81/102/26
f 73/140/16 80/141/16 72/142/16
f 96/143/4 86/144/4 84/145/4
f 107/146/3 89/147/3 16/148/3
f 89/147/2 117/149/2 16/148/2
f 114/150/1 96/151/1 84/152/1
f 116/153/17 94/154/17 115/155/17
f 17/156/18 112/157/18 113/158/18
f 102/159/19 103/160/19 98/161/19
f 90/162/20 94/154/20 95/163/20
f 98/161/21 108/164/21 105/165/21
f 92/166/22 91/167/22 90/162/22
f 93/168/23 109/169/23 110/170/23
f 101/171/24 104/172/24 102/159/24
f 96/143/4 17/173/4 87/174/4
f 92/166/3 105/175/3 109/169/3
f 88/176/2 120/177/2 118/178/2
f 94/154/1 112/179/1 115/155/1
f 90/162/3 101/180/3 102/181/3
f 91/167/1 103/182/1 104/183/1
f 90/162/3 98/184/3 92/166/3
f 110/170/1 118/178/1 108/185/1
f 91/167/1 100/186/1 94/154/1
f 116/153/3 17/173/3 113/187/3
f 93/168/1 108/185/1 103/182/1
f 109/169/3 120/177/3 89/147/3
f 120/177/21 108/164/21 118/178/21
f 88/176/1 106/188/1 117/149/1
f 110/170/25 107/146/25 106/188/25
f 95/163/3 113/187/3 101/180/3
f 115/155/1 85/189/1 96/151/1
f 87/174/3 111/190/3 86/144/3
f 113/158/18 100/191/18 101/171/18
f 114/150/26 116/153/26 115/155/26
f 107/192/16 114/193/16 106/194/16
f 131/195/1 119/196/1 99/197/1
f 140/198/4 124/199/4 18/200/4
f 124/199/3 150/201/3 18/200/3
f 147/202/2 131/203/2 99/204/2
f 149/205/27 129/206/27 148/207/27
f 153/208/28 145/209/28 146/210/28
f 135/211/29 136/212/29 132/213/29
f 125/214/30 129/206/30 130/215/30
f 132/213/31 141/216/31 138/217/31
f 127/218/32 126/219/32 125/214/32
f 128/220/33 142/221/33 143/222/33
f 135/211/34 133/223/34 137/224/34
f 131/195/1 153/225/1 122/226/1
f 127/218/4 138/227/4 142/221/4
f 123/228/3 152/229/3 151/230/3
f 129/206/2 145/231/2 148/207/2
f 125/214/4 134/232/4 135/233/4
f 126/219/2 136/234/2 137/235/2
f 125/214/4 132/236/4 127/218/4
f 143/222/2 151/230/2 141/237/2
f 126/219/2 133/238/2 129/206/2
f 149/205/4 153/225/4 146/239/4
f 128/220/2 141/237/2 136/234/2
f 142/221/4 152/229/4 124/199/4
f 152/229/31 141/216/31 151/230/31
f 123/228/2 139/240/2 150/201/2
f 143/222/35 140/198/35 139/240/35
f 130/215/4 146/239/4 134/232/4
f 148/207/2 97/241/2 131/203/2
f 122/226/4 144/242/4 119/196/4
f 146/210/28 133/223/28 134/243/28
f 147/202/36 149/205/36 148/207/36
f 140/244/16 147/245/16 139/246/16
f 9/1/1 120/77/1 16/2/1
f 13/4/2 152/70/2 18/5/2
f 5/7/3 50/74/3 49/8/3
f 2/10/4 6/16/4 4/11/4
f 3/13/5 2/83/5 47/14/5
f 48/9/6 4/11/6 6/16/6
f 12/6/7 11/19/7 14/17/7
f 8/3/8 7/22/8 10/18/8
f 11/19/3 83/73/3 15/20/3
f 1/15/1 86/58/1 17/21/1
f 7/22/2 119/60/2 153/23/2
f 43/24/9 41/84/9 32/25/9
f 46/27/10 45/61/10 28/28/10
f 36/30/11 35/49/11 24/31/11
f 26/33/2 23/39/2 22/34/2
f 19/36/7 22/247/7 21/37/7
f 23/39/8 26/33/8 25/32/8
f 27/40/5 30/43/5 29/29/5
f 31/41/6 34/46/6 33/26/6
f 39/42/12 38/66/12 30/43/12
f 42/44/13 44/248/13 20/38/13
f 40/45/14 37/78/14 34/46/14
f 26/47/15 19/249/15 47/12/15
f 16/2/15 43/250/15 33/48/15
f 35/49/2 36/30/2 49/50/2
f 6/16/16 23/251/16 24/52/16
f 44/53/2 42/252/2 17/54/2
f 22/56/16 23/251/16 6/16/16
f 20/57/15 44/253/15 86/58/15
f 34/59/15 37/254/15 119/60/15
f 48/9/15 25/64/15 26/47/15
f 45/61/1 46/27/1 18/62/1
f 49/8/15 36/255/15 25/64/15
f 18/5/15 46/256/15 29/65/15
f 38/66/4 39/42/4 15/67/4
f 14/17/16 27/71/16 28/69/16
f 28/69/16 45/257/16 152/70/16
f 15/20/16 39/258/16 27/71/16
f 30/72/15 38/259/15 83/73/15
f 12/6/15 29/65/15 30/72/15
f 24/52/16 35/260/16 50/74/16
f 153/23/16 40/261/16 31/75/16
f 10/18/16 31/75/16 32/76/16
f 32/76/16 41/262/16 120/77/16
f 47/14/15 19/263/15 20/57/15
f 37/78/3 40/45/3 153/79/3
f 8/3/15 33/48/15 34/59/15
f 17/21/16 42/264/16 21/81/16
f 3/13/16 21/81/16 22/82/16
f 41/84/4 43/24/4 16/85/4
f 48/88/16 4/265/16 121/89/16
f 4/265/16 47/266/16 121/89/16
f 47/266/16 1/267/16 121/89/16
f 1/267/16 8/268/16 121/89/16
f 8/268/16 7/269/16 121/89/16
f 121/89/16 12/270/16 11/87/16
f 62/90/4 52/122/4 51/91/4
f 73/93/3 75/116/3 55/94/3
f 55/94/2 53/124/2 83/96/2
f 80/97/1 81/102/1 62/98/1
f 82/100/17 61/110/17 60/101/17
f 63/103/18 50/271/18 78/104/18
f 68/106/19 70/272/19 69/107/19
f 56/109/20 57/114/20 60/101/20
f 64/108/21 69/107/21 74/111/21
f 58/113/22 59/115/22 57/114/22
f 59/115/23 58/113/23 75/116/23
f 67/118/24 66/139/24 70/119/24
f 62/90/4 50/273/4 63/121/4
f 58/113/3 64/132/3 71/123/3
f 53/124/2 55/94/2 65/125/2
f 60/101/1 66/134/1 78/127/1
f 56/109/3 61/110/3 67/128/3
f 57/114/1 59/115/1 69/130/1
f 56/109/3 68/129/3 64/132/3
f 76/117/1 53/124/1 15/126/1
f 57/114/1 70/131/1 66/134/1
f 82/100/3 52/122/3 63/121/3
f 59/115/1 76/117/1 74/133/1
f 75/116/3 71/123/3 65/125/3
f 65/125/21 71/112/21 74/111/21
f 53/124/1 76/117/1 72/136/1
f 76/117/25 75/116/25 73/93/25
f 61/110/3 82/100/3 79/135/3
f 81/102/1 78/127/1 50/137/1
f 52/122/3 82/100/3 77/138/3
f 79/105/18 78/104/18 66/139/18
f 80/97/26 77/274/26 82/100/26
f 73/140/16 77/275/16 80/141/16
f 96/143/4 87/174/4 86/144/4
f 107/146/3 109/169/3 89/147/3
f 89/147/2 88/176/2 117/149/2
f 114/150/1 115/155/1 96/151/1
f 116/153/17 95/163/17 94/154/17
f 17/156/18 85/276/18 112/157/18
f 102/159/19 104/172/19 103/160/19
f 90/162/20 91/167/20 94/154/20
f 98/161/21 103/160/21 108/164/21
f 92/166/22 93/168/22 91/167/22
f 93/168/23 92/166/23 109/169/23
f 101/171/24 100/191/24 104/172/24
f 96/143/4 85/277/4 17/173/4
f 92/166/3 98/184/3 105/175/3
f 88/176/2 89/147/2 120/177/2
f 94/154/1 100/186/1 112/179/1
f 90/162/3 95/163/3 101/180/3
f 91/167/1 93/168/1 103/182/1
f 90/162/3 102/181/3 98/184/3
f 110/170/1 88/176/1 118/178/1
f 91/167/1 104/183/1 100/186/1
f 116/153/3 87/174/3 17/173/3
f 93/168/1 110/170/1 108/185/1
f 109/169/3 105/175/3 120/177/3
f 120/177/21 105/165/21 108/164/21
f 88/176/1 110/170/1 106/188/1
f 110/170/25 109/169/25 107/146/25
f 95/163/3 116/153/3 113/187/3
f 115/155/1 112/179/1 85/189/1
f 87/174/3 116/153/3 111/190/3
f 113/158/18 112/157/18 100/191/18
f 114/150/26 111/278/26 116/153/26
f 107/192/16 111/279/16 114/193/16
f 131/195/1 122/226/1 119/196/1
f 140/198/4 142/221/4 124/199/4
f 124/199/3 123/228/3 150/201/3
f 147/202/2 148/207/2 131/203/2
f 149/205/27 130/215/27 129/206/27
f 153/208/28 97/280/28 145/209/28
f 135/211/29 137/224/29 136/212/29
f 125/214/30 126/219/30 129/206/30
f 132/213/31 136/212/31 141/216/31
f 127/218/32 128/220/32 126/219/32
f 128/220/33 127/218/33 142/221/33
f 135/211/34 134/243/34 133/223/34
f 131/195/1 97/281/1 153/225/1
f 127/218/4 132/236/4 138/227/4
f 123/228/3 124/199/3 152/229/3
f 129/206/2 133/238/2 145/231/2
f 125/214/4 130/215/4 134/232/4
f 126/219/2 128/220/2 136/234/2
f 125/214/4 135/233/4 132/236/4
f 143/222/2 123/228/2 151/230/2
f 126/219/2 137/235/2 133/238/2
f 149/205/4 122/226/4 153/225/4
f 128/220/2 143/222/2 141/237/2
f 142/221/4 138/227/4 152/229/4
f 152/229/31 138/217/31 141/216/31
f 123/228/2 143/222/2 139/240/2
f 143/222/35 142/221/35 140/198/35
f 130/215/4 149/205/4 146/239/4
f 148/207/2 145/231/2 97/241/2
f 122/226/4 149/205/4 144/242/4
f 146/210/28 145/209/28 133/223/28
f 147/202/36 144/282/36 149/205/36
f 140/244/16 144/283/16 147/245/16
