# Blender v2.80 (sub 75) OBJ File: 'Front Door.blend'
# www.blender.org
mtllib Front Door.mtl
o Front_Door.001_Cube.001
v -4.000000 2.000000 3.000000
v -4.000000 2.000000 -3.000000
v 4.000000 2.000000 3.000000
v 4.000000 -2.000000 -3.000000
v 4.000000 2.000000 -3.000000
v -1.000000 2.000000 3.000000
v 1.000000 2.000000 3.000000
v -1.000000 -2.000000 3.000000
v -4.000000 -2.000000 -1.015144
v 4.000000 -2.000000 0.994862
v 4.000000 -2.000000 -1.005138
v 4.000000 2.000000 -1.005138
v -4.000000 2.000000 -1.015144
v -4.000000 -2.000000 0.984856
v -3.916285 -2.000000 2.937214
v -3.916285 2.000000 2.937214
v -3.916285 -2.000000 -2.937214
v -3.881609 -2.000000 -1.015144
v -3.916285 2.000000 -2.937214
v 3.916285 -2.000000 -2.937214
v 3.916285 2.000000 -2.937214
v 3.916285 2.000000 2.937214
v 3.916285 -2.000000 2.937214
v -1.000000 -2.000000 2.911207
v -1.000000 2.000000 2.911207
v 1.000000 2.000000 2.911207
v 1.000000 -2.000000 2.911207
v 3.881609 -2.000000 0.994862
v -3.881609 -2.000000 0.984856
v -3.881609 2.000000 -1.015144
v 3.881609 2.000000 0.994862
v 3.881609 2.000000 -1.005138
v 3.881609 -2.000000 -1.005138
v -3.881609 2.000000 0.984856
v -4.000000 -2.000000 3.000000
v -4.000000 -2.000000 -3.000000
v 4.000000 -2.000000 3.000000
v -1.000000 -2.000000 4.000000
v -1.000000 2.000000 4.000000
v -1.000000 1.790588 3.000000
v 1.000000 -2.000000 4.000000
v 0.983981 1.790588 4.000000
v 1.000000 -2.000000 3.000000
v 1.000000 1.790588 3.000000
v 0.000083 2.061248 3.000000
v 0.000083 2.061248 4.000000
v 0.478985 1.966729 3.000000
v 0.478985 1.966729 4.000000
v -0.486371 1.963687 4.000000
v -0.486371 1.963687 3.000000
v -0.983901 1.790588 4.000000
v 0.500000 2.313313 3.000000
v 1.000000 2.000000 4.000000
v -0.507544 2.310205 4.000000
v -0.507544 2.310205 3.000000
v 0.000000 2.411996 3.000000
v 0.500000 2.313313 4.000000
v 0.000000 2.411996 4.000000
v 0.750000 2.156657 3.000000
v 0.750000 -2.000000 4.000000
v 0.750000 -2.000000 3.000000
v 0.750000 2.156657 4.000000
v 0.731483 1.808507 3.000000
v 0.731483 1.808507 4.000000
v -0.753772 -2.000000 3.000000
v -0.753772 2.155103 4.000000
v -0.753772 2.155103 3.000000
v -0.753772 -2.000000 4.000000
v -0.735136 1.806986 4.000000
v -0.735136 1.806986 3.000000
v -4.000000 -2.000000 0.000000
v 4.000000 -2.000000 0.000000
v 4.999999 -2.000000 0.994862
v 4.999999 2.000000 0.994862
v 4.000000 1.790588 0.994862
v 4.999999 -2.000000 -1.005138
v 4.999999 1.790588 -1.005138
v 4.000000 1.790588 -1.005138
v 4.000000 2.061248 -0.005221
v 4.999999 2.061248 -0.005221
v 4.000000 1.966729 -0.484123
v 4.999999 1.966729 -0.484123
v 4.999999 1.963686 0.481233
v 4.000000 1.963686 0.481233
v 4.999999 1.790588 0.994862
v 4.000000 2.000000 0.994862
v 4.000000 2.313313 -0.505138
v 4.999999 2.000000 -1.005138
v 4.999999 2.310205 0.502406
v 4.000000 2.310205 0.502406
v 4.000000 2.411996 -0.005138
v 4.999999 2.313313 -0.505138
v 4.999999 2.411996 -0.005138
v 4.000000 2.156657 -0.755138
v 4.999999 -2.000000 -0.755138
v 4.000000 -2.000000 -0.755138
v 4.999999 2.156657 -0.755138
v 4.000000 1.808507 -0.736621
v 4.999999 1.808507 -0.736621
v 4.000000 -2.000000 0.748634
v 4.999999 2.155103 0.748634
v 4.000000 2.155103 0.748634
v 4.999999 -2.000000 0.748634
v 4.999999 1.806986 0.729998
v 4.000000 1.806986 0.729998
v -4.000000 2.000000 0.984856
v -5.000000 1.790588 1.000955
v -4.000000 1.790588 -1.015144
v -5.000000 -2.000000 -1.015144
v -5.000000 1.790588 -1.031163
v -5.000000 2.061248 -0.015227
v -4.000000 2.061248 -0.015227
v -5.000000 1.966729 -0.494130
v -4.000000 1.966729 -0.494130
v -4.000000 1.963686 0.471226
v -5.000000 1.963686 0.471226
v -4.000000 1.790588 0.984856
v -5.000000 2.000000 0.984856
v -5.000000 2.313313 -0.515144
v -5.000000 2.000000 -1.015144
v -4.000000 2.310205 0.492399
v -5.000000 2.310205 0.492399
v -5.000000 2.411996 -0.015144
v -4.000000 2.313313 -0.515144
v -4.000000 2.411996 -0.015144
v -5.000000 2.156657 -0.765144
v -4.000000 -2.000000 -0.765144
v -5.000000 -2.000000 -0.765144
v -4.000000 2.156657 -0.765144
v -5.000000 1.808507 -0.746627
v -4.000000 1.808507 -0.746627
v -5.000000 -2.000000 0.738628
v -4.000000 2.155103 0.738628
v -5.000000 2.155103 0.738628
v -4.000000 -2.000000 0.738628
v -4.000000 1.806986 0.719992
v -5.000000 1.806986 0.719992
v -5.000000 -2.000000 0.984856
vt 0.062585 0.806734
vt 0.032101 0.806734
vt 0.032101 0.806734
vt 0.062585 0.837218
vt 0.032101 0.867702
vt 0.032101 0.837218
vt 0.062585 0.806734
vt 0.062585 0.898187
vt 0.032101 0.898187
vt 0.032101 0.898187
vt 0.062585 0.837218
vt 0.062585 0.898187
vt 0.062585 0.867702
vt 0.032101 0.867702
vt 0.137535 0.800597
vt 0.180379 0.800597
vt 0.137535 0.800597
vt 0.137535 0.886284
vt 0.180379 0.843440
vt 0.137535 0.843440
vt 0.180379 0.800597
vt 0.137535 0.929127
vt 0.180379 0.929127
vt 0.137535 0.929127
vt 0.180379 0.843440
vt 0.180379 0.929127
vt 0.180379 0.886284
vt 0.180379 0.886284
vt 0.180379 0.929127
vt 0.137535 0.929127
vt 0.180379 0.929127
vt 0.137535 0.843440
vt 0.137535 0.886284
vt 0.180379 0.929127
vt 0.180379 0.929127
vt 0.137535 0.929127
vt 0.180379 0.886284
vt 0.180379 0.843440
vt 0.137535 0.886284
vt 0.180379 0.886284
vt 0.137535 0.929127
vt 0.137535 0.800597
vt 0.137535 0.800597
vt 0.137535 0.800597
vt 0.180379 0.800597
vt 0.180379 0.800597
vt 0.180379 0.843440
vt 0.137535 0.800597
vt 0.180379 0.800597
vt 0.180379 0.800597
vt 0.137535 0.843440
vt 0.137535 0.843440
vt 0.137535 0.929127
vt 0.420520 0.816613
vt 0.457727 0.798010
vt 0.420520 0.798010
vt 0.355917 0.812403
vt 0.373855 0.831526
vt 0.355917 0.831374
vt 0.355917 0.847973
vt 0.373895 0.850344
vt 0.355917 0.850344
vt 0.355917 0.869315
vt 0.355917 0.885950
vt 0.373855 0.888133
vt 0.355917 0.888286
vt 0.373891 0.833886
vt 0.373964 0.883414
vt 0.373909 0.885773
vt 0.393859 0.850344
vt 0.391523 0.869315
vt 0.391523 0.850344
vt 0.384373 0.850344
vt 0.379631 0.869315
vt 0.379631 0.850344
vt 0.373983 0.840860
vt 0.373928 0.836246
vt 0.377259 0.869315
vt 0.377259 0.850344
vt 0.373965 0.845402
vt 0.373983 0.878800
vt 0.373929 0.874257
vt 0.373930 0.847873
vt 0.373892 0.871862
vt 0.389187 0.850344
vt 0.384373 0.869315
vt 0.374888 0.812403
vt 0.374888 0.831374
vt 0.374888 0.847973
vt 0.374888 0.869315
vt 0.373855 0.869467
vt 0.374888 0.885950
vt 0.374888 0.836045
vt 0.374888 0.840859
vt 0.374888 0.874058
vt 0.374888 0.878800
vt 0.374888 0.845602
vt 0.374888 0.871686
vt 0.374888 0.883615
vt 0.374888 0.833709
vt 0.374888 0.850344
vt 0.355917 0.871686
vt 0.374888 0.888286
vt 0.355917 0.833709
vt 0.389187 0.869315
vt 0.457727 0.779406
vt 0.420520 0.779406
vt 0.450293 0.861735
vt 0.450309 0.819806
vt 0.450339 0.859738
vt 0.450281 0.799622
vt 0.435062 0.815682
vt 0.435062 0.799622
vt 0.435062 0.829735
vt 0.450281 0.831742
vt 0.435062 0.831742
vt 0.435062 0.847802
vt 0.435062 0.861885
vt 0.450247 0.863733
vt 0.435062 0.863862
vt 0.467182 0.831742
vt 0.465204 0.847802
vt 0.465204 0.831742
vt 0.459152 0.831742
vt 0.455137 0.847802
vt 0.455137 0.831742
vt 0.453129 0.847802
vt 0.453129 0.831742
vt 0.463227 0.831742
vt 0.459152 0.847802
vt 0.451122 0.815682
vt 0.450247 0.815811
vt 0.450340 0.827558
vt 0.451122 0.829735
vt 0.450310 0.829650
vt 0.451122 0.847802
vt 0.450247 0.847931
vt 0.451122 0.861885
vt 0.450356 0.823713
vt 0.451122 0.819636
vt 0.451122 0.823712
vt 0.450356 0.855831
vt 0.451122 0.851817
vt 0.451122 0.855832
vt 0.451122 0.827727
vt 0.450279 0.849958
vt 0.451122 0.849809
vt 0.451122 0.859908
vt 0.450278 0.817809
vt 0.451122 0.817659
vt 0.450310 0.851986
vt 0.451122 0.831742
vt 0.435062 0.849809
vt 0.451122 0.863862
vt 0.435062 0.817659
vt 0.463227 0.847802
vt 0.457727 0.774756
vt 0.457727 0.849239
vt 0.457727 0.821264
vt 0.961128 0.782174
vt 0.961128 0.872824
vt 0.961128 0.838777
vt 0.322279 0.781948
vt 0.301624 0.803744
vt 0.301624 0.781948
vt 0.301624 0.822817
vt 0.322279 0.825541
vt 0.301624 0.825541
vt 0.301624 0.866451
vt 0.322233 0.868959
vt 0.301624 0.869135
vt 0.322275 0.806631
vt 0.322359 0.863537
vt 0.322296 0.866248
vt 0.345217 0.825541
vt 0.342534 0.847338
vt 0.342534 0.825541
vt 0.334319 0.825541
vt 0.328870 0.847338
vt 0.328870 0.825541
vt 0.322381 0.814644
vt 0.322318 0.809342
vt 0.326145 0.847338
vt 0.326145 0.825541
vt 0.322360 0.819863
vt 0.322381 0.858235
vt 0.322319 0.853016
vt 0.322319 0.822702
vt 0.322276 0.850264
vt 0.339850 0.825541
vt 0.334319 0.847338
vt 0.323420 0.803744
vt 0.322233 0.803920
vt 0.323420 0.822817
vt 0.322234 0.847512
vt 0.323420 0.825541
vt 0.323420 0.847338
vt 0.323420 0.866451
vt 0.323420 0.809111
vt 0.323420 0.814643
vt 0.323420 0.852787
vt 0.323420 0.858236
vt 0.323420 0.820092
vt 0.323420 0.850062
vt 0.323420 0.863768
vt 0.323420 0.806428
vt 0.301624 0.850062
vt 0.301624 0.847338
vt 0.323420 0.869135
vt 0.301624 0.806428
vt 0.339850 0.847338
vt 0.457727 0.774756
vt 0.457727 0.849239
vt 0.457727 0.821264
vt 0.062585 0.806734
vt 0.032101 0.806734
vt 0.062585 0.898187
vt 0.032101 0.837218
vt 0.032101 0.898187
vt 0.062585 0.867702
vt 0.137535 0.886284
vt 0.457727 0.816613
vt 0.373895 0.812403
vt 0.393859 0.869315
vt 0.339282 0.850344
vt 0.467182 0.847802
vt 0.451122 0.799622
vt 0.420979 0.831742
vt 0.425101 0.779406
vt 0.921421 0.787835
vt 0.345217 0.847338
vt 0.323420 0.781948
vt 0.282510 0.825541
vt 0.425101 0.779406
vn -1.0000 0.0000 0.0000
vn 0.0000 0.0000 -1.0000
vn 0.0000 0.0000 1.0000
vn 1.0000 0.0000 0.0000
vn 0.9998 0.0000 0.0178
vn -0.0089 0.0000 -1.0000
vn 0.0089 0.0000 -1.0000
vn 0.9998 0.0000 -0.0180
vn -0.9998 0.0000 0.0178
vn -0.9998 0.0000 -0.0179
vn 0.0000 -1.0000 0.0000
vn 0.0000 1.0000 0.0000
vn 0.5330 -0.8461 0.0000
vn -0.5330 0.8461 0.0000
vn 0.1936 0.9811 0.0000
vn 0.1966 -0.9805 0.0000
vn 0.5310 0.8474 0.0000
vn -0.1936 -0.9811 0.0000
vn -0.5310 -0.8474 0.0000
vn -0.1966 0.9805 0.0000
vn 0.9970 -0.0763 0.0160
vn -1.0000 -0.0049 0.0000
vn 1.0000 -0.0049 0.0000
vn 0.0000 -0.8461 -0.5330
vn 0.0000 0.8461 0.5330
vn 0.0000 0.9811 -0.1936
vn 0.0000 0.8474 -0.5310
vn 0.0000 0.9805 0.1966
vn 0.0000 -0.0049 1.0000
vn 0.0000 -0.0049 -1.0000
vn -0.0000 -0.9805 -0.1966
vn 0.0000 -0.9811 0.1936
vn 0.0000 -0.8474 0.5310
vn 0.0160 0.0766 0.9969
vn -0.9999 0.0042 0.0161
vn 0.9999 0.0042 0.0160
vn -0.9969 -0.0766 0.0160
vn 0.0161 -0.0042 0.9999
vn 0.0160 0.0763 -0.9970
vn 0.0160 -0.0042 -0.9999
usemtl Material
s off
f 1/1/1 14/2/1 35/3/1
f 2/4/2 4/5/2 36/6/2
f 35/3/3 6/7/3 1/1/3
f 3/8/3 43/9/3 37/10/3
f 36/6/1 13/11/1 2/4/1
f 37/10/4 86/12/4 3/8/4
f 5/13/4 11/14/4 4/5/4
f 29/15/5 16/16/5 15/17/5
f 20/18/3 19/19/3 17/20/3
f 25/21/6 15/17/6 16/16/6
f 27/22/7 22/23/7 23/24/7
f 30/25/8 17/20/8 19/19/8
f 31/26/9 23/24/9 22/23/9
f 20/18/10 32/27/10 21/28/10
f 26/29/1 43/30/1 7/31/1
f 20/18/11 36/32/11 4/33/11
f 86/34/12 22/23/12 3/35/12
f 43/30/11 23/24/11 37/36/11
f 19/19/12 5/37/12 2/38/12
f 32/27/3 11/39/3 12/40/3
f 22/23/12 7/31/12 3/35/12
f 11/39/11 20/18/11 4/33/11
f 23/24/11 10/41/11 37/36/11
f 21/28/12 12/40/12 5/37/12
f 14/42/11 15/17/11 35/43/11
f 15/17/11 8/44/11 35/43/11
f 34/45/2 14/42/2 106/46/2
f 13/47/12 19/19/12 2/38/12
f 24/48/4 6/49/4 8/44/4
f 16/16/12 106/46/12 1/50/12
f 17/20/11 9/51/11 36/32/11
f 18/52/3 13/47/3 9/51/3
f 6/49/12 16/16/12 1/50/12
f 28/53/2 86/34/2 10/41/2
f 35/54/12 72/55/12 71/56/12
f 38/57/1 40/58/1 8/59/1
f 61/60/2 44/61/2 43/62/2
f 44/61/4 41/63/4 43/62/4
f 68/64/3 51/65/3 38/66/3
f 70/67/13 49/68/13 69/69/13
f 6/70/14 66/71/14 67/72/14
f 56/73/15 57/74/15 52/75/15
f 45/76/16 49/68/16 50/77/16
f 52/75/17 62/78/17 59/79/17
f 47/80/18 46/81/18 45/76/18
f 48/82/19 63/83/19 64/84/19
f 55/85/20 58/86/20 56/73/20
f 40/58/1 39/87/1 6/88/1
f 47/80/2 59/89/2 63/83/2
f 44/61/21 53/90/21 42/91/21
f 49/68/3 66/92/3 69/69/3
f 45/76/2 55/93/2 56/94/2
f 46/81/3 57/95/3 58/96/3
f 45/76/2 52/97/2 47/80/2
f 64/84/3 53/90/3 62/98/3
f 46/81/3 54/99/3 49/68/3
f 70/67/2 6/88/2 67/100/2
f 48/82/3 62/98/3 57/95/3
f 63/83/2 7/101/2 44/61/2
f 59/79/17 53/90/17 7/101/17
f 42/91/3 60/102/3 41/63/3
f 64/84/22 61/60/22 60/102/22
f 50/77/2 67/100/2 55/93/2
f 69/69/3 39/103/3 51/65/3
f 40/58/2 65/104/2 8/59/2
f 67/72/14 54/105/14 55/85/14
f 68/64/23 70/67/23 69/69/23
f 71/56/12 4/106/12 36/107/12
f 104/108/24 84/109/24 83/110/24
f 85/111/3 10/112/3 73/113/3
f 96/114/1 78/115/1 11/116/1
f 78/115/2 76/117/2 11/116/2
f 103/118/4 85/119/4 73/120/4
f 86/121/25 101/122/25 102/123/25
f 91/124/26 92/125/26 87/126/26
f 87/126/27 97/127/27 94/128/27
f 90/129/28 93/130/28 91/124/28
f 85/111/3 86/131/3 75/132/3
f 81/133/1 94/134/1 98/135/1
f 78/115/2 88/136/2 77/137/2
f 83/110/4 101/138/4 104/108/4
f 79/139/1 90/140/1 91/141/1
f 80/142/4 92/143/4 93/144/4
f 79/139/1 87/145/1 81/133/1
f 99/146/4 88/136/4 97/147/4
f 80/142/4 89/148/4 83/110/4
f 105/149/1 86/131/1 102/150/1
f 82/151/4 97/147/4 92/143/4
f 98/135/1 12/152/1 78/115/1
f 94/128/27 88/136/27 12/152/27
f 77/137/4 95/153/4 76/117/4
f 99/146/29 96/114/29 95/153/29
f 84/109/1 102/150/1 90/140/1
f 104/108/4 74/154/4 85/119/4
f 75/132/1 100/155/1 10/112/1
f 102/123/25 89/156/25 90/129/25
f 103/118/30 105/149/30 104/108/30
f 83/110/31 79/139/31 80/142/31
f 81/133/32 80/142/32 79/139/32
f 82/151/33 98/135/33 99/146/33
f 96/157/12 103/158/12 95/159/12
f 61/160/12 68/161/12 60/162/12
f 117/163/3 138/164/3 14/165/3
f 128/166/1 110/167/1 109/168/1
f 135/169/4 117/170/4 14/171/4
f 137/172/24 115/173/24 136/174/24
f 118/175/25 133/176/25 134/177/25
f 123/178/26 124/179/26 119/180/26
f 111/181/31 115/173/31 116/182/31
f 119/180/27 129/183/27 126/184/27
f 113/185/32 112/186/32 111/181/32
f 114/187/33 130/188/33 131/189/33
f 122/190/28 125/191/28 123/178/28
f 117/163/34 118/192/34 107/193/34
f 113/185/1 126/194/1 130/188/1
f 108/195/2 120/196/2 13/197/2
f 115/173/4 133/198/4 136/174/4
f 111/181/1 122/199/1 123/200/1
f 112/186/4 124/201/4 125/202/4
f 111/181/1 119/203/1 113/185/1
f 131/189/4 13/197/4 129/204/4
f 112/186/4 121/205/4 115/173/4
f 137/172/1 118/192/1 134/206/1
f 114/187/4 129/204/4 124/201/4
f 130/188/1 120/196/1 110/167/1
f 126/184/27 13/197/27 120/196/27
f 108/195/4 127/207/4 9/208/4
f 131/189/29 128/166/29 127/207/29
f 116/182/1 134/206/1 122/199/1
f 136/174/4 106/209/4 117/170/4
f 107/193/1 132/210/1 138/164/1
f 134/177/25 121/211/25 122/190/25
f 135/169/30 137/172/30 136/174/30
f 128/212/12 135/213/12 127/214/12
f 109/168/2 108/195/2 9/208/2
f 1/1/1 106/215/1 14/2/1
f 2/4/2 5/13/2 4/5/2
f 35/3/3 8/216/3 6/7/3
f 3/8/3 7/217/3 43/9/3
f 36/6/1 9/218/1 13/11/1
f 37/10/4 10/219/4 86/12/4
f 5/13/4 12/220/4 11/14/4
f 29/15/5 34/45/5 16/16/5
f 20/18/3 21/28/3 19/19/3
f 25/21/6 24/48/6 15/17/6
f 27/22/7 26/29/7 22/23/7
f 30/25/8 18/52/8 17/20/8
f 31/26/9 28/53/9 23/24/9
f 20/18/10 33/221/10 32/27/10
f 26/29/1 27/22/1 43/30/1
f 20/18/11 17/20/11 36/32/11
f 86/34/12 31/26/12 22/23/12
f 43/30/11 27/22/11 23/24/11
f 19/19/12 21/28/12 5/37/12
f 32/27/3 33/221/3 11/39/3
f 22/23/12 26/29/12 7/31/12
f 11/39/11 33/221/11 20/18/11
f 23/24/11 28/53/11 10/41/11
f 21/28/12 32/27/12 12/40/12
f 14/42/11 29/15/11 15/17/11
f 15/17/11 24/48/11 8/44/11
f 34/45/2 29/15/2 14/42/2
f 13/47/12 30/25/12 19/19/12
f 24/48/4 25/21/4 6/49/4
f 16/16/12 34/45/12 106/46/12
f 17/20/11 18/52/11 9/51/11
f 18/52/3 30/25/3 13/47/3
f 6/49/12 25/21/12 16/16/12
f 28/53/2 31/26/2 86/34/2
f 35/54/12 37/222/12 72/55/12
f 38/57/35 51/223/35 40/58/35
f 61/60/2 63/83/2 44/61/2
f 44/61/36 42/91/36 41/63/36
f 68/64/3 69/69/3 51/65/3
f 70/67/13 50/77/13 49/68/13
f 6/70/14 39/224/14 66/71/14
f 56/73/15 58/86/15 57/74/15
f 45/76/16 46/81/16 49/68/16
f 52/75/17 57/74/17 62/78/17
f 47/80/18 48/82/18 46/81/18
f 48/82/19 47/80/19 63/83/19
f 55/85/20 54/105/20 58/86/20
f 40/58/37 51/223/37 39/87/37
f 47/80/2 52/97/2 59/89/2
f 44/61/4 7/101/4 53/90/4
f 49/68/3 54/99/3 66/92/3
f 45/76/2 50/77/2 55/93/2
f 46/81/3 48/82/3 57/95/3
f 45/76/2 56/94/2 52/97/2
f 64/84/3 42/91/3 53/90/3
f 46/81/3 58/96/3 54/99/3
f 70/67/2 40/58/2 6/88/2
f 48/82/3 64/84/3 62/98/3
f 63/83/2 59/89/2 7/101/2
f 59/79/17 62/78/17 53/90/17
f 42/91/3 64/84/3 60/102/3
f 64/84/22 63/83/22 61/60/22
f 50/77/2 70/67/2 67/100/2
f 69/69/3 66/92/3 39/103/3
f 40/58/2 70/67/2 65/104/2
f 67/72/14 66/71/14 54/105/14
f 68/64/23 65/225/23 70/67/23
f 71/56/12 72/55/12 4/106/12
f 104/108/24 105/149/24 84/109/24
f 85/111/3 75/132/3 10/112/3
f 96/114/1 98/135/1 78/115/1
f 78/115/2 77/137/2 76/117/2
f 103/118/4 104/108/4 85/119/4
f 86/121/25 74/226/25 101/122/25
f 91/124/26 93/130/26 92/125/26
f 87/126/27 92/125/27 97/127/27
f 90/129/28 89/156/28 93/130/28
f 85/111/3 74/227/3 86/131/3
f 81/133/1 87/145/1 94/134/1
f 78/115/2 12/152/2 88/136/2
f 83/110/4 89/148/4 101/138/4
f 79/139/1 84/109/1 90/140/1
f 80/142/4 82/151/4 92/143/4
f 79/139/1 91/141/1 87/145/1
f 99/146/4 77/137/4 88/136/4
f 80/142/4 93/144/4 89/148/4
f 105/149/1 75/132/1 86/131/1
f 82/151/4 99/146/4 97/147/4
f 98/135/1 94/134/1 12/152/1
f 94/128/27 97/127/27 88/136/27
f 77/137/4 99/146/4 95/153/4
f 99/146/29 98/135/29 96/114/29
f 84/109/1 105/149/1 102/150/1
f 104/108/4 101/138/4 74/154/4
f 75/132/1 105/149/1 100/155/1
f 102/123/25 101/122/25 89/156/25
f 103/118/30 100/228/30 105/149/30
f 83/110/31 84/109/31 79/139/31
f 81/133/32 82/151/32 80/142/32
f 82/151/33 81/133/33 98/135/33
f 96/157/12 100/229/12 103/158/12
f 61/160/12 65/230/12 68/161/12
f 117/163/38 107/193/38 138/164/38
f 128/166/1 130/188/1 110/167/1
f 135/169/4 136/174/4 117/170/4
f 137/172/24 116/182/24 115/173/24
f 118/175/25 106/231/25 133/176/25
f 123/178/26 125/191/26 124/179/26
f 111/181/31 112/186/31 115/173/31
f 119/180/27 124/179/27 129/183/27
f 113/185/32 114/187/32 112/186/32
f 114/187/33 113/185/33 130/188/33
f 122/190/28 121/211/28 125/191/28
f 117/163/3 106/232/3 118/192/3
f 113/185/1 119/203/1 126/194/1
f 108/195/39 110/167/39 120/196/39
f 115/173/4 121/205/4 133/198/4
f 111/181/1 116/182/1 122/199/1
f 112/186/4 114/187/4 124/201/4
f 111/181/1 123/200/1 119/203/1
f 131/189/4 108/195/4 13/197/4
f 112/186/4 125/202/4 121/205/4
f 137/172/1 107/193/1 118/192/1
f 114/187/4 131/189/4 129/204/4
f 130/188/1 126/194/1 120/196/1
f 126/184/27 129/183/27 13/197/27
f 108/195/4 131/189/4 127/207/4
f 131/189/29 130/188/29 128/166/29
f 116/182/1 137/172/1 134/206/1
f 136/174/4 133/198/4 106/209/4
f 107/193/1 137/172/1 132/210/1
f 134/177/25 133/176/25 121/211/25
f 135/169/30 132/233/30 137/172/30
f 128/212/12 132/234/12 135/213/12
f 109/168/40 110/167/40 108/195/40
