# Blender v2.80 (sub 75) OBJ File: 'Front Door.blend'
# www.blender.org
mtllib Front Door.mtl
o Front_Door.001_Cube.001
v -4.000000 -2.000000 3.000000
v -4.000000 2.000000 3.000000
v -4.000000 -2.000000 -3.000000
v -4.000000 2.000000 -3.000000
v 4.000000 -2.000000 3.000000
v 4.000000 2.000000 3.000000
v 4.000000 -2.000000 -3.000000
v 4.000000 2.000000 -3.000000
v 1.000000 -2.000000 3.000000
v -1.000000 2.000000 3.000000
v 1.000000 2.000000 3.000000
v -1.000000 -2.000000 3.000000
v -4.000000 -2.000000 -1.015144
v 4.000000 -2.000000 0.994862
v 4.000000 -2.000000 -1.005138
v 4.000000 2.000000 0.994862
v 4.000000 2.000000 -1.005138
v -4.000000 2.000000 0.984856
v -4.000000 2.000000 -1.015144
v -4.000000 -2.000000 0.984856
v -3.916285 -2.000000 2.937214
v -3.916285 2.000000 2.937214
v -3.916285 -2.000000 -2.937214
v -3.881609 -2.000000 -1.015144
v -3.916285 2.000000 -2.937214
v 3.916285 -2.000000 -2.937214
v 3.916285 2.000000 -2.937214
v 3.916285 2.000000 2.937214
v 3.916285 -2.000000 2.937214
v -1.000000 -2.000000 2.911207
v -1.000000 2.000000 2.911207
v 1.000000 2.000000 2.911207
v 1.000000 -2.000000 2.911207
v 3.881609 -2.000000 0.994862
v -3.881609 -2.000000 0.984856
v -3.881609 2.000000 -1.015144
v 3.881609 2.000000 0.994862
v 3.881609 2.000000 -1.005138
v 3.881609 -2.000000 -1.005138
v -3.881609 2.000000 0.984856
v -4.000000 -2.000000 3.000000
v -4.000000 -2.000000 -3.000000
v 4.000000 -2.000000 3.000000
v 4.000000 -2.000000 -3.000000
v -1.000000 -2.000000 4.000000
v -1.000000 2.000000 4.000000
v -1.000000 1.790588 3.000000
v 1.000000 -2.000000 4.000000
v 0.983981 1.790588 4.000000
v 1.000000 -2.000000 3.000000
v 1.000000 1.790588 3.000000
v 0.000083 2.061248 3.000000
v 0.000083 2.061248 4.000000
v 0.478985 1.966729 3.000000
v 0.478985 1.966729 4.000000
v -0.486371 1.963687 4.000000
v -0.486371 1.963687 3.000000
v -0.983901 1.790588 4.000000
v -1.000000 2.000000 3.000000
v 0.500000 2.313313 3.000000
v 1.000000 2.000000 3.000000
v 1.000000 2.000000 4.000000
v -0.507544 2.310205 4.000000
v -0.507544 2.310205 3.000000
v 0.000000 2.411996 3.000000
v 0.500000 2.313313 4.000000
v 0.000000 2.411996 4.000000
v 0.750000 2.156657 3.000000
v 0.750000 -2.000000 4.000000
v 0.750000 -2.000000 3.000000
v 0.750000 2.156657 4.000000
v 0.731483 1.808507 3.000000
v 0.731483 1.808507 4.000000
v -0.753772 -2.000000 3.000000
v -0.753772 2.155103 4.000000
v -0.753772 2.155103 3.000000
v -0.753772 -2.000000 4.000000
v -0.735136 1.806986 4.000000
v -0.735136 1.806986 3.000000
v -1.000000 -2.000000 3.000000
v -4.000000 -2.000000 0.000000
v -4.000000 -2.000000 -1.015144
v 4.000000 -2.000000 0.000000
v 4.000000 -2.000000 0.994862
v 4.999999 -2.000000 0.994862
v 4.999999 2.000000 0.994862
v 4.000000 1.790588 0.994862
v 4.999999 -2.000000 -1.005138
v 4.999999 1.790588 -1.005138
v 4.000000 -2.000000 -1.005138
v 4.000000 1.790588 -1.005138
v 4.000000 2.061248 -0.005221
v 4.999999 2.061248 -0.005221
v 4.000000 1.966729 -0.484123
v 4.999999 1.966729 -0.484123
v 4.999999 1.963686 0.481233
v 4.000000 1.963686 0.481233
v 4.999999 1.790588 0.994862
v 4.000000 2.000000 0.994862
v 4.000000 2.313313 -0.505138
v 4.000000 2.000000 -1.005138
v 4.999999 2.000000 -1.005138
v 4.999999 2.310205 0.502406
v 4.000000 2.310205 0.502406
v 4.000000 2.411996 -0.005138
v 4.999999 2.313313 -0.505138
v 4.999999 2.411996 -0.005138
v 4.000000 2.156657 -0.755138
v 4.999999 -2.000000 -0.755138
v 4.000000 -2.000000 -0.755138
v 4.999999 2.156657 -0.755138
v 4.000000 1.808507 -0.736621
v 4.999999 1.808507 -0.736621
v 4.000000 -2.000000 0.748634
v 4.999999 2.155103 0.748634
v 4.000000 2.155103 0.748634
v 4.999999 -2.000000 0.748634
v 4.999999 1.806986 0.729998
v 4.000000 1.806986 0.729998
v -4.000000 2.000000 0.984856
v -5.000000 1.790588 1.000955
v -4.000000 1.790588 -1.015144
v -5.000000 -2.000000 -1.015144
v -5.000000 1.790588 -1.031163
v -5.000000 2.061248 -0.015227
v -4.000000 2.061248 -0.015227
v -5.000000 1.966729 -0.494130
v -4.000000 1.966729 -0.494130
v -4.000000 1.963686 0.471226
v -5.000000 1.963686 0.471226
v -4.000000 1.790588 0.984856
v -5.000000 2.000000 0.984856
v -5.000000 2.313313 -0.515144
v -5.000000 2.000000 -1.015144
v -4.000000 2.000000 -1.015144
v -4.000000 2.310205 0.492399
v -5.000000 2.310205 0.492399
v -5.000000 2.411996 -0.015144
v -4.000000 2.313313 -0.515144
v -4.000000 2.411996 -0.015144
v -5.000000 2.156657 -0.765144
v -4.000000 -2.000000 -0.765144
v -5.000000 -2.000000 -0.765144
v -4.000000 2.156657 -0.765144
v -5.000000 1.808507 -0.746627
v -4.000000 1.808507 -0.746627
v -5.000000 -2.000000 0.738628
v -4.000000 2.155103 0.738628
v -5.000000 2.155103 0.738628
v -4.000000 -2.000000 0.738628
v -4.000000 1.806986 0.719992
v -5.000000 1.806986 0.719992
v -5.000000 -2.000000 0.984856
v -4.000000 -2.000000 0.984856
vt 0.625000 0.000000
vt 0.375000 0.000000
vt 0.375000 0.000000
vt 0.625000 0.250000
vt 0.375000 0.500000
vt 0.375000 0.250000
vt 0.625000 0.000000
vt 0.625000 0.750000
vt 0.375000 0.750000
vt 0.375000 0.750000
vt 0.625000 0.250000
vt 0.625000 0.750000
vt 0.625000 0.500000
vt 0.375000 0.500000
vt 0.375000 0.000000
vt 0.625000 0.000000
vt 0.375000 0.000000
vt 0.375000 0.500000
vt 0.625000 0.250000
vt 0.375000 0.250000
vt 0.625000 0.000000
vt 0.375000 0.750000
vt 0.625000 0.750000
vt 0.375000 0.750000
vt 0.625000 0.250000
vt 0.625000 0.750000
vt 0.625000 0.500000
vt 0.625000 0.500000
vt 0.625000 0.750000
vt 0.625000 0.750000
vt 0.625000 0.500000
vt 0.375000 0.750000
vt 0.375000 0.000000
vt 0.625000 0.000000
vt 0.625000 0.000000
vt 0.375000 0.000000
vt 0.375000 0.250000
vt 0.375000 0.250000
vt 0.375000 0.750000
vt 0.125000 0.750000
vt 0.375000 0.625000
vt 0.125000 0.625000
vt 0.375000 0.000000
vt 0.611383 0.252012
vt 0.375000 0.250000
vt 0.375000 0.468750
vt 0.611912 0.500000
vt 0.375000 0.500000
vt 0.375000 0.750000
vt 0.375000 0.969221
vt 0.611383 0.997988
vt 0.375000 1.000000
vt 0.611867 0.283108
vt 0.612824 0.935796
vt 0.612103 0.966892
vt 0.875000 0.500000
vt 0.844221 0.750000
vt 0.844221 0.500000
vt 0.750000 0.500000
vt 0.687500 0.750000
vt 0.687500 0.500000
vt 0.613076 0.375010
vt 0.612351 0.314204
vt 0.656250 0.750000
vt 0.656250 0.500000
vt 0.612834 0.434873
vt 0.613075 0.874990
vt 0.612366 0.815127
vt 0.612373 0.467437
vt 0.611878 0.783565
vt 0.813443 0.500000
vt 0.750000 0.750000
vt 0.625000 0.000000
vt 0.625000 0.250000
vt 0.625000 0.468750
vt 0.625000 0.750000
vt 0.611389 0.752002
vt 0.625000 0.969221
vt 0.625000 0.311557
vt 0.625000 0.375000
vt 0.625000 0.812500
vt 0.625000 0.875000
vt 0.625000 0.437500
vt 0.625000 0.781250
vt 0.625000 0.938443
vt 0.625000 0.280779
vt 0.625000 0.500000
vt 0.375000 0.781250
vt 0.625000 1.000000
vt 0.375000 0.280779
vt 0.813443 0.750000
vt 0.375000 0.500000
vt 0.125000 0.500000
vt 0.612103 0.966892
vt 0.612351 0.314204
vt 0.612824 0.935796
vt 0.611912 0.000000
vt 0.375000 0.250000
vt 0.375000 0.000000
vt 0.375000 0.468750
vt 0.611912 0.500000
vt 0.375000 0.500000
vt 0.375000 0.750000
vt 0.375000 0.969221
vt 0.611383 0.997988
vt 0.375000 1.000000
vt 0.875000 0.500000
vt 0.844221 0.750000
vt 0.844221 0.500000
vt 0.750000 0.500000
vt 0.687500 0.750000
vt 0.687500 0.500000
vt 0.656250 0.750000
vt 0.656250 0.500000
vt 0.813443 0.500000
vt 0.750000 0.750000
vt 0.625000 0.250000
vt 0.611383 0.252012
vt 0.612834 0.434873
vt 0.625000 0.468750
vt 0.612373 0.467437
vt 0.625000 0.750000
vt 0.611389 0.752002
vt 0.625000 0.969221
vt 0.613076 0.375010
vt 0.625000 0.311557
vt 0.625000 0.375000
vt 0.613075 0.874990
vt 0.625000 0.812500
vt 0.625000 0.875000
vt 0.625000 0.437500
vt 0.611878 0.783565
vt 0.625000 0.781250
vt 0.625000 0.938443
vt 0.611867 0.283108
vt 0.625000 0.280779
vt 0.612366 0.815127
vt 0.625000 0.500000
vt 0.375000 0.781250
vt 0.625000 1.000000
vt 0.375000 0.280779
vt 0.813443 0.750000
vt 0.611912 0.000000
vt 0.375000 0.250000
vt 0.375000 0.000000
vt 0.375000 0.468750
vt 0.611912 0.500000
vt 0.375000 0.500000
vt 0.375000 0.969221
vt 0.611383 0.997988
vt 0.375000 1.000000
vt 0.611867 0.283108
vt 0.612824 0.935796
vt 0.612103 0.966892
vt 0.875000 0.500000
vt 0.844221 0.750000
vt 0.844221 0.500000
vt 0.750000 0.500000
vt 0.687500 0.750000
vt 0.687500 0.500000
vt 0.613076 0.375010
vt 0.612351 0.314204
vt 0.656250 0.750000
vt 0.656250 0.500000
vt 0.612834 0.434873
vt 0.613075 0.874990
vt 0.612366 0.815127
vt 0.612373 0.467437
vt 0.611878 0.783565
vt 0.813443 0.500000
vt 0.750000 0.750000
vt 0.625000 0.250000
vt 0.611383 0.252012
vt 0.625000 0.468750
vt 0.611389 0.752002
vt 0.625000 0.500000
vt 0.625000 0.750000
vt 0.625000 0.969221
vt 0.625000 0.311557
vt 0.625000 0.375000
vt 0.625000 0.812500
vt 0.625000 0.875000
vt 0.625000 0.437500
vt 0.625000 0.781250
vt 0.625000 0.938443
vt 0.625000 0.280779
vt 0.375000 0.781250
vt 0.375000 0.750000
vt 0.625000 1.000000
vt 0.375000 0.280779
vt 0.813443 0.750000
vt 0.375000 0.500000
vt 0.375000 0.750000
vt 0.611912 0.000000
vt 0.875000 0.750000
vt 0.155779 0.500000
vt 0.875000 0.750000
vt 0.625000 0.000000
vt 0.155779 0.500000
vt 0.875000 0.750000
vt 0.625000 0.000000
vt 0.155779 0.500000
vn -1.0000 0.0000 0.0000
vn 0.0000 0.0000 -1.0000
vn 0.0000 0.0000 1.0000
vn 1.0000 0.0000 0.0000
vn 0.9998 0.0000 0.0178
vn -0.0089 0.0000 -1.0000
vn 0.0089 0.0000 -1.0000
vn 0.9998 0.0000 -0.0180
vn -0.9998 0.0000 0.0178
vn -0.9998 0.0000 -0.0179
vn 0.0000 -1.0000 0.0000
vn 0.0000 1.0000 0.0000
vn 0.5330 -0.8461 0.0000
vn -0.5330 0.8461 0.0000
vn 0.1936 0.9811 0.0000
vn 0.1966 -0.9805 0.0000
vn 0.5310 0.8474 0.0000
vn -0.1936 -0.9811 0.0000
vn -0.5310 -0.8474 0.0000
vn -0.1966 0.9805 0.0000
vn 0.9970 -0.0763 0.0160
vn -1.0000 -0.0049 0.0000
vn 1.0000 -0.0049 0.0000
vn 0.0000 -0.8461 -0.5330
vn 0.0000 0.8461 0.5330
vn 0.0000 0.9811 -0.1936
vn 0.0000 0.8474 -0.5310
vn 0.0000 0.9805 0.1966
vn 0.0000 -0.0049 1.0000
vn 0.0000 -0.0049 -1.0000
vn -0.0000 -0.9805 -0.1966
vn 0.0000 -0.9811 0.1936
vn 0.0000 -0.8474 0.5310
vn 0.0160 0.0766 0.9969
vn -0.9999 0.0042 0.0161
vn 0.9999 0.0042 0.0160
vn -0.9969 -0.0766 0.0160
vn 0.0161 -0.0042 0.9999
vn 0.0160 0.0763 -0.9970
usemtl None
s off
f 2/1/1 20/2/1 1/3/1
f 4/4/2 7/5/2 3/6/2
f 1/3/3 10/7/3 2/1/3
f 6/8/3 9/9/3 5/10/3
f 3/6/1 19/11/1 4/4/1
f 5/10/4 16/12/4 6/8/4
f 8/13/4 15/14/4 7/5/4
f 35/15/5 22/16/5 21/17/5
f 26/18/3 25/19/3 23/20/3
f 31/21/6 21/17/6 22/16/6
f 33/22/7 28/23/7 29/24/7
f 36/25/8 23/20/8 25/19/8
f 37/26/9 29/24/9 28/23/9
f 26/18/10 38/27/10 27/28/10
f 32/29/1 9/9/1 11/30/1
f 26/18/11 3/6/11 7/5/11
f 16/12/12 28/23/12 6/8/12
f 9/9/11 29/24/11 5/10/11
f 25/19/12 8/13/12 4/4/12
f 38/27/3 15/14/3 17/31/3
f 28/23/12 11/30/12 6/8/12
f 15/14/11 26/18/11 7/5/11
f 29/24/11 14/32/11 5/10/11
f 27/28/12 17/31/12 8/13/12
f 20/2/11 21/17/11 1/3/11
f 21/17/11 12/33/11 1/3/11
f 40/34/2 20/2/2 18/35/2
f 19/11/12 25/19/12 4/4/12
f 30/36/4 10/7/4 12/33/4
f 22/16/12 18/35/12 2/1/12
f 23/20/11 13/37/11 3/6/11
f 24/38/3 19/11/3 13/37/3
f 10/7/12 22/16/12 2/1/12
f 34/39/2 16/12/2 14/32/2
f 41/40/12 83/41/12 81/42/12
f 45/43/1 47/44/1 80/45/1
f 70/46/2 51/47/2 50/48/2
f 51/47/4 48/49/4 50/48/4
f 77/50/3 58/51/3 45/52/3
f 79/53/13 56/54/13 78/55/13
f 59/56/14 75/57/14 76/58/14
f 65/59/15 66/60/15 60/61/15
f 52/62/16 56/54/16 57/63/16
f 60/61/17 71/64/17 68/65/17
f 54/66/18 53/67/18 52/62/18
f 55/68/19 72/69/19 73/70/19
f 64/71/20 67/72/20 65/59/20
f 47/44/1 46/73/1 59/74/1
f 54/66/2 68/75/2 72/69/2
f 51/47/21 62/76/21 49/77/21
f 56/54/3 75/78/3 78/55/3
f 52/62/2 64/79/2 65/80/2
f 53/67/3 66/81/3 67/82/3
f 52/62/2 60/83/2 54/66/2
f 73/70/3 62/76/3 71/84/3
f 53/67/3 63/85/3 56/54/3
f 79/53/2 59/74/2 76/86/2
f 55/68/3 71/84/3 66/81/3
f 72/69/2 61/87/2 51/47/2
f 68/65/17 62/76/17 61/87/17
f 49/77/3 69/88/3 48/49/3
f 73/70/22 70/46/22 69/88/22
f 57/63/2 76/86/2 64/79/2
f 78/55/3 46/89/3 58/51/3
f 47/44/2 74/90/2 80/45/2
f 76/58/14 63/91/14 64/71/14
f 77/50/23 79/53/23 78/55/23
f 81/42/12 44/92/12 42/93/12
f 118/94/24 97/95/24 96/96/24
f 98/97/3 84/98/3 85/99/3
f 110/100/1 91/101/1 90/102/1
f 91/101/2 88/103/2 90/102/2
f 117/104/4 98/105/4 85/106/4
f 99/107/25 115/108/25 116/109/25
f 105/110/26 106/111/26 100/112/26
f 100/112/27 111/113/27 108/114/27
f 104/115/28 107/116/28 105/110/28
f 98/97/3 99/117/3 87/118/3
f 94/119/1 108/120/1 112/121/1
f 91/101/2 102/122/2 89/123/2
f 96/96/4 115/124/4 118/94/4
f 92/125/1 104/126/1 105/127/1
f 93/128/4 106/129/4 107/130/4
f 92/125/1 100/131/1 94/119/1
f 113/132/4 102/122/4 111/133/4
f 93/128/4 103/134/4 96/96/4
f 119/135/1 99/117/1 116/136/1
f 95/137/4 111/133/4 106/129/4
f 112/121/1 101/138/1 91/101/1
f 108/114/27 102/122/27 101/138/27
f 89/123/4 109/139/4 88/103/4
f 113/132/29 110/100/29 109/139/29
f 97/95/1 116/136/1 104/126/1
f 118/94/4 86/140/4 98/105/4
f 87/118/1 114/141/1 84/98/1
f 116/109/25 103/142/25 104/115/25
f 117/104/30 119/135/30 118/94/30
f 96/96/31 92/125/31 93/128/31
f 94/119/32 93/128/32 92/125/32
f 95/137/33 112/121/33 113/132/33
f 110/100/12 117/104/12 109/139/12
f 70/46/12 77/50/12 69/88/12
f 131/143/3 153/144/3 154/145/3
f 143/146/1 124/147/1 123/148/1
f 150/149/4 131/150/4 154/151/4
f 152/152/24 129/153/24 151/154/24
f 132/155/25 148/156/25 149/157/25
f 138/158/26 139/159/26 133/160/26
f 125/161/31 129/153/31 130/162/31
f 133/160/27 144/163/27 141/164/27
f 127/165/32 126/166/32 125/161/32
f 128/167/33 145/168/33 146/169/33
f 137/170/28 140/171/28 138/158/28
f 131/143/34 132/172/34 121/173/34
f 127/165/1 141/174/1 145/168/1
f 122/175/2 134/176/2 135/177/2
f 129/153/4 148/178/4 151/154/4
f 125/161/1 137/179/1 138/180/1
f 126/166/4 139/181/4 140/182/4
f 125/161/1 133/183/1 127/165/1
f 146/169/4 135/177/4 144/184/4
f 126/166/4 136/185/4 129/153/4
f 152/152/1 132/172/1 149/186/1
f 128/167/4 144/184/4 139/181/4
f 145/168/1 134/176/1 124/147/1
f 141/164/27 135/177/27 134/176/27
f 122/175/4 142/187/4 82/188/4
f 146/169/29 143/146/29 142/187/29
f 130/162/1 149/186/1 137/179/1
f 151/154/4 120/189/4 131/150/4
f 121/173/1 147/190/1 153/144/1
f 149/157/25 136/191/25 137/170/25
f 150/149/30 152/152/30 151/154/30
f 143/146/12 150/149/12 142/187/12
f 2/1/1 18/35/1 20/2/1
f 4/4/2 8/13/2 7/5/2
f 1/3/3 12/33/3 10/7/3
f 6/8/3 11/30/3 9/9/3
f 3/6/1 13/37/1 19/11/1
f 5/10/4 14/32/4 16/12/4
f 8/13/4 17/31/4 15/14/4
f 35/15/5 40/34/5 22/16/5
f 26/18/3 27/28/3 25/19/3
f 31/21/6 30/36/6 21/17/6
f 33/22/7 32/29/7 28/23/7
f 36/25/8 24/38/8 23/20/8
f 37/26/9 34/39/9 29/24/9
f 26/18/10 39/192/10 38/27/10
f 32/29/1 33/22/1 9/9/1
f 26/18/11 23/20/11 3/6/11
f 16/12/12 37/26/12 28/23/12
f 9/9/11 33/22/11 29/24/11
f 25/19/12 27/28/12 8/13/12
f 38/27/3 39/192/3 15/14/3
f 28/23/12 32/29/12 11/30/12
f 15/14/11 39/192/11 26/18/11
f 29/24/11 34/39/11 14/32/11
f 27/28/12 38/27/12 17/31/12
f 20/2/11 35/15/11 21/17/11
f 21/17/11 30/36/11 12/33/11
f 40/34/2 35/15/2 20/2/2
f 19/11/12 36/25/12 25/19/12
f 30/36/4 31/21/4 10/7/4
f 22/16/12 40/34/12 18/35/12
f 23/20/11 24/38/11 13/37/11
f 24/38/3 36/25/3 19/11/3
f 10/7/12 31/21/12 22/16/12
f 34/39/2 37/26/2 16/12/2
f 41/40/12 43/193/12 83/41/12
f 45/43/35 58/194/35 47/44/35
f 70/46/2 72/69/2 51/47/2
f 51/47/36 49/77/36 48/49/36
f 77/50/3 78/55/3 58/51/3
f 79/53/13 57/63/13 56/54/13
f 59/56/14 46/195/14 75/57/14
f 65/59/15 67/72/15 66/60/15
f 52/62/16 53/67/16 56/54/16
f 60/61/17 66/60/17 71/64/17
f 54/66/18 55/68/18 53/67/18
f 55/68/19 54/66/19 72/69/19
f 64/71/20 63/91/20 67/72/20
f 47/44/37 58/194/37 46/73/37
f 54/66/2 60/83/2 68/75/2
f 51/47/4 61/87/4 62/76/4
f 56/54/3 63/85/3 75/78/3
f 52/62/2 57/63/2 64/79/2
f 53/67/3 55/68/3 66/81/3
f 52/62/2 65/80/2 60/83/2
f 73/70/3 49/77/3 62/76/3
f 53/67/3 67/82/3 63/85/3
f 79/53/2 47/44/2 59/74/2
f 55/68/3 73/70/3 71/84/3
f 72/69/2 68/75/2 61/87/2
f 68/65/17 71/64/17 62/76/17
f 49/77/3 73/70/3 69/88/3
f 73/70/22 72/69/22 70/46/22
f 57/63/2 79/53/2 76/86/2
f 78/55/3 75/78/3 46/89/3
f 47/44/2 79/53/2 74/90/2
f 76/58/14 75/57/14 63/91/14
f 77/50/23 74/196/23 79/53/23
f 81/42/12 83/41/12 44/92/12
f 118/94/24 119/135/24 97/95/24
f 98/97/3 87/118/3 84/98/3
f 110/100/1 112/121/1 91/101/1
f 91/101/2 89/123/2 88/103/2
f 117/104/4 118/94/4 98/105/4
f 99/107/25 86/197/25 115/108/25
f 105/110/26 107/116/26 106/111/26
f 100/112/27 106/111/27 111/113/27
f 104/115/28 103/142/28 107/116/28
f 98/97/3 86/198/3 99/117/3
f 94/119/1 100/131/1 108/120/1
f 91/101/2 101/138/2 102/122/2
f 96/96/4 103/134/4 115/124/4
f 92/125/1 97/95/1 104/126/1
f 93/128/4 95/137/4 106/129/4
f 92/125/1 105/127/1 100/131/1
f 113/132/4 89/123/4 102/122/4
f 93/128/4 107/130/4 103/134/4
f 119/135/1 87/118/1 99/117/1
f 95/137/4 113/132/4 111/133/4
f 112/121/1 108/120/1 101/138/1
f 108/114/27 111/113/27 102/122/27
f 89/123/4 113/132/4 109/139/4
f 113/132/29 112/121/29 110/100/29
f 97/95/1 119/135/1 116/136/1
f 118/94/4 115/124/4 86/140/4
f 87/118/1 119/135/1 114/141/1
f 116/109/25 115/108/25 103/142/25
f 117/104/30 114/199/30 119/135/30
f 96/96/31 97/95/31 92/125/31
f 94/119/32 95/137/32 93/128/32
f 95/137/33 94/119/33 112/121/33
f 110/100/12 114/199/12 117/104/12
f 70/46/12 74/196/12 77/50/12
f 131/143/38 121/173/38 153/144/38
f 143/146/1 145/168/1 124/147/1
f 150/149/4 151/154/4 131/150/4
f 152/152/24 130/162/24 129/153/24
f 132/155/25 120/200/25 148/156/25
f 138/158/26 140/171/26 139/159/26
f 125/161/31 126/166/31 129/153/31
f 133/160/27 139/159/27 144/163/27
f 127/165/32 128/167/32 126/166/32
f 128/167/33 127/165/33 145/168/33
f 137/170/28 136/191/28 140/171/28
f 131/143/3 120/201/3 132/172/3
f 127/165/1 133/183/1 141/174/1
f 122/175/39 124/147/39 134/176/39
f 129/153/4 136/185/4 148/178/4
f 125/161/1 130/162/1 137/179/1
f 126/166/4 128/167/4 139/181/4
f 125/161/1 138/180/1 133/183/1
f 146/169/4 122/175/4 135/177/4
f 126/166/4 140/182/4 136/185/4
f 152/152/1 121/173/1 132/172/1
f 128/167/4 146/169/4 144/184/4
f 145/168/1 141/174/1 134/176/1
f 141/164/27 144/163/27 135/177/27
f 122/175/4 146/169/4 142/187/4
f 146/169/29 145/168/29 143/146/29
f 130/162/1 152/152/1 149/186/1
f 151/154/4 148/178/4 120/189/4
f 121/173/1 152/152/1 147/190/1
f 149/157/25 148/156/25 136/191/25
f 150/149/30 147/202/30 152/152/30
f 143/146/12 147/202/12 150/149/12
