# Blender v2.80 (sub 75) OBJ File: 'Greenhouse.blend'
# www.blender.org
mtllib Greenhouse.mtl
o Arch.000_Cube.000
v 0.500000 -2.000000 2.813465
v 0.500000 2.000000 2.813465
v 0.500000 -2.000000 -3.186535
v 0.500000 2.000000 -3.186535
v 8.500000 -2.000000 2.813465
v 8.500000 2.000000 2.813465
v 8.500000 -2.000000 -3.186535
v 8.500000 2.000000 -3.186535
v 8.500000 -2.000000 -1.000000
v 8.500000 2.000000 -1.000000
v 8.500000 -2.000000 1.000000
v 8.500000 2.000000 1.000000
v 0.500000 -2.000000 -0.983982
v 0.500000 2.000000 -0.983982
v 0.500000 -2.000000 0.983902
v 0.500000 2.000000 0.983902
v 0.550764 -2.000000 2.711938
v 0.550764 2.000000 2.711938
v 0.571790 2.000000 -0.983982
v 0.571790 -2.000000 -0.983982
v 0.550764 2.000000 -3.085008
v 0.550764 -2.000000 -3.085008
v 8.449237 -2.000000 -3.085008
v 8.449237 2.000000 -3.085008
v 8.428209 2.000000 -1.000000
v 8.428209 -2.000000 -1.000000
v 8.449237 2.000000 2.711938
v 8.449237 -2.000000 2.711938
v 8.428209 2.000000 1.000000
v 8.428209 -2.000000 1.000000
v 0.571790 -2.000000 0.983902
v 0.571790 2.000000 0.983902
v 0.500000 -2.000000 1.000000
v 0.500000 2.000000 1.000000
v -0.500000 -2.000000 1.000000
v -0.500000 1.790588 0.983901
v 0.500000 -2.000000 -1.000000
v 0.500000 1.790588 -0.983981
v -0.500000 -2.000000 -1.000000
v -0.500000 1.790588 -0.983981
v -0.500000 2.061248 -0.000083
v 0.500000 2.061248 -0.000083
v -0.500000 1.966729 -0.478985
v 0.500000 1.966729 -0.478986
v 0.500000 1.963687 0.486371
v -0.500000 1.963687 0.486371
v 0.500000 1.790588 0.983901
v -0.500000 2.000000 1.000000
v -0.500000 2.313313 -0.500000
v -0.500000 2.000000 -1.000000
v 0.500000 2.000000 -1.000000
v 0.500000 2.310205 0.507544
v -0.500000 2.310205 0.507544
v -0.500000 2.411996 0.000000
v 0.500000 2.313313 -0.500000
v 0.500000 2.411996 -0.000000
v -0.500000 2.156657 -0.750000
v 0.500000 -2.000000 -0.750000
v -0.500000 -2.000000 -0.750000
v 0.500000 2.156657 -0.750000
v -0.500000 1.808507 -0.731483
v 0.500000 1.808507 -0.731483
v -0.500000 -2.000000 0.753772
v 0.500000 2.155103 0.753772
v -0.500000 2.155103 0.753772
v 0.500000 -2.000000 0.753772
v 0.500000 1.806986 0.735136
v -0.500000 1.806986 0.735136
v 0.500000 -2.000000 2.813465
v 0.500000 -2.000000 -3.186535
v 8.500000 -2.000000 2.813465
v 8.500000 -2.000000 -3.186535
vt 0.375000 0.250000
vt 0.625000 0.250000
vt 0.625000 0.250000
vt 0.375000 0.500000
vt 0.625000 0.500000
vt 0.375000 0.500000
vt 0.625000 0.750000
vt 0.375000 1.000000
vt 0.375000 0.750000
vt 0.625000 0.750000
vt 0.625000 1.000000
vt 0.375000 1.000000
vt 0.625000 0.250000
vt 0.375000 0.250000
vt 0.625000 0.250000
vt 0.375000 0.500000
vt 0.375000 0.500000
vt 0.625000 0.500000
vt 0.375000 1.000000
vt 0.625000 0.750000
vt 0.375000 0.750000
vt 0.625000 0.750000
vt 0.375000 1.000000
vt 0.625000 1.000000
vt 0.625000 1.000000
vt 0.625000 1.000000
vt 0.625000 0.500000
vt 0.375000 0.750000
vt 0.375000 0.750000
vt 0.625000 0.500000
vt 0.375000 0.250000
vt 0.375000 0.250000
vt 0.611912 0.000000
vt 0.375000 0.250000
vt 0.375000 0.000000
vt 0.375000 0.468750
vt 0.611912 0.500000
vt 0.375000 0.500000
vt 0.375000 0.750000
vt 0.375000 0.969221
vt 0.611383 0.997988
vt 0.375000 1.000000
vt 0.611867 0.283108
vt 0.612824 0.935796
vt 0.612103 0.966892
vt 0.875000 0.500000
vt 0.844221 0.750000
vt 0.844221 0.500000
vt 0.750000 0.500000
vt 0.687500 0.750000
vt 0.687500 0.500000
vt 0.613076 0.375010
vt 0.612351 0.314204
vt 0.656250 0.750000
vt 0.656250 0.500000
vt 0.612834 0.434873
vt 0.613075 0.874990
vt 0.612366 0.815127
vt 0.612373 0.467437
vt 0.611878 0.783565
vt 0.813443 0.500000
vt 0.750000 0.750000
vt 0.625000 0.250000
vt 0.611383 0.252012
vt 0.625000 0.468750
vt 0.625000 0.750000
vt 0.611389 0.752002
vt 0.625000 0.969221
vt 0.625000 0.311557
vt 0.625000 0.375000
vt 0.625000 0.812500
vt 0.625000 0.875000
vt 0.625000 0.437500
vt 0.625000 0.781250
vt 0.625000 0.938443
vt 0.625000 0.280779
vt 0.625000 0.500000
vt 0.375000 0.781250
vt 0.625000 1.000000
vt 0.375000 0.280779
vt 0.813443 0.750000
vt 0.125000 0.750000
vt 0.375000 0.500000
vt 0.125000 0.500000
vt 0.875000 0.750000
vt 0.625000 0.000000
vt 0.155779 0.500000
vt 0.375000 0.750000
vn -1.0000 0.0000 -0.0000
vn 0.0000 0.0000 -1.0000
vn 1.0000 0.0000 0.0000
vn 0.0000 0.0000 1.0000
vn 0.9999 0.0000 -0.0100
vn -0.9999 0.0000 -0.0101
vn -0.9999 0.0000 0.0123
vn 0.9999 0.0000 0.0122
vn 0.0000 -1.0000 0.0000
vn 0.0000 1.0000 0.0000
vn 0.0000 0.0042 1.0000
vn 0.0000 0.0042 -1.0000
vn 0.0000 -0.8461 -0.5330
vn 0.0000 0.8461 0.5330
vn -0.0000 0.9811 -0.1936
vn -0.0000 -0.9805 -0.1966
vn 0.0000 0.8474 -0.5310
vn 0.0000 -0.9811 0.1936
vn 0.0000 -0.8474 0.5310
vn 0.0000 0.9805 0.1966
vn 0.0000 -0.0767 0.9971
vn 0.0000 -0.0763 -0.9971
vn 0.0000 -0.0049 1.0000
vn 0.0000 -0.0049 -1.0000
usemtl None
s off
f 3/1/1 14/2/1 4/3/1
f 4/3/2 7/4/2 3/1/2
f 8/5/3 9/6/3 7/4/3
f 6/7/4 1/8/4 5/9/4
f 5/9/3 12/10/3 6/7/3
f 2/11/1 15/12/1 1/8/1
f 19/13/5 22/14/5 21/15/5
f 23/16/4 21/15/4 22/14/4
f 26/17/6 24/18/6 23/16/6
f 17/19/2 27/20/2 28/21/2
f 29/22/7 28/21/7 27/20/7
f 31/23/8 18/24/8 17/19/8
f 32/25/2 15/12/2 16/26/2
f 9/6/9 23/16/9 7/4/9
f 7/4/9 22/14/9 3/1/9
f 15/12/9 17/19/9 1/8/9
f 24/18/10 10/27/10 8/5/10
f 21/15/10 8/5/10 4/3/10
f 18/24/10 16/26/10 2/11/10
f 30/28/2 12/10/2 11/29/2
f 12/10/10 27/20/10 6/7/10
f 25/30/4 9/6/4 10/27/4
f 28/21/9 11/29/9 5/9/9
f 14/2/10 21/15/10 4/3/10
f 1/8/9 28/21/9 5/9/9
f 20/31/4 14/2/4 13/32/4
f 22/14/9 13/32/9 3/1/9
f 27/20/10 2/11/10 6/7/10
f 47/33/11 35/34/11 33/35/11
f 59/36/1 40/37/1 39/38/1
f 40/37/12 37/39/12 39/38/12
f 66/40/3 47/41/3 33/42/3
f 68/43/13 45/44/13 67/45/13
f 48/46/14 64/47/14 65/48/14
f 54/49/15 55/50/15 49/51/15
f 41/52/16 45/44/16 46/53/16
f 49/51/17 60/54/17 57/55/17
f 43/56/18 42/57/18 41/52/18
f 44/58/19 61/59/19 62/60/19
f 53/61/20 56/62/20 54/49/20
f 47/33/21 48/63/21 36/64/21
f 43/56/1 57/65/1 61/59/1
f 40/37/22 51/66/22 38/67/22
f 45/44/3 64/68/3 67/45/3
f 41/52/1 53/69/1 54/70/1
f 42/57/3 55/71/3 56/72/3
f 41/52/1 49/73/1 43/56/1
f 62/60/3 51/66/3 60/74/3
f 42/57/3 52/75/3 45/44/3
f 68/43/1 48/63/1 65/76/1
f 44/58/3 60/74/3 55/71/3
f 61/59/1 50/77/1 40/37/1
f 57/55/17 51/66/17 50/77/17
f 38/67/3 58/78/3 37/39/3
f 62/60/23 59/36/23 58/78/23
f 46/53/1 65/76/1 53/69/1
f 67/45/3 34/79/3 47/41/3
f 36/64/1 63/80/1 35/34/1
f 65/48/14 52/81/14 53/61/14
f 66/40/24 68/43/24 67/45/24
f 69/82/10 72/83/10 70/84/10
f 59/36/10 66/40/10 58/78/10
f 3/1/1 13/32/1 14/2/1
f 4/3/2 8/5/2 7/4/2
f 8/5/3 10/27/3 9/6/3
f 6/7/4 2/11/4 1/8/4
f 5/9/3 11/29/3 12/10/3
f 2/11/1 16/26/1 15/12/1
f 19/13/5 20/31/5 22/14/5
f 23/16/4 24/18/4 21/15/4
f 26/17/6 25/30/6 24/18/6
f 17/19/2 18/24/2 27/20/2
f 29/22/7 30/28/7 28/21/7
f 31/23/8 32/25/8 18/24/8
f 32/25/2 31/23/2 15/12/2
f 9/6/9 26/17/9 23/16/9
f 7/4/9 23/16/9 22/14/9
f 15/12/9 31/23/9 17/19/9
f 24/18/10 25/30/10 10/27/10
f 21/15/10 24/18/10 8/5/10
f 18/24/10 32/25/10 16/26/10
f 30/28/2 29/22/2 12/10/2
f 12/10/10 29/22/10 27/20/10
f 25/30/4 26/17/4 9/6/4
f 28/21/9 30/28/9 11/29/9
f 14/2/10 19/13/10 21/15/10
f 1/8/9 17/19/9 28/21/9
f 20/31/4 19/13/4 14/2/4
f 22/14/9 20/31/9 13/32/9
f 27/20/10 18/24/10 2/11/10
f 47/33/11 36/64/11 35/34/11
f 59/36/1 61/59/1 40/37/1
f 40/37/12 38/67/12 37/39/12
f 66/40/3 67/45/3 47/41/3
f 68/43/13 46/53/13 45/44/13
f 48/46/14 34/85/14 64/47/14
f 54/49/15 56/62/15 55/50/15
f 41/52/16 42/57/16 45/44/16
f 49/51/17 55/50/17 60/54/17
f 43/56/18 44/58/18 42/57/18
f 44/58/19 43/56/19 61/59/19
f 53/61/20 52/81/20 56/62/20
f 47/33/21 34/86/21 48/63/21
f 43/56/1 49/73/1 57/65/1
f 40/37/22 50/77/22 51/66/22
f 45/44/3 52/75/3 64/68/3
f 41/52/1 46/53/1 53/69/1
f 42/57/3 44/58/3 55/71/3
f 41/52/1 54/70/1 49/73/1
f 62/60/3 38/67/3 51/66/3
f 42/57/3 56/72/3 52/75/3
f 68/43/1 36/64/1 48/63/1
f 44/58/3 62/60/3 60/74/3
f 61/59/1 57/65/1 50/77/1
f 57/55/17 60/54/17 51/66/17
f 38/67/3 62/60/3 58/78/3
f 62/60/23 61/59/23 59/36/23
f 46/53/1 68/43/1 65/76/1
f 67/45/3 64/68/3 34/79/3
f 36/64/1 68/43/1 63/80/1
f 65/48/14 64/47/14 52/81/14
f 66/40/24 63/87/24 68/43/24
f 69/82/10 71/88/10 72/83/10
f 59/36/10 63/87/10 66/40/10
