# Blender v2.80 (sub 75) OBJ File: 'Guest Room.blend'
# www.blender.org
mtllib Guest Room.mtl
o Guest_Room.001_Cube.000
v -5.000000 -2.000000 6.000000
v -5.000000 2.000000 6.000000
v -5.000000 -2.000000 -6.000000
v -5.000000 2.000000 -6.000000
v 5.000000 -2.000000 6.000000
v 5.000000 2.000000 6.000000
v 5.000000 2.000000 -6.000000
v -5.000002 -2.000000 1.059883
v -4.813307 -2.000000 5.775968
v -4.813307 2.000000 5.775968
v -4.813307 2.000000 -5.775968
v -4.813307 -2.000000 -5.775968
v 4.813307 -2.000000 -5.775968
v 4.813307 2.000000 -5.775968
v 4.813307 2.000000 5.775968
v 4.813307 -2.000000 5.775968
v -4.735977 -2.000000 1.059882
v -4.735977 2.000000 1.059882
v -4.735977 -2.000000 -0.940117
v -4.735977 2.000000 -0.940117
v 5.000000 -2.000000 -6.000000
v -5.000002 2.000000 1.059883
v -6.000003 -2.000000 1.059883
v -6.000003 1.790588 1.059883
v -5.000002 -2.000000 -0.940118
v -5.000002 1.790588 -0.940118
v -6.000003 -2.000000 -0.940118
v -6.000003 1.790588 -0.940118
v -6.000003 2.061248 0.059799
v -5.000002 2.061248 0.059799
v -6.000003 1.966729 -0.419103
v -5.000002 1.966729 -0.419103
v -5.000002 1.963687 0.546253
v -6.000003 1.963687 0.546253
v -5.000002 1.790588 1.059883
v -6.000003 2.000000 1.059883
v -6.000003 2.313313 -0.440117
v -6.000003 2.000000 -0.940118
v -5.000002 2.000000 -0.940118
v -5.000002 2.310205 0.567426
v -6.000003 2.310205 0.567426
v -6.000003 2.411996 0.059882
v -5.000002 2.313313 -0.440117
v -5.000002 2.411996 0.059882
v -6.000003 2.156657 -0.690118
v -5.000002 -2.000000 -0.690118
v -6.000003 -2.000000 -0.690118
v -5.000002 2.156657 -0.690118
v -6.000003 1.808507 -0.671601
v -5.000002 1.808507 -0.671601
v -6.000003 -2.000000 0.813654
v -5.000002 2.155103 0.813654
v -6.000003 2.155103 0.813654
v -5.000002 -2.000000 0.813654
v -5.000002 1.806986 0.795018
v -6.000003 1.806986 0.795018
vt 0.171862 0.796157
vt 0.115330 0.852689
vt 0.115330 0.796157
vt 0.171862 0.796157
vt 0.171862 0.909221
vt 0.115330 0.965753
vt 0.115330 0.909221
vt 0.171862 0.852689
vt 0.171862 0.965753
vt 0.115330 0.965753
vt 0.582858 0.850476
vt 0.615567 0.817766
vt 0.582858 0.817766
vt 0.615567 0.817766
vt 0.582858 0.915895
vt 0.615567 0.883186
vt 0.582858 0.883186
vt 0.615567 0.850476
vt 0.582858 0.915895
vt 0.615567 0.915895
vt 0.115330 0.965753
vt 0.582858 0.817766
vt 0.615567 0.817766
vt 0.582858 0.817766
vt 0.171862 0.796157
vt 0.171862 0.852689
vt 0.171862 0.909221
vt 0.171862 0.965753
vt 0.171862 0.965753
vt 0.115330 0.796157
vt 0.115330 0.796157
vt 0.615567 0.915895
vt 0.582858 0.915895
vt 0.615567 0.915895
vt 0.115330 0.852689
vt 0.115330 0.909221
vt 0.370543 0.895106
vt 0.439496 0.826153
vt 0.370543 0.826153
vt 0.344438 0.869496
vt 0.322663 0.892474
vt 0.322663 0.869496
vt 0.322663 0.912580
vt 0.344438 0.915453
vt 0.322663 0.915453
vt 0.322663 0.938431
vt 0.322663 0.958580
vt 0.344390 0.961224
vt 0.322663 0.961409
vt 0.344434 0.895517
vt 0.344522 0.955508
vt 0.344456 0.958366
vt 0.368620 0.915453
vt 0.365791 0.938431
vt 0.365791 0.915453
vt 0.357130 0.915453
vt 0.351386 0.938431
vt 0.351386 0.915453
vt 0.344545 0.903964
vt 0.344479 0.898375
vt 0.348513 0.938431
vt 0.348513 0.915453
vt 0.344523 0.909467
vt 0.344545 0.949919
vt 0.344480 0.944417
vt 0.344481 0.912460
vt 0.344435 0.941516
vt 0.362962 0.915453
vt 0.357130 0.938431
vt 0.345641 0.892474
vt 0.344390 0.892659
vt 0.345641 0.912580
vt 0.345641 0.938431
vt 0.344390 0.938615
vt 0.345641 0.958580
vt 0.345641 0.898132
vt 0.345641 0.903963
vt 0.345641 0.944176
vt 0.345641 0.949920
vt 0.345641 0.909708
vt 0.345641 0.941303
vt 0.345641 0.955751
vt 0.345641 0.895303
vt 0.345641 0.915453
vt 0.322663 0.941303
vt 0.345641 0.961409
vt 0.322663 0.895303
vt 0.362962 0.938431
vt 0.383235 0.817311
vt 0.383235 0.930700
vt 0.383235 0.888112
vt 0.171862 0.965753
vt 0.115330 0.796157
vt 0.115330 0.965753
vt 0.171862 0.796157
vt 0.439496 0.895106
vt 0.368620 0.938431
vt 0.345641 0.869496
vt 0.302513 0.915453
vt 0.333567 0.824391
vn 0.0000 0.0000 -1.0000
vn -1.0000 0.0000 -0.0000
vn 0.0000 0.0000 1.0000
vn 1.0000 0.0000 0.0000
vn 0.9999 0.0000 -0.0160
vn 0.9999 0.0000 0.0164
vn 0.0000 -1.0000 0.0000
vn 0.0000 1.0000 0.0000
vn 0.0000 -0.8461 -0.5330
vn 0.0000 0.8461 0.5330
vn 0.0000 0.9811 -0.1936
vn 0.0000 -0.9805 -0.1966
vn 0.0000 0.8474 -0.5310
vn 0.0000 -0.9811 0.1936
vn 0.0000 -0.8474 0.5310
vn 0.0000 0.9805 0.1966
vn 0.0000 -0.0049 1.0000
vn 0.0000 -0.0049 -1.0000
usemtl Material
s off
f 4/1/1 21/2/1 3/3/1
f 3/3/2 39/4/2 4/1/2
f 6/5/3 1/6/3 5/7/3
f 7/8/4 5/7/4 21/2/4
f 2/9/2 8/10/2 1/6/2
f 13/11/3 11/12/3 12/13/3
f 20/14/5 12/13/5 11/12/5
f 9/15/1 15/16/1 16/17/1
f 16/17/2 14/18/2 13/11/2
f 17/19/6 10/20/6 9/15/6
f 9/21/7 5/7/7 1/6/7
f 19/22/3 39/23/3 25/24/3
f 11/25/8 7/8/8 4/1/8
f 14/26/8 6/5/8 7/8/8
f 15/27/8 2/9/8 6/5/8
f 10/28/8 22/29/8 2/9/8
f 12/30/7 25/31/7 3/3/7
f 18/32/1 8/33/1 22/34/1
f 8/10/7 9/21/7 1/6/7
f 39/4/8 11/25/8 4/1/8
f 13/35/7 3/3/7 21/2/7
f 16/36/7 21/2/7 5/7/7
f 1/37/8 21/38/8 3/39/8
f 35/40/3 23/41/3 8/42/3
f 47/43/2 28/44/2 27/45/2
f 28/44/1 25/46/1 27/45/1
f 54/47/4 35/48/4 8/49/4
f 56/50/9 33/51/9 55/52/9
f 36/53/10 52/54/10 53/55/10
f 42/56/11 43/57/11 37/58/11
f 29/59/12 33/51/12 34/60/12
f 37/58/13 48/61/13 45/62/13
f 31/63/14 30/64/14 29/59/14
f 32/65/15 49/66/15 50/67/15
f 41/68/16 44/69/16 42/56/16
f 35/40/3 36/70/3 24/71/3
f 31/63/2 45/72/2 49/66/2
f 28/44/1 39/73/1 26/74/1
f 33/51/4 52/75/4 55/52/4
f 29/59/2 41/76/2 42/77/2
f 30/64/4 43/78/4 44/79/4
f 29/59/2 37/80/2 31/63/2
f 50/67/4 39/73/4 48/81/4
f 30/64/4 40/82/4 33/51/4
f 56/50/2 36/70/2 53/83/2
f 32/65/4 48/81/4 43/78/4
f 49/66/2 38/84/2 28/44/2
f 45/62/13 39/73/13 38/84/13
f 26/74/4 46/85/4 25/46/4
f 50/67/17 47/43/17 46/85/17
f 34/60/2 53/83/2 41/76/2
f 55/52/4 22/86/4 35/48/4
f 24/71/2 51/87/2 23/41/2
f 53/55/10 40/88/10 41/68/10
f 54/47/18 56/50/18 55/52/18
f 47/89/8 54/90/8 46/91/8
f 4/1/1 7/8/1 21/2/1
f 3/3/2 25/31/2 39/4/2
f 6/5/3 2/9/3 1/6/3
f 7/8/4 6/5/4 5/7/4
f 2/9/2 22/29/2 8/10/2
f 13/11/3 14/18/3 11/12/3
f 20/14/5 19/22/5 12/13/5
f 9/15/1 10/20/1 15/16/1
f 16/17/2 15/16/2 14/18/2
f 17/19/6 18/32/6 10/20/6
f 9/21/7 16/36/7 5/7/7
f 19/22/3 20/14/3 39/23/3
f 11/25/8 14/26/8 7/8/8
f 14/26/8 15/27/8 6/5/8
f 15/27/8 10/28/8 2/9/8
f 10/28/8 18/92/8 22/29/8
f 12/30/7 19/93/7 25/31/7
f 18/32/1 17/19/1 8/33/1
f 8/10/7 17/94/7 9/21/7
f 39/4/8 20/95/8 11/25/8
f 13/35/7 12/30/7 3/3/7
f 16/36/7 13/35/7 21/2/7
f 1/37/8 5/96/8 21/38/8
f 35/40/3 24/71/3 23/41/3
f 47/43/2 49/66/2 28/44/2
f 28/44/1 26/74/1 25/46/1
f 54/47/4 55/52/4 35/48/4
f 56/50/9 34/60/9 33/51/9
f 36/53/10 22/97/10 52/54/10
f 42/56/11 44/69/11 43/57/11
f 29/59/12 30/64/12 33/51/12
f 37/58/13 43/57/13 48/61/13
f 31/63/14 32/65/14 30/64/14
f 32/65/15 31/63/15 49/66/15
f 41/68/16 40/88/16 44/69/16
f 35/40/3 22/98/3 36/70/3
f 31/63/2 37/80/2 45/72/2
f 28/44/1 38/84/1 39/73/1
f 33/51/4 40/82/4 52/75/4
f 29/59/2 34/60/2 41/76/2
f 30/64/4 32/65/4 43/78/4
f 29/59/2 42/77/2 37/80/2
f 50/67/4 26/74/4 39/73/4
f 30/64/4 44/79/4 40/82/4
f 56/50/2 24/71/2 36/70/2
f 32/65/4 50/67/4 48/81/4
f 49/66/2 45/72/2 38/84/2
f 45/62/13 48/61/13 39/73/13
f 26/74/4 50/67/4 46/85/4
f 50/67/17 49/66/17 47/43/17
f 34/60/2 56/50/2 53/83/2
f 55/52/4 52/75/4 22/86/4
f 24/71/2 56/50/2 51/87/2
f 53/55/10 52/54/10 40/88/10
f 54/47/18 51/99/18 56/50/18
f 47/89/8 51/100/8 54/90/8
