# Blender v2.80 (sub 75) OBJ File: 'Hallway 3.blend'
# www.blender.org
mtllib Hallway 3.mtl
o Hallway_3_Cube.024
v -1.000000 -2.000000 1.982260
v -1.000000 2.000000 1.982260
v -1.000000 -2.000000 -2.017740
v -1.000000 2.000000 -2.017740
v 14.781281 -2.000000 -2.017740
v 14.781281 2.000000 -2.017740
v -1.000000 -2.000000 0.977123
v -1.000000 2.000000 0.977123
v -1.000000 -2.000000 -1.022877
v -1.000000 2.000000 -1.022877
v 14.781280 -2.000000 1.869267
v 14.781280 2.000000 1.869267
v 13.776142 -2.000000 1.869267
v 13.776142 2.000000 1.869267
v 11.776141 -2.000000 1.869267
v 11.776141 2.000000 1.869267
v 10.781280 2.000000 1.869267
v 10.781280 -2.000000 1.869267
v 10.781276 2.000000 -2.017740
v 10.781276 -2.000000 -2.017740
vt 0.625000 1.000000
vt 0.375000 1.000000
vt 0.375000 1.000000
vt 0.625000 0.396744
vt 0.375000 0.500000
vt 0.375000 0.396744
vt 0.625000 0.250000
vt 0.375000 0.250000
vt 0.625000 0.853256
vt 0.375000 0.853256
vt 0.271744 0.750000
vt 0.271744 0.500000
vt 0.625000 0.250000
vt 0.625000 1.000000
vt 0.375000 1.000000
vt 0.375000 1.000000
vt 0.125000 0.500000
vt 0.125000 0.750000
vt 0.375000 0.250000
vt 0.625000 0.250000
vt 0.625000 0.250000
vt 0.625000 0.500000
vt 0.375000 0.750000
vt 0.625000 1.000000
vt 0.375000 0.250000
vt 0.625000 1.000000
vt 0.375000 0.250000
vt 0.625000 0.750000
vn -1.0000 0.0000 0.0000
vn 0.0000 0.0000 -1.0000
vn 0.0096 0.0000 1.0000
vn 0.0000 -1.0000 0.0000
vn 0.0000 0.0000 1.0000
vn 1.0000 0.0000 0.0000
usemtl None
s off
f 2/1/1 7/2/1 1/3/1
f 19/4/2 5/5/2 20/6/2
f 4/7/2 20/6/2 3/8/2
f 17/9/3 1/3/3 18/10/3
f 5/5/4 18/11/4 20/12/4
f 3/8/1 10/13/1 4/7/1
f 12/14/5 13/15/5 11/16/5
f 3/17/4 18/11/4 1/18/4
f 18/19/5 16/20/5 17/21/5
f 6/22/6 11/23/6 5/5/6
f 2/1/1 8/24/1 7/2/1
f 19/4/2 6/22/2 5/5/2
f 4/7/2 19/4/2 20/6/2
f 17/9/3 2/1/3 1/3/3
f 5/5/4 11/23/4 18/11/4
f 3/8/1 9/25/1 10/13/1
f 12/14/5 14/26/5 13/15/5
f 3/17/4 20/12/4 18/11/4
f 18/19/5 15/27/5 16/20/5
f 6/22/6 12/28/6 11/23/6
