# Blender v2.80 (sub 75) OBJ File: 'Hallway 5.blend'
# www.blender.org
mtllib Hallway 5.mtl
o Cube_Cube.047
v -2.000000 -2.000000 31.463402
v -2.000000 2.000000 31.463402
v -2.000000 -2.000000 -1.000000
v -2.000000 2.000000 -1.000000
v 2.000000 -2.000000 31.463402
v 2.000000 2.000000 31.463402
v 2.000000 -2.000000 -1.000000
v 2.000000 2.000000 -1.000000
v 2.000000 -2.000000 27.463402
v 2.000000 2.000000 27.463402
v 16.341099 -2.000000 31.463402
v 16.341099 2.000000 31.463402
v 16.341099 -2.000000 27.463402
v 16.341099 2.000000 27.463402
v 12.341099 -2.000000 46.093903
v 12.341099 2.000000 46.093903
v 12.341099 2.000000 31.463402
v 16.341099 -2.000000 46.093903
v 16.341099 2.000000 46.093903
v 16.341099 -2.000000 42.093903
v 16.341099 2.000000 42.093903
v 33.951321 -2.000000 46.093903
v 33.951321 2.000000 46.093903
v 33.951321 -2.000000 42.093903
v 33.951321 2.000000 42.093903
v 16.341099 -2.000000 34.528866
v 16.341099 2.000000 34.528866
v 32.899296 -2.000000 38.528866
v 32.899296 2.000000 38.528866
v 32.899296 -2.000000 34.528866
v 32.899296 2.000000 34.528866
v -2.000000 -2.000000 27.463400
v -2.000000 2.000000 27.463400
v 12.341099 2.000000 27.463402
v 12.341099 -2.000000 27.463402
v 12.341099 -2.000000 31.463402
v 12.341099 -2.000000 42.093903
v 12.341099 2.000000 42.093903
v 12.341099 -2.000000 38.528866
v 12.341099 2.000000 38.528866
v 16.341099 -2.000000 38.528866
v 16.341099 2.000000 38.528866
v 12.341099 2.000000 34.528866
v 12.341099 -2.000000 34.528866
v 33.951321 -2.000000 43.082333
v 33.951321 2.000000 43.082333
v 33.951321 -2.000000 45.082333
v 33.951321 2.000000 45.082333
v 1.013340 -2.000000 -1.000000
v 1.013340 2.000000 -1.000000
v -0.986660 -2.000000 -1.000000
v -0.986660 2.000000 -1.000000
v 2.000000 -1.999998 5.885880
v 2.000000 2.000002 5.885880
v 2.000000 -1.999998 1.885880
v 2.000000 2.000002 1.885880
v 9.732517 -1.999998 5.885880
v 9.732517 2.000002 5.885880
v 9.732517 -1.999998 1.885880
v 9.732517 2.000002 1.885880
v 9.732517 -1.999998 4.856690
v 9.732517 2.000002 4.856690
v 9.732517 -1.999998 2.856690
v 9.732517 2.000002 2.856690
v -2.000000 2.000000 1.885879
v -2.000000 -2.000000 1.885879
v -2.000000 -2.000000 5.885878
v 2.000000 2.000002 19.013910
v -2.000000 2.000000 5.885878
v 8.732515 -1.999998 19.013910
v 8.732515 2.000002 19.013910
v 8.732515 -1.999998 15.013911
v 8.732515 2.000002 15.013911
v 8.732515 -1.999998 17.984722
v 8.732515 2.000002 17.984722
v 8.732515 -1.999998 15.984722
v 8.732515 2.000002 15.984722
v -2.000000 -2.000000 19.013908
v -2.000000 2.000000 19.013908
v 2.000000 -1.999999 19.013910
v -2.000000 2.000000 15.013909
v 2.000000 -1.999999 15.013911
v -2.000000 -2.000000 15.013909
v 2.000000 2.000001 15.013911
v -12.554047 2.000002 15.013908
v -12.554047 -1.999997 20.542728
v -12.554047 2.000002 20.542728
v -8.554047 -1.999997 20.542728
v -8.554047 2.000002 20.542728
v -11.524858 -1.999997 20.542728
v -11.524858 2.000002 20.542728
v -9.524858 -1.999997 20.542728
v -9.524858 2.000002 20.542728
v -12.554047 -1.999998 15.013908
v -8.554047 -2.000000 15.013909
v -8.554047 -2.000000 19.013908
v -8.554047 2.000000 19.013908
v -8.554047 2.000000 15.013909
vt 0.625000 0.231035
vt 0.375000 0.250000
vt 0.375000 0.231035
vt 0.625000 0.750000
vt 0.375000 1.000000
vt 0.375000 0.750000
vt 0.375000 0.716014
vt 0.125000 0.750000
vt 0.125000 0.716014
vt 0.625000 0.419308
vt 0.375000 0.500000
vt 0.375000 0.419308
vt 0.625000 0.500000
vt 0.375000 0.750000
vt 0.625000 0.830692
vt 0.375000 1.000000
vt 0.375000 0.830692
vt 0.294308 0.750000
vt 0.294308 0.500000
vt 0.625000 0.235120
vt 0.375000 0.250000
vt 0.375000 0.235120
vt 0.125000 0.750000
vt 0.125000 0.500000
vt 0.625000 0.750000
vt 0.375000 1.000000
vt 0.375000 0.750000
vt 0.375000 0.547311
vt 0.125000 0.750000
vt 0.125000 0.547311
vt 0.625000 0.250000
vt 0.375000 0.500000
vt 0.375000 0.250000
vt 0.625000 0.750000
vt 0.375000 1.000000
vt 0.375000 0.750000
vt 0.125000 0.750000
vt 0.125000 0.500000
vt 0.625000 0.250000
vt 0.375000 0.500000
vt 0.375000 0.250000
vt 0.625000 0.750000
vt 0.375000 1.000000
vt 0.375000 0.750000
vt 0.125000 0.750000
vt 0.125000 0.500000
vt 0.375000 0.662815
vt 0.125000 0.662815
vt 0.625000 0.662815
vt 0.625000 0.000000
vt 0.375000 0.033986
vt 0.375000 0.000000
vt 0.625000 0.250000
vt 0.375000 0.250000
vt 0.375000 0.529761
vt 0.125000 0.529761
vt 0.625000 0.529761
vt 0.625000 0.000000
vt 0.375000 0.202689
vt 0.375000 0.000000
vt 0.375000 0.514880
vt 0.125000 0.514880
vt 0.625000 0.202689
vt 0.375000 0.220239
vt 0.375000 0.500000
vt 0.125000 0.500000
vt 0.625000 0.500000
vt 0.625000 0.220239
vt 0.625000 0.500000
vt 0.375000 0.500000
vt 0.625000 0.750000
vt 0.375000 0.500000
vt 0.625000 0.500000
vt 0.625000 0.500000
vt 0.625000 0.250000
vt 0.375000 0.250000
vt 0.625000 0.250000
vt 0.375000 0.500000
vt 0.375000 0.250000
vt 0.375000 0.750000
vt 0.625000 0.750000
vt 0.625000 0.750000
vt 0.375000 1.000000
vt 0.125000 0.750000
vt 0.125000 0.500000
vt 0.625000 0.250000
vt 0.375000 0.500000
vt 0.375000 0.250000
vt 0.625000 0.500000
vt 0.375000 0.500000
vt 0.375000 0.518965
vt 0.125000 0.518965
vt 0.125000 0.500000
vt 0.625000 0.178340
vt 0.375000 0.178340
vt 0.625000 0.132763
vt 0.375000 0.132763
vt 0.375000 0.750000
vt 0.625000 0.750000
vt 0.625000 0.750000
vt 0.125000 0.571660
vt 0.625000 1.000000
vt 0.375000 1.000000
vt 0.125000 0.750000
vt 0.125000 0.500000
vt 0.625000 0.500000
vt 0.375000 0.500000
vt 0.625000 0.033986
vt 0.375000 0.087185
vt 0.375000 0.617237
vt 0.125000 0.617237
vt 0.375000 0.571660
vt 0.625000 0.571660
vt 0.125000 0.617237
vt 0.625000 0.087185
vt 0.375000 0.500000
vt 0.375000 0.087185
vt 0.375000 0.750000
vt 0.625000 0.750000
vt 0.625000 0.750000
vt 0.375000 1.000000
vt 0.125000 0.500000
vt 0.125000 0.750000
vt 0.625000 0.500000
vt 0.375000 0.500000
vt 0.625000 0.132763
vt 0.625000 0.087185
vt 0.625000 0.250000
vt 0.375000 0.250000
vt 0.625000 1.000000
vt 0.625000 0.750000
vt 0.625000 1.000000
vt 0.625000 0.250000
vt 0.625000 1.000000
vt 0.625000 1.000000
vt 0.625000 0.500000
vt 0.625000 1.000000
vt 0.625000 0.716014
vt 0.625000 0.547311
vt 0.625000 0.514880
vt 0.625000 0.500000
vt 0.375000 0.750000
vt 0.375000 0.500000
vt 0.625000 0.250000
vt 0.375000 0.750000
vt 0.625000 1.000000
vt 0.625000 0.500000
vt 0.625000 0.518965
vt 0.375000 0.750000
vt 0.625000 0.500000
vt 0.625000 0.617237
vt 0.125000 0.662815
vt 0.375000 0.750000
vt 0.625000 1.000000
vt 0.625000 0.500000
vt 0.375000 0.132763
vn -1.0000 0.0000 0.0000
vn 0.0000 0.0000 1.0000
vn 0.0000 -1.0000 0.0000
vn 0.0000 0.0000 -1.0000
vn 1.0000 0.0000 0.0000
usemtl None
s off
f 65/1/1 3/2/1 66/3/1
f 6/4/2 1/5/2 5/6/2
f 9/7/3 1/8/3 32/9/3
f 34/10/4 13/11/4 35/12/4
f 14/13/5 11/14/5 13/11/5
f 17/15/2 5/16/2 36/17/2
f 13/11/3 36/18/3 35/19/3
f 43/20/1 36/21/1 44/22/1
f 35/19/3 5/23/3 9/24/3
f 19/25/2 15/26/2 18/27/2
f 20/28/3 15/29/3 37/30/3
f 21/31/4 24/32/4 20/33/4
f 23/34/2 18/35/2 22/36/2
f 24/32/3 18/37/3 20/38/3
f 27/39/4 30/40/4 26/41/4
f 29/42/2 41/43/2 28/44/2
f 30/40/3 41/45/3 26/46/3
f 80/47/3 32/9/3 78/48/3
f 68/49/5 9/7/5 80/47/5
f 2/50/1 32/51/1 1/52/1
f 10/53/4 35/12/4 9/54/4
f 41/55/3 37/30/3 39/56/3
f 42/57/5 20/28/5 41/55/5
f 16/58/1 37/59/1 15/60/1
f 26/61/3 39/56/3 44/62/3
f 38/63/1 39/64/1 37/59/1
f 11/65/3 44/62/3 36/66/3
f 12/67/5 26/61/5 11/65/5
f 40/68/1 44/22/1 39/64/1
f 25/69/5 45/70/5 24/32/5
f 22/36/5 48/71/5 23/34/5
f 7/72/4 50/73/4 8/74/4
f 4/75/4 51/76/4 3/2/4
f 56/77/4 59/78/4 55/79/4
f 57/80/5 62/81/5 58/82/5
f 58/82/2 53/83/2 57/80/2
f 59/78/3 53/84/3 55/85/3
f 84/86/4 72/87/4 82/88/4
f 60/89/5 63/90/5 59/78/5
f 8/74/5 55/91/5 7/72/5
f 7/72/3 66/92/3 3/93/3
f 69/94/1 66/3/1 67/95/1
f 81/96/1 67/95/1 83/97/1
f 70/98/5 75/99/5 71/100/5
f 55/91/3 67/101/3 66/92/3
f 70/98/2 68/102/2 80/103/2
f 72/87/3 80/104/3 82/105/3
f 73/106/5 76/107/5 72/87/5
f 33/108/1 78/109/1 32/51/1
f 82/110/3 78/48/3 83/111/3
f 53/112/3 83/111/3 67/101/3
f 54/113/5 82/110/5 53/112/5
f 78/48/3 95/114/3 83/111/3
f 97/115/5 88/116/5 96/117/5
f 86/118/2 91/119/2 87/120/2
f 87/120/1 94/121/1 86/118/1
f 95/122/3 86/118/3 94/123/3
f 89/124/2 92/125/2 88/116/2
f 83/97/4 98/126/4 81/96/4
f 79/127/2 96/117/2 78/109/2
f 94/121/4 98/128/4 95/129/4
f 65/1/1 4/75/1 3/2/1
f 6/4/2 2/130/2 1/5/2
f 9/7/3 5/6/3 1/8/3
f 34/10/4 14/13/4 13/11/4
f 14/13/5 12/131/5 11/14/5
f 17/15/2 6/132/2 5/16/2
f 13/11/3 11/14/3 36/18/3
f 43/20/1 17/133/1 36/21/1
f 35/19/3 36/18/3 5/23/3
f 19/25/2 16/134/2 15/26/2
f 20/28/3 18/27/3 15/29/3
f 21/31/4 25/69/4 24/32/4
f 23/34/2 19/135/2 18/35/2
f 24/32/3 22/36/3 18/37/3
f 27/39/4 31/136/4 30/40/4
f 29/42/2 42/137/2 41/43/2
f 30/40/3 28/44/3 41/45/3
f 80/47/3 9/7/3 32/9/3
f 68/49/5 10/138/5 9/7/5
f 2/50/1 33/108/1 32/51/1
f 10/53/4 34/10/4 35/12/4
f 41/55/3 20/28/3 37/30/3
f 42/57/5 21/139/5 20/28/5
f 16/58/1 38/63/1 37/59/1
f 26/61/3 41/55/3 39/56/3
f 38/63/1 40/68/1 39/64/1
f 11/65/3 26/61/3 44/62/3
f 12/67/5 27/140/5 26/61/5
f 40/68/1 43/20/1 44/22/1
f 25/69/5 46/141/5 45/70/5
f 22/36/5 47/142/5 48/71/5
f 7/72/4 49/143/4 50/73/4
f 4/75/4 52/144/4 51/76/4
f 56/77/4 60/89/4 59/78/4
f 57/80/5 61/145/5 62/81/5
f 58/82/2 54/146/2 53/83/2
f 59/78/3 57/80/3 53/84/3
f 84/86/4 73/106/4 72/87/4
f 60/89/5 64/147/5 63/90/5
f 8/74/5 56/148/5 55/91/5
f 7/72/3 55/91/3 66/92/3
f 69/94/1 65/1/1 66/3/1
f 81/96/1 69/94/1 67/95/1
f 70/98/5 74/149/5 75/99/5
f 55/91/3 53/112/3 67/101/3
f 70/98/2 71/100/2 68/102/2
f 72/87/3 70/98/3 80/104/3
f 73/106/5 77/150/5 76/107/5
f 33/108/1 79/127/1 78/109/1
f 82/110/3 80/47/3 78/48/3
f 53/112/3 82/110/3 83/111/3
f 54/113/5 84/151/5 82/110/5
f 78/48/3 96/152/3 95/114/3
f 97/115/5 89/124/5 88/116/5
f 86/118/2 90/153/2 91/119/2
f 87/120/1 85/154/1 94/121/1
f 95/122/3 88/116/3 86/118/3
f 89/124/2 93/155/2 92/125/2
f 83/97/4 95/156/4 98/126/4
f 79/127/2 97/115/2 96/117/2
f 94/121/4 85/154/4 98/128/4
