# Blender v2.80 (sub 75) OBJ File: 'Hallway 4.blend'
# www.blender.org
mtllib Hallway 4.mtl
o Hallway_4.001_Cube.000
v 0.999999 -2.000000 -1.982261
v 0.999999 2.000000 -1.982261
v 1.000001 -2.000000 2.017739
v 1.000001 2.000000 2.017739
v -3.799152 -2.000000 2.017742
v 1.000000 -2.000000 -0.977123
v 1.000000 2.000000 -0.977123
v 1.000000 -2.000000 1.022877
v 1.000000 2.000000 1.022877
v -3.799154 -2.000000 -11.375108
v -3.799154 2.000000 -11.375108
v 0.200847 -2.000000 -11.375109
v 0.200847 2.000000 -11.375109
v -3.799151 -2.000000 -1.982258
v -3.799151 2.000000 -1.982258
v -2.794016 -2.000000 -11.375108
v -2.794016 2.000000 -11.375108
v -0.794015 -2.000000 -11.375109
v -0.794015 2.000000 -11.375109
v 0.200852 2.000000 -1.982259
v 0.200852 -2.000000 -1.982259
v 0.200853 2.000000 2.017741
v 0.200853 -2.000000 2.017741
v -12.684629 2.000000 2.017742
v -12.684629 -2.000000 2.017742
v -12.684631 2.000000 -1.982258
v -12.684631 -2.000000 -1.982258
v -12.684630 2.000000 1.022916
v -12.684630 -2.000000 -0.977083
v -12.684630 2.000000 -0.977083
v -12.684630 -2.000000 1.022916
v 0.936878 -2.000000 -1.856017
v 0.936878 2.000000 -1.856017
v 0.910732 -2.000000 -0.977123
v 0.910732 2.000000 -0.977123
v 0.936879 2.000000 1.891496
v 0.936879 -2.000000 1.891496
v 0.200853 -2.000000 1.839206
v 0.137730 -2.000000 -1.856015
v 0.137725 -2.000000 -11.248865
v 0.137730 2.000000 -1.856015
v 0.910733 2.000000 1.022877
v 0.910733 -2.000000 1.022877
v 0.137725 2.000000 -11.248865
v 0.200853 2.000000 1.839206
v -3.736032 -2.000000 -11.248864
v -3.736032 2.000000 -11.248864
v -2.794016 -2.000000 -11.196572
v -2.794016 2.000000 -11.196572
v -3.736030 2.000000 -1.856014
v -3.736030 -2.000000 -1.856014
v -0.794015 2.000000 -11.196573
v -0.794015 -2.000000 -11.196573
v -3.799152 -2.000000 1.839207
v -12.621508 2.000000 1.891499
v -12.621508 -2.000000 1.891499
v -12.621510 2.000000 -1.856014
v -12.621510 -2.000000 -1.856014
v -12.595363 2.000000 1.022916
v -12.595363 -2.000000 1.022916
v -12.595363 2.000000 -0.977083
v -12.595363 -2.000000 -0.977083
v 0.999999 -2.000000 -1.982261
v 1.000001 -2.000000 2.017739
v -3.799152 -2.000000 2.017742
v -3.799154 -2.000000 -11.375108
v 0.200847 -2.000000 -11.375109
v -3.799151 -2.000000 -1.982258
v 0.200852 -2.000000 -1.982259
v 0.200853 -2.000000 2.017741
v -12.684629 -2.000000 2.017742
v -12.684631 -2.000000 -1.982258
v -12.684630 2.000000 1.022916
v -13.684630 -2.000000 1.022917
v -13.684630 1.790588 1.022916
v -12.684630 -2.000000 -0.977083
v -12.684630 1.790588 -0.977083
v -13.684630 -2.000000 -0.977083
v -13.684630 1.790588 -0.977083
v -13.684630 2.061248 0.022834
v -12.684630 2.061248 0.022833
v -13.684630 1.966729 -0.456069
v -12.684630 1.966729 -0.456069
v -12.684630 1.963687 0.509287
v -13.684630 1.963687 0.509287
v -12.684630 1.790588 1.022916
v -13.684630 2.000000 1.022917
v -13.684630 2.313313 -0.477083
v -13.684630 2.000000 -0.977083
v -12.684630 2.000000 -0.977083
v -12.684630 2.310205 0.530460
v -13.684630 2.310205 0.530460
v -13.684630 2.411996 0.022917
v -12.684630 2.313313 -0.477083
v -12.684630 2.411996 0.022917
v -13.684630 2.156657 -0.727083
v -12.684630 -2.000000 -0.727083
v -13.684630 -2.000000 -0.727083
v -12.684630 2.156657 -0.727083
v -13.684630 1.808507 -0.708567
v -12.684630 1.808507 -0.708567
v -13.684630 -2.000000 0.776689
v -12.684630 2.155103 0.776688
v -13.684630 2.155103 0.776689
v -12.684630 -2.000000 0.776688
v -12.684630 1.806986 0.758052
v -13.684630 1.806986 0.758052
v -12.684630 -2.000000 1.022916
vt 0.625000 1.000000
vt 0.375000 1.000000
vt 0.375000 1.000000
vt 0.625000 0.250000
vt 0.375000 0.396744
vt 0.375000 0.250000
vt 0.625000 0.853256
vt 0.375000 0.853256
vt 0.625000 0.250000
vt 0.625000 1.000000
vt 0.375000 1.000000
vt 0.375000 1.000000
vt 0.625000 0.250000
vt 0.375000 0.500000
vt 0.375000 0.250000
vt 0.625000 0.750000
vt 0.375000 0.750000
vt 0.625000 0.250000
vt 0.625000 0.750000
vt 0.375000 0.750000
vt 0.625000 0.750000
vt 0.625000 0.500000
vt 0.375000 0.500000
vt 0.375000 0.500000
vt 0.375000 0.500000
vt 0.625000 0.396744
vt 0.375000 1.000000
vt 0.625000 1.000000
vt 0.375000 1.000000
vt 0.375000 0.396744
vt 0.625000 0.250000
vt 0.375000 0.250000
vt 0.625000 0.853256
vt 0.375000 0.853256
vt 0.625000 0.250000
vt 0.375000 1.000000
vt 0.625000 1.000000
vt 0.375000 1.000000
vt 0.375000 0.500000
vt 0.625000 0.250000
vt 0.375000 0.250000
vt 0.625000 0.750000
vt 0.375000 0.750000
vt 0.625000 0.250000
vt 0.625000 0.750000
vt 0.625000 0.750000
vt 0.375000 0.750000
vt 0.375000 0.500000
vt 0.625000 0.500000
vt 0.375000 0.500000
vt 0.625000 0.396744
vt 0.375000 0.500000
vt 0.625000 1.000000
vt 0.625000 1.000000
vt 0.625000 1.000000
vt 0.625000 1.000000
vt 0.625000 0.500000
vt 0.625000 0.500000
vt 0.375000 0.250000
vt 0.375000 0.250000
vt 0.375000 0.750000
vt 0.375000 0.750000
vt 0.375000 0.250000
vt 0.375000 0.250000
vt 0.625000 0.500000
vt 0.271744 0.500000
vt 0.375000 0.750000
vt 0.375000 0.500000
vt 0.125000 0.500000
vt 0.375000 0.500000
vt 0.611912 0.000000
vt 0.375000 0.250000
vt 0.375000 0.000000
vt 0.375000 0.468750
vt 0.611912 0.500000
vt 0.375000 0.500000
vt 0.375000 0.750000
vt 0.375000 0.969221
vt 0.611383 0.997988
vt 0.375000 1.000000
vt 0.611867 0.283108
vt 0.612824 0.935796
vt 0.612103 0.966892
vt 0.875000 0.500000
vt 0.844221 0.750000
vt 0.844221 0.500000
vt 0.750000 0.500000
vt 0.687500 0.750000
vt 0.687500 0.500000
vt 0.613076 0.375010
vt 0.612351 0.314204
vt 0.656250 0.750000
vt 0.656250 0.500000
vt 0.612834 0.434873
vt 0.613075 0.874990
vt 0.612366 0.815127
vt 0.612373 0.467437
vt 0.611878 0.783565
vt 0.813443 0.500000
vt 0.750000 0.750000
vt 0.625000 0.250000
vt 0.611383 0.252012
vt 0.625000 0.468750
vt 0.625000 0.750000
vt 0.611389 0.752002
vt 0.625000 0.969221
vt 0.625000 0.311557
vt 0.625000 0.375000
vt 0.625000 0.812500
vt 0.625000 0.875000
vt 0.625000 0.437500
vt 0.625000 0.781250
vt 0.625000 0.938443
vt 0.625000 0.280779
vt 0.625000 0.500000
vt 0.375000 0.781250
vt 0.625000 1.000000
vt 0.375000 0.280779
vt 0.813443 0.750000
vt 0.000000 0.000000
vt 0.000000 0.000000
vt 0.125000 0.500000
vt 0.271744 0.750000
vt 0.375000 0.750000
vt 0.625000 0.500000
vt 0.125000 0.750000
vt 0.875000 0.750000
vt 0.625000 0.000000
vt 0.155779 0.500000
vt 0.125000 0.750000
vt 0.375000 0.500000
vn 1.0000 0.0000 -0.0000
vn 0.0000 0.0000 1.0000
vn -0.0000 0.0000 -1.0000
vn -1.0000 0.0000 0.0000
vn -0.9996 0.0000 -0.0297
vn 0.0709 0.0000 -0.9975
vn -0.9995 0.0000 0.0301
vn -0.0554 0.0000 0.9985
vn 0.0560 0.0000 0.9984
vn 0.9996 0.0000 -0.0297
vn 0.9995 0.0000 0.0301
vn 0.0000 1.0000 0.0000
vn 0.0000 -1.0000 0.0000
vn -0.0000 -0.8461 -0.5330
vn 0.0000 0.8461 0.5330
vn -0.0000 0.9811 -0.1936
vn -0.0000 -0.9805 -0.1966
vn -0.0000 0.8474 -0.5310
vn 0.0000 -0.9811 0.1936
vn 0.0000 -0.8474 0.5310
vn 0.0000 0.9805 0.1966
vn 0.0000 -0.0049 1.0000
vn -0.0000 -0.0049 -1.0000
vn -0.0059 0.0000 -1.0000
vn -0.0041 0.0041 -1.0000
usemtl None
s off
f 2/1/1 6/2/1 1/3/1
f 4/4/2 23/5/2 3/6/2
f 20/7/3 1/3/3 21/8/3
f 3/6/1 9/9/1 4/4/1
f 11/10/3 16/11/3 10/12/3
f 13/13/1 21/14/1 12/15/1
f 15/16/4 10/12/4 14/17/4
f 12/15/3 19/18/3 13/13/3
f 14/17/3 26/19/3 15/16/3
f 27/20/4 30/21/4 26/19/4
f 24/22/4 31/23/4 25/24/4
f 5/25/2 23/5/2 22/26/2
f 34/27/5 33/28/5 32/29/5
f 38/30/6 36/31/6 37/32/6
f 32/29/2 41/33/2 39/34/2
f 42/35/7 37/32/7 36/31/7
f 48/36/8 47/37/8 46/38/8
f 39/39/4 44/40/4 40/41/4
f 46/38/1 50/42/1 51/43/1
f 52/44/9 40/41/9 44/40/9
f 57/45/2 51/43/2 50/42/2
f 61/46/10 58/47/10 57/45/10
f 60/48/11 55/49/11 56/50/11
f 45/51/3 38/30/3 54/52/3
f 22/26/12 55/49/12 24/22/12
f 36/31/12 22/26/12 4/4/12
f 54/52/13 23/5/13 5/25/13
f 35/53/2 6/2/2 7/54/2
f 49/55/1 16/11/1 17/56/1
f 23/5/13 37/32/13 3/6/13
f 55/49/12 28/57/12 24/22/12
f 21/14/13 40/41/13 12/15/13
f 14/17/13 58/47/13 27/20/13
f 46/38/13 14/17/13 10/12/13
f 20/7/12 33/28/12 2/1/12
f 57/45/12 15/16/12 26/19/12
f 15/16/12 47/37/12 11/10/12
f 6/2/13 32/29/13 1/3/13
f 31/23/13 56/50/13 25/24/13
f 16/11/13 46/38/13 10/12/13
f 33/28/12 7/54/12 2/1/12
f 59/58/3 31/23/3 28/57/3
f 47/37/12 17/56/12 11/10/12
f 43/59/3 9/9/3 8/60/3
f 62/61/2 30/21/2 29/62/2
f 53/63/4 19/18/4 18/64/4
f 9/9/12 36/31/12 4/4/12
f 30/21/12 57/45/12 26/19/12
f 19/18/12 44/40/12 13/13/12
f 37/32/13 8/60/13 3/6/13
f 58/47/13 29/62/13 27/20/13
f 40/41/13 18/64/13 12/15/13
f 44/40/12 20/65/12 13/13/12
f 56/50/13 5/25/13 25/24/13
f 32/29/13 21/8/13 1/3/13
f 70/66/12 68/67/12 65/68/12
f 67/69/12 68/67/12 69/70/12
f 86/71/2 74/72/2 108/73/2
f 98/74/4 79/75/4 78/76/4
f 79/75/3 76/77/3 78/76/3
f 105/78/1 86/79/1 108/80/1
f 107/81/14 84/82/14 106/83/14
f 87/84/15 103/85/15 104/86/15
f 93/87/16 94/88/16 88/89/16
f 80/90/17 84/82/17 85/91/17
f 88/89/18 99/92/18 96/93/18
f 82/94/19 81/95/19 80/90/19
f 83/96/20 100/97/20 101/98/20
f 92/99/21 95/100/21 93/87/21
f 86/71/2 87/101/2 75/102/2
f 82/94/4 96/103/4 100/97/4
f 79/75/3 90/104/3 77/105/3
f 84/82/1 103/106/1 106/83/1
f 80/90/4 92/107/4 93/108/4
f 81/95/1 94/109/1 95/110/1
f 80/90/4 88/111/4 82/94/4
f 101/98/1 90/104/1 99/112/1
f 81/95/1 91/113/1 84/82/1
f 107/81/4 87/101/4 104/114/4
f 83/96/1 99/112/1 94/109/1
f 100/97/4 89/115/4 79/75/4
f 96/93/18 90/104/18 89/115/18
f 77/105/1 97/116/1 76/77/1
f 101/98/22 98/74/22 97/116/22
f 85/91/4 104/114/4 92/107/4
f 106/83/1 73/117/1 86/79/1
f 75/102/4 102/118/4 74/72/4
f 104/86/15 91/119/15 92/99/15
f 105/78/23 107/81/23 106/83/23
f 98/120/12 105/78/12 76/121/12
f 64/122/12 69/123/12 70/66/12
f 72/124/12 65/68/12 68/67/12
f 2/1/1 7/54/1 6/2/1
f 4/4/2 22/26/2 23/5/2
f 20/7/3 2/1/3 1/3/3
f 3/6/1 8/60/1 9/9/1
f 11/10/3 17/56/3 16/11/3
f 13/13/1 20/65/1 21/14/1
f 15/16/4 11/10/4 10/12/4
f 12/15/3 18/64/3 19/18/3
f 14/17/3 27/20/3 26/19/3
f 27/20/4 29/62/4 30/21/4
f 24/22/4 28/57/4 31/23/4
f 22/26/2 24/22/2 5/25/2
f 24/22/2 25/24/2 5/25/2
f 34/27/5 35/53/5 33/28/5
f 38/30/6 45/51/6 36/31/6
f 32/29/2 33/28/2 41/33/2
f 42/35/7 43/59/7 37/32/7
f 48/36/8 49/55/8 47/37/8
f 39/39/4 41/125/4 44/40/4
f 46/38/1 47/37/1 50/42/1
f 52/44/9 53/63/9 40/41/9
f 57/45/2 58/47/2 51/43/2
f 61/46/10 62/61/10 58/47/10
f 60/48/11 59/58/11 55/49/11
f 56/50/24 55/49/24 54/52/24
f 55/49/25 45/51/25 54/52/25
f 22/26/12 45/51/12 55/49/12
f 36/31/12 45/51/12 22/26/12
f 54/52/13 38/30/13 23/5/13
f 35/53/2 34/27/2 6/2/2
f 49/55/1 48/36/1 16/11/1
f 23/5/13 38/30/13 37/32/13
f 55/49/12 59/58/12 28/57/12
f 21/14/13 39/39/13 40/41/13
f 14/17/13 51/43/13 58/47/13
f 46/38/13 51/43/13 14/17/13
f 20/7/12 41/33/12 33/28/12
f 57/45/12 50/42/12 15/16/12
f 15/16/12 50/42/12 47/37/12
f 6/2/13 34/27/13 32/29/13
f 31/23/13 60/48/13 56/50/13
f 16/11/13 48/36/13 46/38/13
f 33/28/12 35/53/12 7/54/12
f 59/58/3 60/48/3 31/23/3
f 47/37/12 49/55/12 17/56/12
f 43/59/3 42/35/3 9/9/3
f 62/61/2 61/46/2 30/21/2
f 53/63/4 52/44/4 19/18/4
f 9/9/12 42/35/12 36/31/12
f 30/21/12 61/46/12 57/45/12
f 19/18/12 52/44/12 44/40/12
f 37/32/13 43/59/13 8/60/13
f 58/47/13 62/61/13 29/62/13
f 40/41/13 53/63/13 18/64/13
f 44/40/12 41/125/12 20/65/12
f 56/50/13 54/52/13 5/25/13
f 32/29/13 39/34/13 21/8/13
f 70/66/12 69/123/12 68/67/12
f 67/69/12 66/126/12 68/67/12
f 86/71/2 75/102/2 74/72/2
f 98/74/4 100/97/4 79/75/4
f 79/75/3 77/105/3 76/77/3
f 105/78/1 106/83/1 86/79/1
f 107/81/14 85/91/14 84/82/14
f 87/84/15 73/127/15 103/85/15
f 93/87/16 95/100/16 94/88/16
f 80/90/17 81/95/17 84/82/17
f 88/89/18 94/88/18 99/92/18
f 82/94/19 83/96/19 81/95/19
f 83/96/20 82/94/20 100/97/20
f 92/99/21 91/119/21 95/100/21
f 86/71/2 73/128/2 87/101/2
f 82/94/4 88/111/4 96/103/4
f 79/75/3 89/115/3 90/104/3
f 84/82/1 91/113/1 103/106/1
f 80/90/4 85/91/4 92/107/4
f 81/95/1 83/96/1 94/109/1
f 80/90/4 93/108/4 88/111/4
f 101/98/1 77/105/1 90/104/1
f 81/95/1 95/110/1 91/113/1
f 107/81/4 75/102/4 87/101/4
f 83/96/1 101/98/1 99/112/1
f 100/97/4 96/103/4 89/115/4
f 96/93/18 99/92/18 90/104/18
f 77/105/1 101/98/1 97/116/1
f 101/98/22 100/97/22 98/74/22
f 85/91/4 107/81/4 104/114/4
f 106/83/1 103/106/1 73/117/1
f 75/102/4 107/81/4 102/118/4
f 104/86/15 103/85/15 91/119/15
f 105/78/23 102/129/23 107/81/23
f 98/120/12 102/129/12 105/78/12
f 64/122/12 63/130/12 69/123/12
f 72/124/12 71/131/12 65/68/12
