# Blender v2.80 (sub 75) OBJ File: 'Hallway 6.blend'
# www.blender.org
mtllib Hallway 6.mtl
o Hallway_8_Cube.046
v 1.111960 2.000000 -2.272747
v -2.367295 -2.000000 -2.272745
v -2.367295 2.000000 -2.272745
v -2.367294 -2.000000 1.727255
v -2.367294 2.000000 1.727255
v 5.111959 -2.000000 -4.542987
v 5.111959 2.000000 -4.542987
v 5.111962 -2.000000 1.727252
v 5.111962 2.000000 1.727252
v 1.111959 -2.000000 -4.542986
v 1.111959 2.000000 -4.542986
v 1.111962 -2.000000 1.727254
v 1.111962 2.000000 1.727254
v 2.087083 -2.000000 -4.542986
v 2.087083 2.000000 -4.542986
v 4.087083 -2.000000 -4.542987
v 4.087083 2.000000 -4.542987
v 5.111960 -2.000000 -2.272748
v 5.111960 2.000000 -2.272748
v 1.111960 -2.000000 -2.272747
v -2.367294 -2.000000 0.741009
v -2.367294 2.000000 0.741009
v -2.367295 -2.000000 -1.258990
v -2.367295 2.000000 -1.258990
v 5.111962 2.000000 8.792716
v 5.111962 -2.000000 8.792716
v 1.111962 -2.000000 8.792718
v 1.111962 2.000000 8.792718
v 1.111963 -2.000002 4.792716
v 1.111963 1.999998 4.792716
v 5.111963 -2.000002 4.792715
v 5.111963 1.999998 4.792715
v -2.279409 2.000000 1.551485
v -2.279409 -2.000000 1.551485
v -2.279410 2.000000 -2.096975
v -2.279410 -2.000000 -2.096975
v 1.199845 2.000000 -2.096977
v 4.987672 -2.000000 -2.272748
v 5.024074 -2.000000 -4.367218
v 5.024074 2.000000 -4.367218
v 4.987672 2.000000 -2.272748
v 4.987674 2.000000 1.727252
v 4.987674 -2.000000 1.727252
v 1.199847 2.000000 1.551484
v 1.199847 -2.000000 1.551484
v 1.199844 2.000000 -4.367217
v 1.199844 -2.000000 -4.367217
v 2.087083 2.000000 -4.294410
v 2.087083 -2.000000 -4.294410
v 4.087083 -2.000000 -4.294411
v 4.087083 2.000000 -4.294411
v 1.199845 -2.000000 -2.096977
v -2.243006 2.000000 0.741009
v -2.243006 -2.000000 0.741009
v -2.243007 2.000000 -1.258990
v -2.243007 -2.000000 -1.258990
v 5.024077 2.000000 8.616946
v 5.024077 -2.000000 8.616946
v 1.111962 -2.000000 8.544142
v 1.111962 2.000000 8.544142
v 1.236251 1.999998 4.792716
v 4.987675 -2.000002 4.792715
v 4.987675 1.999998 4.792715
v 1.236251 -2.000002 4.792716
v -2.367295 -2.000000 -2.272745
v -2.367294 -2.000000 1.727255
v 5.111959 -2.000000 -4.542987
v 5.111962 -2.000000 1.727252
v 1.111959 -2.000000 -4.542986
v 1.111962 -2.000000 1.727254
v 5.111960 -2.000000 -2.272748
v 1.111960 -2.000000 -2.272747
v 5.111962 -2.000000 8.792716
v 1.111962 -2.000000 8.792718
v 1.111963 -2.000002 4.792716
v 5.111963 -2.000002 4.792715
vt 0.625000 0.250000
vt 0.375000 0.500000
vt 0.375000 0.250000
vt 0.625000 0.750000
vt 0.375000 1.000000
vt 0.375000 0.750000
vt 0.625000 0.125000
vt 0.375000 0.250000
vt 0.375000 0.125000
vt 0.625000 0.625000
vt 0.375000 0.750000
vt 0.375000 0.625000
vt 0.625000 0.750000
vt 0.375000 0.750000
vt 0.375000 0.000000
vt 0.625000 0.000000
vt 0.625000 0.000000
vt 0.625000 0.500000
vt 0.375000 0.500000
vt 0.625000 0.750000
vt 0.625000 0.250000
vt 0.375000 0.500000
vt 0.375000 0.250000
vt 0.625000 0.250000
vt 0.375000 0.250000
vt 0.625000 0.250000
vt 0.375000 0.500000
vt 0.625000 0.250000
vt 0.375000 0.250000
vt 0.375000 1.000000
vt 0.625000 0.750000
vt 0.375000 0.750000
vt 0.375000 0.250000
vt 0.625000 0.125000
vt 0.375000 0.125000
vt 0.375000 0.750000
vt 0.625000 0.625000
vt 0.375000 0.625000
vt 0.375000 0.750000
vt 0.625000 0.750000
vt 0.625000 0.000000
vt 0.375000 0.000000
vt 0.625000 0.000000
vt 0.375000 0.500000
vt 0.625000 0.500000
vt 0.625000 0.750000
vt 0.375000 0.500000
vt 0.625000 0.250000
vt 0.375000 0.250000
vt 0.625000 0.250000
vt 0.375000 0.250000
vt 0.625000 0.250000
vt 0.625000 0.250000
vt 0.625000 1.000000
vt 0.625000 0.250000
vt 0.625000 0.500000
vt 0.625000 0.500000
vt 0.625000 0.500000
vt 0.625000 0.500000
vt 0.375000 0.750000
vt 0.375000 0.750000
vt 0.625000 0.750000
vt 0.625000 0.750000
vt 0.375000 0.250000
vt 0.375000 0.250000
vt 0.375000 0.000000
vt 0.375000 0.000000
vt 0.125000 0.750000
vt 0.375000 0.500000
vt 0.125000 0.500000
vt 0.125000 0.750000
vt 0.375000 0.625000
vt 0.125000 0.625000
vt 0.375000 0.500000
vt 0.125000 0.500000
vt 0.375000 0.500000
vt 0.125000 0.500000
vt 0.125000 0.500000
vt 0.625000 1.000000
vt 0.375000 0.750000
vt 0.375000 0.750000
vt 0.375000 0.500000
vn 0.0000 0.0000 1.0000
vn -0.0000 0.0000 -1.0000
vn 1.0000 0.0000 -0.0000
vn -1.0000 0.0000 0.0000
vn -0.0818 0.0000 0.9967
vn 0.0775 0.0000 0.9970
vn -0.9998 0.0000 -0.0174
vn 0.9990 0.0000 0.0449
vn 0.9991 0.0000 -0.0434
vn 0.0186 0.0000 -0.9998
vn -1.0000 0.0000 0.0095
vn 0.9999 0.0000 -0.0112
vn 0.0000 -1.0000 0.0000
vn 0.0000 1.0000 0.0000
usemtl None
s off
f 13/1/1 4/2/1 12/3/1
f 3/4/2 20/5/2 2/6/2
f 19/7/3 8/8/3 18/9/3
f 1/10/4 10/11/4 20/12/4
f 11/13/2 14/14/2 10/11/2
f 6/15/2 17/16/2 7/17/2
f 7/17/3 18/9/3 6/15/3
f 5/18/4 21/19/4 4/2/4
f 2/6/4 24/20/4 3/4/4
f 25/21/1 27/22/1 26/23/1
f 32/24/3 26/23/3 31/25/3
f 8/8/3 32/24/3 31/25/3
f 12/3/4 30/26/4 13/1/4
f 34/27/2 44/28/2 45/29/2
f 52/30/1 35/31/1 36/32/1
f 43/33/4 41/34/4 38/35/4
f 47/36/3 37/37/3 52/38/3
f 49/39/5 46/40/5 47/36/5
f 51/41/6 39/42/6 40/43/6
f 38/35/7 40/43/7 39/42/7
f 54/44/8 33/45/8 34/27/8
f 55/46/9 36/32/9 35/31/9
f 59/47/10 57/48/10 58/49/10
f 58/49/11 63/50/11 62/51/11
f 43/33/4 63/50/4 42/52/4
f 61/53/12 45/29/12 44/28/12
f 43/33/13 18/9/13 8/8/13
f 35/31/14 1/54/14 3/4/14
f 1/10/14 46/40/14 11/13/14
f 40/43/14 19/7/14 7/17/14
f 18/9/13 39/42/13 6/15/13
f 47/36/13 20/12/13 10/11/13
f 27/22/13 58/49/13 26/23/13
f 41/34/14 9/55/14 19/7/14
f 57/48/14 28/56/14 25/21/14
f 53/57/2 21/19/2 22/58/2
f 60/59/4 27/22/4 28/56/4
f 21/19/13 34/27/13 4/2/13
f 61/53/14 13/1/14 30/26/14
f 33/45/14 22/58/14 5/18/14
f 58/49/13 31/25/13 26/23/13
f 56/60/1 24/20/1 23/61/1
f 48/62/3 14/14/3 15/63/3
f 9/55/14 63/50/14 32/24/14
f 24/20/14 35/31/14 3/4/14
f 14/14/13 47/36/13 10/11/13
f 12/3/13 64/64/13 29/65/13
f 36/32/13 23/61/13 2/6/13
f 46/40/14 15/63/14 11/13/14
f 62/51/13 8/8/13 31/25/13
f 50/66/4 17/16/4 16/67/4
f 32/24/14 57/48/14 25/21/14
f 34/27/13 12/3/13 4/2/13
f 17/16/14 40/43/14 7/17/14
f 13/1/14 33/45/14 5/18/14
f 39/42/13 16/67/13 6/15/13
f 64/64/1 30/26/1 29/65/1
f 20/5/13 36/32/13 2/6/13
f 72/68/14 66/69/14 70/70/14
f 67/71/14 72/72/14 71/73/14
f 71/73/14 70/74/14 68/75/14
f 75/76/14 73/77/14 76/78/14
f 75/76/14 68/75/14 70/74/14
f 13/1/1 5/18/1 4/2/1
f 3/4/2 1/54/2 20/5/2
f 19/7/3 9/55/3 8/8/3
f 1/10/4 11/13/4 10/11/4
f 11/13/2 15/63/2 14/14/2
f 6/15/2 16/67/2 17/16/2
f 7/17/3 19/7/3 18/9/3
f 5/18/4 22/58/4 21/19/4
f 2/6/4 23/61/4 24/20/4
f 25/21/1 28/56/1 27/22/1
f 32/24/3 25/21/3 26/23/3
f 8/8/3 9/55/3 32/24/3
f 12/3/4 29/65/4 30/26/4
f 34/27/2 33/45/2 44/28/2
f 52/30/1 37/79/1 35/31/1
f 43/33/4 42/52/4 41/34/4
f 47/36/3 46/40/3 37/37/3
f 49/39/5 48/62/5 46/40/5
f 51/41/6 50/66/6 39/42/6
f 38/35/7 41/34/7 40/43/7
f 54/44/8 53/57/8 33/45/8
f 55/46/9 56/60/9 36/32/9
f 59/47/10 60/59/10 57/48/10
f 58/49/11 57/48/11 63/50/11
f 43/33/4 62/51/4 63/50/4
f 61/53/12 64/64/12 45/29/12
f 43/33/13 38/35/13 18/9/13
f 35/31/14 37/79/14 1/54/14
f 1/10/14 37/37/14 46/40/14
f 40/43/14 41/34/14 19/7/14
f 18/9/13 38/35/13 39/42/13
f 47/36/13 52/38/13 20/12/13
f 27/22/13 59/47/13 58/49/13
f 41/34/14 42/52/14 9/55/14
f 57/48/14 60/59/14 28/56/14
f 53/57/2 54/44/2 21/19/2
f 60/59/4 59/47/4 27/22/4
f 21/19/13 54/44/13 34/27/13
f 61/53/14 44/28/14 13/1/14
f 33/45/14 53/57/14 22/58/14
f 58/49/13 62/51/13 31/25/13
f 56/60/1 55/46/1 24/20/1
f 48/62/3 49/39/3 14/14/3
f 9/55/14 42/52/14 63/50/14
f 24/20/14 55/46/14 35/31/14
f 14/14/13 49/39/13 47/36/13
f 12/3/13 45/29/13 64/64/13
f 36/32/13 56/60/13 23/61/13
f 46/40/14 48/62/14 15/63/14
f 62/51/13 43/33/13 8/8/13
f 50/66/4 51/41/4 17/16/4
f 32/24/14 63/50/14 57/48/14
f 34/27/13 45/29/13 12/3/13
f 17/16/14 51/41/14 40/43/14
f 13/1/14 44/28/14 33/45/14
f 39/42/13 50/66/13 16/67/13
f 64/64/1 61/53/1 30/26/1
f 20/5/13 52/30/13 36/32/13
f 72/68/14 65/80/14 66/69/14
f 67/71/14 69/81/14 72/72/14
f 71/73/14 72/72/14 70/74/14
f 75/76/14 74/82/14 73/77/14
f 75/76/14 76/78/14 68/75/14
