# Blender v2.80 (sub 75) OBJ File: 'Hallway 6.blend'
# www.blender.org
mtllib Hallway 6.mtl
o Hallway_8_Cube.046
v 1.111960 2.000000 -2.272747
v -2.367295 -2.000000 -2.272745
v -2.367295 2.000000 -2.272745
v -2.367294 -2.000000 1.727255
v -2.367294 2.000000 1.727255
v 5.111959 -2.000000 -4.542987
v 5.111959 2.000000 -4.542987
v 5.111962 -2.000000 1.727252
v 5.111962 2.000000 1.727252
v 1.111959 -2.000000 -4.542986
v 1.111959 2.000000 -4.542986
v 1.111962 -2.000000 1.727254
v 1.111962 2.000000 1.727254
v 2.087083 -2.000000 -4.542986
v 2.087083 2.000000 -4.542986
v 4.087083 -2.000000 -4.542987
v 4.087083 2.000000 -4.542987
v 5.111960 -2.000000 -2.272748
v 5.111960 2.000000 -2.272748
v 1.111960 -2.000000 -2.272747
v -2.367294 -2.000000 0.741009
v -2.367294 2.000000 0.741009
v -2.367295 -2.000000 -1.258990
v -2.367295 2.000000 -1.258990
v 5.111962 2.000000 8.792716
v 5.111962 -2.000000 8.792716
v 1.111962 -2.000000 8.792718
v 1.111962 2.000000 8.792718
v 1.111963 -2.000002 4.792716
v 1.111963 1.999998 4.792716
v 5.111963 -2.000002 4.792715
v 5.111963 1.999998 4.792715
vt 0.625000 0.250000
vt 0.375000 0.500000
vt 0.375000 0.250000
vt 0.625000 0.750000
vt 0.375000 1.000000
vt 0.375000 0.750000
vt 0.125000 0.750000
vt 0.125000 0.500000
vt 0.625000 0.125000
vt 0.375000 0.250000
vt 0.375000 0.125000
vt 0.625000 0.625000
vt 0.375000 0.750000
vt 0.375000 0.625000
vt 0.625000 0.750000
vt 0.375000 0.750000
vt 0.125000 0.750000
vt 0.125000 0.625000
vt 0.375000 0.000000
vt 0.625000 0.000000
vt 0.625000 0.000000
vt 0.375000 0.500000
vt 0.125000 0.500000
vt 0.625000 0.500000
vt 0.375000 0.500000
vt 0.625000 0.750000
vt 0.625000 0.250000
vt 0.375000 0.500000
vt 0.375000 0.250000
vt 0.375000 0.500000
vt 0.125000 0.500000
vt 0.625000 0.250000
vt 0.375000 0.250000
vt 0.625000 0.250000
vt 0.625000 1.000000
vt 0.625000 0.250000
vt 0.625000 0.750000
vt 0.375000 0.000000
vt 0.625000 0.500000
vt 0.375000 0.750000
vt 0.625000 0.500000
vt 0.125000 0.500000
vt 0.375000 0.250000
vn 0.0000 0.0000 1.0000
vn -0.0000 0.0000 -1.0000
vn 0.0000 -1.0000 -0.0000
vn 1.0000 0.0000 -0.0000
vn -1.0000 0.0000 0.0000
usemtl None
s off
f 13/1/1 4/2/1 12/3/1
f 3/4/2 20/5/2 2/6/2
f 4/2/3 20/7/3 12/8/3
f 19/9/4 8/10/4 18/11/4
f 1/12/5 10/13/5 20/14/5
f 11/15/2 14/16/2 10/13/2
f 20/14/3 6/17/3 18/18/3
f 6/19/2 17/20/2 7/21/2
f 12/22/3 18/18/3 8/23/3
f 7/21/4 18/11/4 6/19/4
f 5/24/5 21/25/5 4/2/5
f 2/6/5 24/26/5 3/4/5
f 25/27/1 27/28/1 26/29/1
f 29/30/3 26/31/3 27/28/3
f 32/32/4 26/29/4 31/33/4
f 8/10/4 32/32/4 31/33/4
f 8/23/3 29/30/3 12/22/3
f 12/3/5 30/34/5 13/1/5
f 13/1/1 5/24/1 4/2/1
f 3/4/2 1/35/2 20/5/2
f 4/2/3 2/6/3 20/7/3
f 19/9/4 9/36/4 8/10/4
f 1/12/5 11/15/5 10/13/5
f 11/15/2 15/37/2 14/16/2
f 20/14/3 10/13/3 6/17/3
f 6/19/2 16/38/2 17/20/2
f 12/22/3 20/14/3 18/18/3
f 7/21/4 19/9/4 18/11/4
f 5/24/5 22/39/5 21/25/5
f 2/6/5 23/40/5 24/26/5
f 25/27/1 28/41/1 27/28/1
f 29/30/3 31/42/3 26/31/3
f 32/32/4 25/27/4 26/29/4
f 8/10/4 9/36/4 32/32/4
f 8/23/3 31/42/3 29/30/3
f 12/3/5 29/43/5 30/34/5
