# Blender v2.80 (sub 75) OBJ File: 'Hallway.blend'
# www.blender.org
mtllib Hallway.mtl
o Hallway_Cube.016
v -1.000000 2.000000 2.000000
v -1.000000 -2.000000 -2.000000
v -1.000000 2.000000 -2.000000
v 16.960918 -2.000000 2.000000
v 16.960918 2.000000 2.000000
v 16.960918 2.000000 -2.000000
v -1.000000 -2.000000 0.994862
v -1.000000 2.000000 0.994862
v -1.000000 -2.000000 -1.005138
v -1.000000 2.000000 -1.005138
v 16.960918 -2.000000 -0.999424
v 16.960918 2.000000 -0.999424
v 16.960918 -2.000000 1.000577
v 16.960918 2.000000 1.000577
v -0.900541 -2.000000 1.801081
v -0.900541 2.000000 1.801081
v -0.859343 -2.000000 0.994862
v -0.859343 2.000000 0.994862
v -0.900541 2.000000 -1.801081
v -0.900541 -2.000000 -1.801081
v 16.861460 -2.000000 -1.801081
v 16.861460 2.000000 -1.801081
v 16.820261 2.000000 -0.999424
v 16.820261 -2.000000 -0.999424
v 16.861460 2.000000 1.801081
v 16.861460 -2.000000 1.801081
v -0.859343 2.000000 -1.005138
v -0.859343 -2.000000 -1.005138
v 16.820261 2.000000 1.000577
v 16.820261 -2.000000 1.000577
v -1.000000 -2.000000 2.000000
v 16.960918 -2.000000 -2.000000
vt 0.109831 0.795577
vt 0.111931 0.794664
vt 0.114446 0.793939
vt 0.109554 0.797841
vt 0.104854 0.943874
vt 0.104854 0.796718
vt 0.109554 0.942753
vt 0.107363 0.946661
vt 0.109692 0.943286
vt 0.114309 0.941647
vt 0.111235 0.794956
vt 0.114491 0.796110
vt 0.109649 0.795280
vt 0.107419 0.797839
vt 0.112209 0.942554
vt 0.109630 0.943570
vt 0.104949 0.798163
vt 0.109630 0.797021
vt 0.107829 0.945460
vt 0.104950 0.942431
vt 0.114491 0.941944
vt 0.109648 0.941114
vt 0.106470 0.798012
vt 0.112906 0.942261
vt 0.107830 0.795141
vt 0.107365 0.793939
vt 0.106473 0.942591
vt 0.107423 0.942763
vt 0.112974 0.795953
vt 0.112157 0.795788
vt 0.111163 0.941262
vt 0.111980 0.941429
vt 0.406678 0.925848
vt 0.290066 0.912863
vt 0.406678 0.912863
vt 0.290066 0.925848
vn -1.0000 0.0000 0.0000
vn 0.0000 0.0000 -1.0000
vn 1.0000 0.0000 0.0000
vn 0.0000 0.0000 1.0000
vn 0.9987 0.0000 0.0510
vn -0.9987 0.0000 -0.0513
vn 0.9987 0.0000 -0.0517
vn -0.9987 0.0000 0.0514
vn 0.0000 1.0000 0.0000
vn 0.0000 -1.0000 0.0000
usemtl Material
s off
f 1/1/1 7/2/1 31/3/1
f 3/4/2 32/5/2 2/6/2
f 6/7/3 11/8/3 32/5/3
f 5/9/4 31/3/4 4/10/4
f 17/11/5 16/12/5 15/13/5
f 2/6/1 10/14/1 3/4/1
f 4/10/3 14/15/3 5/9/3
f 21/16/4 19/17/4 20/18/4
f 24/19/6 22/20/6 21/16/6
f 15/13/2 25/21/2 26/22/2
f 27/23/7 20/18/7 19/17/7
f 29/24/8 26/22/8 25/21/8
f 28/25/4 10/14/4 9/26/4
f 10/14/9 19/17/9 3/4/9
f 23/27/4 11/8/4 12/28/4
f 20/18/10 9/26/10 2/6/10
f 18/29/2 7/2/2 8/30/2
f 11/8/10 21/16/10 32/5/10
f 15/13/10 4/10/10 31/3/10
f 22/20/9 12/28/9 6/7/9
f 5/9/9 16/12/9 1/1/9
f 32/5/10 20/18/10 2/6/10
f 30/31/2 14/15/2 13/32/2
f 7/2/10 15/13/10 31/3/10
f 19/17/9 6/7/9 3/4/9
f 14/15/9 25/21/9 5/9/9
f 16/12/9 8/30/9 1/1/9
f 26/22/10 13/32/10 4/10/10
f 31/33/9 32/34/9 2/35/9
f 1/1/1 8/30/1 7/2/1
f 3/4/2 6/7/2 32/5/2
f 6/7/3 12/28/3 11/8/3
f 5/9/4 1/1/4 31/3/4
f 17/11/5 18/29/5 16/12/5
f 2/6/1 9/26/1 10/14/1
f 4/10/3 13/32/3 14/15/3
f 21/16/4 22/20/4 19/17/4
f 24/19/6 23/27/6 22/20/6
f 15/13/2 16/12/2 25/21/2
f 27/23/7 28/25/7 20/18/7
f 29/24/8 30/31/8 26/22/8
f 28/25/4 27/23/4 10/14/4
f 10/14/9 27/23/9 19/17/9
f 23/27/4 24/19/4 11/8/4
f 20/18/10 28/25/10 9/26/10
f 18/29/2 17/11/2 7/2/2
f 11/8/10 24/19/10 21/16/10
f 15/13/10 26/22/10 4/10/10
f 22/20/9 23/27/9 12/28/9
f 5/9/9 25/21/9 16/12/9
f 32/5/10 21/16/10 20/18/10
f 30/31/2 29/24/2 14/15/2
f 7/2/10 17/11/10 15/13/10
f 19/17/9 22/20/9 6/7/9
f 14/15/9 29/24/9 25/21/9
f 16/12/9 18/29/9 8/30/9
f 26/22/10 30/31/10 13/32/10
f 31/33/9 4/36/9 32/34/9
