# Blender v2.80 (sub 75) OBJ File: 'Hallway 9.blend'
# www.blender.org
mtllib Hallway 9.mtl
o Hallway_5_Cube.029
v -5.907347 -2.000000 2.000000
v -5.907347 2.000000 2.000000
v -5.907347 -2.000000 -2.000000
v -5.907347 2.000000 -2.000000
v 16.960918 -2.000000 2.000000
v 16.960918 2.000000 2.000000
v 16.960918 -2.000000 -2.000000
v 16.960918 2.000000 -2.000000
v -5.907347 -2.000000 0.994862
v -5.907347 2.000000 0.994862
v -5.907347 -2.000000 -1.005138
v -5.907347 2.000000 -1.005138
v 16.960918 -2.000000 -0.999424
v 16.960918 2.000000 -0.999424
v 16.960918 -2.000000 1.000577
v 16.960918 2.000000 1.000577
v -0.171740 -2.000000 3.263987
v -0.171740 2.000000 3.263987
v -0.171740 -2.000000 2.000000
v 3.828260 -2.000000 3.263987
v 3.828260 2.000000 3.263987
v 3.828260 -2.000000 2.000000
v 3.828260 2.000000 2.000000
v 0.841940 -2.000000 3.263987
v 0.841940 2.000000 3.263987
v 2.841940 -2.000000 3.263987
v 2.841940 2.000000 3.263987
v -0.171740 -2.000000 -2.000000
v -0.171740 2.000000 -2.000000
v -0.171740 2.000000 2.000000
v 3.828259 2.000000 -2.000000
v 3.828259 -2.000000 -2.000000
v -5.907347 -2.000000 0.984856
v -5.907347 2.000000 0.984856
v -6.907347 -2.000000 0.984856
v -6.907347 1.790588 0.994862
v -5.907347 -2.000000 -1.015144
v -5.907347 1.790588 -1.005138
v -6.907347 -2.000000 -1.015144
v -6.907347 1.790588 -1.005138
v -6.907347 2.061248 -0.015227
v -5.907347 2.061248 -0.015227
v -6.907347 1.966729 -0.494129
v -5.907347 1.966729 -0.494130
v -5.907347 1.963687 0.471227
v -6.907347 1.963687 0.471227
v -5.907347 1.790588 0.994862
v -6.907347 2.000000 0.984856
v -6.907347 2.313313 -0.515144
v -6.907347 2.000000 -1.015144
v -5.907347 2.000000 -1.015144
v -5.907347 2.310205 0.492400
v -6.907347 2.310205 0.492400
v -6.907347 2.411996 -0.015144
v -5.907347 2.313313 -0.515144
v -5.907347 2.411996 -0.015144
v -6.907347 2.156657 -0.765144
v -5.907347 -2.000000 -0.765144
v -6.907347 -2.000000 -0.765144
v -5.907347 2.156657 -0.765144
v -6.907347 1.808507 -0.746627
v -5.907347 1.808507 -0.746627
v -6.907347 -2.000000 0.738628
v -5.907347 2.155103 0.738628
v -6.907347 2.155103 0.738628
v -5.907347 -2.000000 0.738628
v -5.907347 1.806986 0.719992
v -6.907347 1.806986 0.719992
vt 0.625000 1.000000
vt 0.375000 1.000000
vt 0.375000 1.000000
vt 0.625000 0.340693
vt 0.375000 0.500000
vt 0.375000 0.340693
vt 0.625000 0.500000
vt 0.375000 0.500000
vt 0.625000 0.959743
vt 0.375000 0.959743
vt 0.215693 0.750000
vt 0.215693 0.500000
vt 0.375000 0.250000
vt 0.625000 0.250000
vt 0.625000 0.250000
vt 0.375000 0.750000
vt 0.625000 0.750000
vt 0.625000 0.750000
vt 0.625000 0.000000
vt 0.375000 0.250000
vt 0.375000 0.000000
vt 0.625000 0.500000
vt 0.375000 0.750000
vt 0.375000 0.500000
vt 0.625000 0.750000
vt 0.375000 0.750000
vt 0.125000 0.750000
vt 0.125000 0.500000
vt 0.625000 0.000000
vt 0.165257 0.500000
vt 0.125000 0.750000
vt 0.125000 0.500000
vt 0.375000 0.290257
vt 0.375000 0.909307
vt 0.165257 0.750000
vt 0.625000 0.290257
vt 0.611912 0.000000
vt 0.375000 0.250000
vt 0.375000 0.000000
vt 0.375000 0.468750
vt 0.611912 0.500000
vt 0.375000 0.500000
vt 0.375000 0.750000
vt 0.375000 0.969221
vt 0.611383 0.997988
vt 0.375000 1.000000
vt 0.611867 0.283108
vt 0.612824 0.935796
vt 0.612103 0.966892
vt 0.875000 0.500000
vt 0.844221 0.750000
vt 0.844221 0.500000
vt 0.750000 0.500000
vt 0.687500 0.750000
vt 0.687500 0.500000
vt 0.613076 0.375010
vt 0.612351 0.314204
vt 0.656250 0.750000
vt 0.656250 0.500000
vt 0.612834 0.434873
vt 0.613075 0.874990
vt 0.612366 0.815127
vt 0.612373 0.467437
vt 0.611878 0.783565
vt 0.813443 0.500000
vt 0.750000 0.750000
vt 0.625000 0.250000
vt 0.611383 0.252012
vt 0.625000 0.468750
vt 0.625000 0.750000
vt 0.611389 0.752002
vt 0.625000 0.969221
vt 0.625000 0.311557
vt 0.625000 0.375000
vt 0.625000 0.812500
vt 0.625000 0.875000
vt 0.625000 0.437500
vt 0.625000 0.781250
vt 0.625000 0.938443
vt 0.625000 0.280779
vt 0.625000 0.500000
vt 0.375000 0.781250
vt 0.625000 1.000000
vt 0.375000 0.280779
vt 0.813443 0.750000
vt 0.625000 1.000000
vt 0.625000 0.500000
vt 0.375000 0.250000
vt 0.375000 0.750000
vt 0.625000 0.250000
vt 0.625000 0.750000
vt 0.375000 0.000000
vt 0.625000 0.909307
vt 0.875000 0.750000
vt 0.625000 0.000000
vt 0.155779 0.500000
vn -1.0000 0.0000 0.0000
vn 0.0000 0.0000 -1.0000
vn 1.0000 0.0000 0.0000
vn 0.0000 0.0000 1.0000
vn 0.0000 -1.0000 0.0000
vn 0.0000 -0.0026 1.0000
vn 0.0000 0.0026 -1.0000
vn 0.0000 -0.8461 -0.5330
vn 0.0000 0.8461 0.5330
vn 0.0000 0.9811 -0.1936
vn -0.0000 -0.9805 -0.1966
vn 0.0000 0.8474 -0.5310
vn 0.0000 -0.9811 0.1936
vn 0.0000 -0.8474 0.5310
vn 0.0000 0.9805 0.1966
vn 0.0000 0.0477 0.9989
vn 0.0000 -0.0477 -0.9989
vn 0.0000 -0.0049 1.0000
vn 0.0000 -0.0049 -1.0000
vn 0.0000 1.0000 0.0000
usemtl None
s off
f 2/1/1 9/2/1 1/3/1
f 31/4/2 7/5/2 32/6/2
f 8/7/3 13/8/3 7/5/3
f 30/9/4 1/3/4 19/10/4
f 7/5/5 22/11/5 32/12/5
f 3/13/1 12/14/1 4/15/1
f 5/16/3 16/17/3 6/18/3
f 18/19/1 19/20/1 17/21/1
f 23/22/3 20/23/3 22/24/3
f 21/25/4 26/26/4 20/23/4
f 22/24/5 17/27/5 19/28/5
f 17/21/4 25/29/4 18/19/4
f 28/30/5 1/31/5 3/32/5
f 4/15/2 28/33/2 3/13/2
f 6/18/4 22/34/4 5/16/4
f 32/12/5 19/35/5 28/30/5
f 29/36/2 32/6/2 28/33/2
f 47/37/6 35/38/6 33/39/6
f 59/40/1 40/41/1 39/42/1
f 40/41/7 37/43/7 39/42/7
f 66/44/3 47/45/3 33/46/3
f 68/47/8 45/48/8 67/49/8
f 48/50/9 64/51/9 65/52/9
f 54/53/10 55/54/10 49/55/10
f 41/56/11 45/48/11 46/57/11
f 49/55/12 60/58/12 57/59/12
f 43/60/13 42/61/13 41/56/13
f 44/62/14 61/63/14 62/64/14
f 53/65/15 56/66/15 54/53/15
f 47/37/16 48/67/16 36/68/16
f 43/60/1 57/69/1 61/63/1
f 40/41/17 51/70/17 38/71/17
f 45/48/3 64/72/3 67/49/3
f 41/56/1 53/73/1 54/74/1
f 42/61/3 55/75/3 56/76/3
f 41/56/1 49/77/1 43/60/1
f 62/64/3 51/70/3 60/78/3
f 42/61/3 52/79/3 45/48/3
f 68/47/1 48/67/1 65/80/1
f 44/62/3 60/78/3 55/75/3
f 61/63/1 50/81/1 40/41/1
f 57/59/12 51/70/12 50/81/12
f 38/71/3 58/82/3 37/43/3
f 62/64/18 59/40/18 58/82/18
f 46/57/1 65/80/1 53/73/1
f 67/49/3 34/83/3 47/45/3
f 36/68/1 63/84/1 35/38/1
f 65/52/9 52/85/9 53/65/9
f 66/44/19 68/47/19 67/49/19
f 59/40/20 66/44/20 58/82/20
f 2/1/1 10/86/1 9/2/1
f 31/4/2 8/7/2 7/5/2
f 8/7/3 14/87/3 13/8/3
f 30/9/4 2/1/4 1/3/4
f 7/5/5 5/16/5 22/11/5
f 3/13/1 11/88/1 12/14/1
f 5/16/3 15/89/3 16/17/3
f 18/19/1 30/90/1 19/20/1
f 23/22/3 21/25/3 20/23/3
f 21/25/4 27/91/4 26/26/4
f 22/24/5 20/23/5 17/27/5
f 17/21/4 24/92/4 25/29/4
f 28/30/5 19/35/5 1/31/5
f 4/15/2 29/36/2 28/33/2
f 6/18/4 23/93/4 22/34/4
f 32/12/5 22/11/5 19/35/5
f 29/36/2 31/4/2 32/6/2
f 47/37/6 36/68/6 35/38/6
f 59/40/1 61/63/1 40/41/1
f 40/41/7 38/71/7 37/43/7
f 66/44/3 67/49/3 47/45/3
f 68/47/8 46/57/8 45/48/8
f 48/50/9 34/94/9 64/51/9
f 54/53/10 56/66/10 55/54/10
f 41/56/11 42/61/11 45/48/11
f 49/55/12 55/54/12 60/58/12
f 43/60/13 44/62/13 42/61/13
f 44/62/14 43/60/14 61/63/14
f 53/65/15 52/85/15 56/66/15
f 47/37/16 34/95/16 48/67/16
f 43/60/1 49/77/1 57/69/1
f 40/41/17 50/81/17 51/70/17
f 45/48/3 52/79/3 64/72/3
f 41/56/1 46/57/1 53/73/1
f 42/61/3 44/62/3 55/75/3
f 41/56/1 54/74/1 49/77/1
f 62/64/3 38/71/3 51/70/3
f 42/61/3 56/76/3 52/79/3
f 68/47/1 36/68/1 48/67/1
f 44/62/3 62/64/3 60/78/3
f 61/63/1 57/69/1 50/81/1
f 57/59/12 60/58/12 51/70/12
f 38/71/3 62/64/3 58/82/3
f 62/64/18 61/63/18 59/40/18
f 46/57/1 68/47/1 65/80/1
f 67/49/3 64/72/3 34/83/3
f 36/68/1 68/47/1 63/84/1
f 65/52/9 64/51/9 52/85/9
f 66/44/19 63/96/19 68/47/19
f 59/40/20 63/96/20 66/44/20
