# Blender v2.80 (sub 75) OBJ File: 'Hallway 9.blend'
# www.blender.org
mtllib Hallway 9.mtl
o Hallway_5.001_Cube.000
v -5.907347 2.000000 2.000000
v -5.907347 -2.000000 -2.000000
v -5.907347 2.000000 -2.000000
v 16.960918 2.000000 2.000000
v 16.960918 2.000000 -2.000000
v -5.907347 -2.000000 0.994862
v -5.907347 2.000000 0.994862
v -5.907347 -2.000000 -1.005138
v -5.907347 2.000000 -1.005138
v 16.960918 -2.000000 -0.999424
v 16.960918 2.000000 -0.999424
v 16.960918 -2.000000 1.000577
v 16.960918 2.000000 1.000577
v -0.171740 2.000000 3.263987
v -0.171740 -2.000000 2.000000
v 3.828260 -2.000000 3.263987
v 3.828260 2.000000 3.263987
v 3.828260 -2.000000 2.000000
v 3.828260 2.000000 2.000000
v 0.841940 -2.000000 3.263987
v 0.841940 2.000000 3.263987
v 2.841940 -2.000000 3.263987
v 2.841940 2.000000 3.263987
v -0.171740 -2.000000 -2.000000
v -0.171740 2.000000 -2.000000
v -0.171740 2.000000 2.000000
v 3.828259 2.000000 -2.000000
v -5.871336 -2.000000 1.927979
v -5.871336 2.000000 1.927979
v -5.856420 -2.000000 0.994862
v -5.856420 2.000000 0.994862
v -5.871336 2.000000 -1.927979
v -5.871336 -2.000000 -1.927979
v -0.171740 -2.000000 -1.898147
v 3.828259 2.000000 -1.898147
v 16.924908 2.000000 -1.927979
v 16.924908 -2.000000 -1.927979
v 16.909992 2.000000 -0.999424
v 16.909992 -2.000000 -0.999424
v 16.924908 2.000000 1.927979
v 16.924908 -2.000000 1.927979
v -0.135729 2.000000 1.927979
v -5.856420 2.000000 -1.005138
v -5.856420 -2.000000 -1.005138
v 16.909992 2.000000 1.000577
v 16.909992 -2.000000 1.000577
v -0.135729 -2.000000 1.927979
v -0.135729 -2.000000 3.191965
v -0.135729 2.000000 3.191965
v 3.792250 2.000000 1.927979
v 3.792250 -2.000000 1.927979
v 3.792250 -2.000000 3.191965
v 3.792250 2.000000 3.191965
v 0.841940 -2.000000 3.162133
v 0.841940 2.000000 3.162133
v 2.841940 2.000000 3.162133
v 2.841940 -2.000000 3.162133
v 3.828259 -2.000000 -1.898147
v -0.171740 2.000000 -1.898147
v -5.907347 -2.000000 2.000000
v 16.960918 -2.000000 2.000000
v 16.960918 -2.000000 -2.000000
v -0.171740 -2.000000 3.263987
v 3.828259 -2.000000 -2.000000
v -5.907347 -2.000000 0.984856
v -5.907347 2.000000 0.984856
v -6.907347 -2.000000 0.984856
v -6.907347 1.790588 0.994862
v -5.907347 -2.000000 -1.015144
v -5.907347 1.790588 -1.005138
v -6.907347 -2.000000 -1.015144
v -6.907347 1.790588 -1.005138
v -6.907347 2.061248 -0.015227
v -5.907347 2.061248 -0.015227
v -6.907347 1.966729 -0.494129
v -5.907347 1.966729 -0.494130
v -5.907347 1.963687 0.471227
v -6.907347 1.963687 0.471227
v -5.907347 1.790588 0.994862
v -6.907347 2.000000 0.984856
v -6.907347 2.313313 -0.515144
v -6.907347 2.000000 -1.015144
v -5.907347 2.000000 -1.015144
v -5.907347 2.310205 0.492400
v -6.907347 2.310205 0.492400
v -6.907347 2.411996 -0.015144
v -5.907347 2.313313 -0.515144
v -5.907347 2.411996 -0.015144
v -6.907347 2.156657 -0.765144
v -5.907347 -2.000000 -0.765144
v -6.907347 -2.000000 -0.765144
v -5.907347 2.156657 -0.765144
v -6.907347 1.808507 -0.746627
v -5.907347 1.808507 -0.746627
v -6.907347 -2.000000 0.738628
v -5.907347 2.155103 0.738628
v -6.907347 2.155103 0.738628
v -5.907347 -2.000000 0.738628
v -5.907347 1.806986 0.719992
v -6.907347 1.806986 0.719992
vt 0.131579 0.932564
vt 0.094984 0.932564
vt 0.094984 0.932564
vt 0.131579 0.836056
vt 0.094984 0.859375
vt 0.094984 0.836056
vt 0.131579 0.859375
vt 0.094984 0.859375
vt 0.131579 0.926672
vt 0.094984 0.926672
vt 0.094984 0.822780
vt 0.131579 0.822780
vt 0.131579 0.822780
vt 0.094984 0.895970
vt 0.131579 0.895970
vt 0.131579 0.895970
vt 0.131579 0.786186
vt 0.094984 0.822780
vt 0.094984 0.786186
vt 0.131579 0.859375
vt 0.094984 0.895970
vt 0.094984 0.859375
vt 0.131579 0.895970
vt 0.094984 0.895970
vt 0.131579 0.786186
vt 0.094984 0.828673
vt 0.094984 0.919289
vt 0.131579 0.828673
vt 0.094984 0.932564
vt 0.131579 0.932564
vt 0.094984 0.932564
vt 0.094984 0.859375
vt 0.131579 0.836056
vt 0.094984 0.836056
vt 0.094984 0.859375
vt 0.131579 0.859375
vt 0.131579 0.926672
vt 0.094984 0.926672
vt 0.131579 0.822780
vt 0.094984 0.822780
vt 0.131579 0.822780
vt 0.131579 0.895970
vt 0.094984 0.895970
vt 0.131579 0.895970
vt 0.094984 0.822780
vt 0.131579 0.786186
vt 0.094984 0.786186
vt 0.094984 0.895970
vt 0.131579 0.859375
vt 0.094984 0.859375
vt 0.094984 0.895970
vt 0.131579 0.895970
vt 0.131579 0.786186
vt 0.094984 0.828673
vt 0.094984 0.919289
vt 0.131579 0.828673
vt 0.094984 0.895970
vt 0.094984 0.895970
vt 0.131579 0.895970
vt 0.131579 0.859375
vt 0.131579 0.859375
vt 0.131579 0.932564
vt 0.094984 0.822780
vt 0.094984 0.822780
vt 0.131579 0.822780
vt 0.094984 0.786186
vt 0.094984 0.786186
vt 0.131579 0.919289
vt 0.131579 0.932564
vt 0.131579 0.895970
vt 0.323506 0.902099
vt 0.381230 0.811513
vt 0.323506 0.811513
vt 0.290645 0.902099
vt 0.381230 0.811513
vt 0.290645 0.811513
vt 0.290645 0.902099
vt 0.305231 0.811513
vt 0.290645 0.811513
vt 0.305231 0.902099
vt 0.436487 0.761626
vt 0.400043 0.800083
vt 0.400043 0.761626
vt 0.400043 0.833733
vt 0.436487 0.838541
vt 0.400043 0.838541
vt 0.400043 0.876998
vt 0.399671 0.881184
vt 0.434273 0.885395
vt 0.399671 0.885689
vt 0.436480 0.805176
vt 0.436628 0.905579
vt 0.436517 0.910362
vt 0.476958 0.838541
vt 0.472223 0.876998
vt 0.472223 0.838541
vt 0.457729 0.838541
vt 0.448115 0.876998
vt 0.448115 0.838541
vt 0.436666 0.819313
vt 0.436555 0.809960
vt 0.443308 0.876998
vt 0.443308 0.838541
vt 0.436629 0.828522
vt 0.436666 0.896225
vt 0.436557 0.887016
vt 0.436558 0.833531
vt 0.436482 0.882161
vt 0.467489 0.838541
vt 0.457729 0.876998
vt 0.438501 0.800083
vt 0.436406 0.800393
vt 0.438501 0.833733
vt 0.438501 0.876998
vt 0.436407 0.877306
vt 0.434484 0.876291
vt 0.436266 0.881184
vt 0.434378 0.880843
vt 0.438501 0.809552
vt 0.438501 0.819312
vt 0.434521 0.867391
vt 0.436266 0.858243
vt 0.436266 0.867392
vt 0.438501 0.828926
vt 0.434345 0.854008
vt 0.436266 0.849095
vt 0.436266 0.853669
vt 0.436266 0.876679
vt 0.438501 0.804818
vt 0.434417 0.858628
vt 0.438501 0.838541
vt 0.400043 0.881805
vt 0.436266 0.885689
vt 0.400043 0.804818
vt 0.467489 0.876998
vt 0.400043 0.910721
vt 0.916387 0.788471
vt 0.916387 0.969813
vt 0.916387 0.901703
vt 0.131579 0.822780
vt 0.131579 0.919289
vt 0.381230 0.902099
vt 0.381230 0.902099
vt 0.476958 0.876998
vt 0.438501 0.761626
vt 0.434274 0.849388
vt 0.366320 0.838541
vt 0.836953 0.799794
vn -1.0000 0.0000 0.0000
vn 0.0000 0.0000 -1.0000
vn 1.0000 0.0000 0.0000
vn 0.0000 0.0000 1.0000
vn 0.9999 0.0000 0.0160
vn 0.0023 0.0000 1.0000
vn -0.9999 0.0000 -0.0161
vn 0.9999 0.0000 -0.0162
vn -0.9999 0.0000 0.0161
vn 0.0314 0.0000 -0.9995
vn -0.0305 0.0000 -0.9995
vn -0.0052 0.0000 1.0000
vn 0.0000 -1.0000 0.0000
vn 0.0000 1.0000 0.0000
vn 0.0000 -0.0026 1.0000
vn 0.0000 0.0026 -1.0000
vn 0.0000 -0.8461 -0.5330
vn 0.0000 0.8461 0.5330
vn 0.0000 0.9811 -0.1936
vn -0.0000 -0.9805 -0.1966
vn 0.0000 0.8474 -0.5310
vn 0.0000 -0.9811 0.1936
vn 0.0000 -0.8474 0.5310
vn 0.0000 0.9805 0.1966
vn 0.0000 0.0477 0.9989
vn 0.0000 -0.0477 -0.9989
vn 0.0000 -0.0049 1.0000
vn 0.0000 -0.0049 -1.0000
usemtl Material
s off
f 1/1/1 6/2/1 60/3/1
f 27/4/2 62/5/2 64/6/2
f 5/7/3 10/8/3 62/5/3
f 26/9/4 60/3/4 15/10/4
f 2/11/1 9/12/1 3/13/1
f 61/14/3 13/15/3 4/16/3
f 14/17/1 15/18/1 63/19/1
f 19/20/3 16/21/3 18/22/3
f 17/23/4 22/24/4 16/21/4
f 63/19/4 21/25/4 14/17/4
f 3/13/2 24/26/2 2/11/2
f 4/16/4 18/27/4 61/14/4
f 25/28/2 64/6/2 24/26/2
f 30/29/5 29/30/5 28/31/5
f 37/32/6 35/33/6 58/34/6
f 39/35/7 36/36/7 37/32/7
f 28/31/2 42/37/2 47/38/2
f 43/39/8 33/40/8 32/41/8
f 45/42/9 41/43/9 40/44/9
f 47/45/3 49/46/3 48/47/3
f 52/48/1 50/49/1 51/50/1
f 57/51/10 53/52/10 52/48/10
f 55/53/11 48/47/11 49/46/11
f 34/54/12 32/41/12 33/40/12
f 51/55/2 40/44/2 41/43/2
f 58/34/4 59/56/4 34/54/4
f 22/24/13 52/48/13 16/21/13
f 46/57/2 13/15/2 12/58/2
f 24/26/13 33/40/13 2/11/13
f 53/52/14 23/59/14 17/23/14
f 13/15/14 40/44/14 4/16/14
f 27/4/14 36/36/14 5/7/14
f 58/34/13 24/26/13 64/6/13
f 41/43/13 12/58/13 61/14/13
f 32/41/14 25/28/14 3/13/14
f 15/18/13 48/47/13 63/19/13
f 38/60/4 10/8/4 11/61/4
f 59/56/14 27/4/14 25/28/14
f 26/9/14 29/30/14 1/1/14
f 37/32/13 64/6/13 62/5/13
f 52/48/13 18/22/13 16/21/13
f 6/2/13 28/31/13 60/3/13
f 19/20/14 53/52/14 17/23/14
f 29/30/14 7/62/14 1/1/14
f 18/27/13 41/43/13 61/14/13
f 44/63/4 9/12/4 8/64/4
f 49/46/14 26/65/14 14/17/14
f 54/66/3 21/25/3 20/67/3
f 9/12/14 32/41/14 3/13/14
f 21/25/14 49/46/14 14/17/14
f 33/40/13 8/64/13 2/11/13
f 28/31/13 15/10/13 60/3/13
f 48/47/13 20/67/13 63/19/13
f 10/8/13 37/32/13 62/5/13
f 40/44/14 19/68/14 4/16/14
f 31/69/2 6/2/2 7/62/2
f 56/70/1 22/24/1 23/59/1
f 36/36/14 11/61/14 5/7/14
f 18/71/14 62/72/14 64/73/14
f 63/74/14 18/75/14 15/76/14
f 60/77/14 24/78/14 2/79/14
f 15/80/14 64/73/14 24/78/14
f 79/81/15 67/82/15 65/83/15
f 91/84/1 72/85/1 71/86/1
f 72/85/16 69/87/16 71/86/16
f 98/88/3 79/89/3 65/90/3
f 100/91/17 77/92/17 99/93/17
f 80/94/18 96/95/18 97/96/18
f 86/97/19 87/98/19 81/99/19
f 73/100/20 77/92/20 78/101/20
f 81/99/21 92/102/21 89/103/21
f 75/104/22 74/105/22 73/100/22
f 76/106/23 93/107/23 94/108/23
f 85/109/24 88/110/24 86/97/24
f 79/81/25 80/111/25 68/112/25
f 75/104/1 89/113/1 93/107/1
f 72/85/26 83/114/26 70/115/26
f 77/116/3 96/117/3 99/118/3
f 73/100/1 85/119/1 86/120/1
f 74/121/3 87/122/3 88/123/3
f 73/100/1 81/124/1 75/104/1
f 94/125/3 83/126/3 92/127/3
f 74/121/3 84/128/3 77/116/3
f 100/91/1 80/111/1 97/129/1
f 76/130/3 92/127/3 87/122/3
f 93/107/1 82/131/1 72/85/1
f 89/103/21 83/114/21 82/131/21
f 70/115/3 90/132/3 69/87/3
f 94/108/27 91/84/27 90/132/27
f 78/101/1 97/129/1 85/119/1
f 99/118/3 66/133/3 79/89/3
f 68/112/1 95/134/1 67/82/1
f 97/96/18 84/135/18 85/109/18
f 98/136/28 100/91/28 99/93/28
f 91/137/14 98/138/14 90/139/14
f 1/1/1 7/62/1 6/2/1
f 27/4/2 5/7/2 62/5/2
f 5/7/3 11/61/3 10/8/3
f 26/9/4 1/1/4 60/3/4
f 2/11/1 8/64/1 9/12/1
f 61/14/3 12/58/3 13/15/3
f 14/17/1 26/65/1 15/18/1
f 19/20/3 17/23/3 16/21/3
f 17/23/4 23/59/4 22/24/4
f 63/19/4 20/67/4 21/25/4
f 3/13/2 25/28/2 24/26/2
f 4/16/4 19/68/4 18/27/4
f 25/28/2 27/4/2 64/6/2
f 30/29/5 31/69/5 29/30/5
f 37/32/6 36/36/6 35/33/6
f 39/35/7 38/60/7 36/36/7
f 28/31/2 29/30/2 42/37/2
f 43/39/8 44/63/8 33/40/8
f 45/42/9 46/57/9 41/43/9
f 47/45/3 42/140/3 49/46/3
f 52/48/1 53/52/1 50/49/1
f 57/51/10 56/70/10 53/52/10
f 55/53/11 54/66/11 48/47/11
f 34/54/12 59/56/12 32/41/12
f 51/55/2 50/141/2 40/44/2
f 58/34/4 35/33/4 59/56/4
f 22/24/13 57/51/13 52/48/13
f 46/57/2 45/42/2 13/15/2
f 24/26/13 34/54/13 33/40/13
f 53/52/14 56/70/14 23/59/14
f 13/15/14 45/42/14 40/44/14
f 27/4/14 35/33/14 36/36/14
f 58/34/13 34/54/13 24/26/13
f 41/43/13 46/57/13 12/58/13
f 32/41/14 59/56/14 25/28/14
f 15/18/13 47/45/13 48/47/13
f 38/60/4 39/35/4 10/8/4
f 59/56/14 35/33/14 27/4/14
f 26/9/14 42/37/14 29/30/14
f 37/32/13 58/34/13 64/6/13
f 52/48/13 51/50/13 18/22/13
f 6/2/13 30/29/13 28/31/13
f 19/20/14 50/49/14 53/52/14
f 29/30/14 31/69/14 7/62/14
f 18/27/13 51/55/13 41/43/13
f 44/63/4 43/39/4 9/12/4
f 49/46/14 42/140/14 26/65/14
f 54/66/3 55/53/3 21/25/3
f 9/12/14 43/39/14 32/41/14
f 21/25/14 55/53/14 49/46/14
f 33/40/13 44/63/13 8/64/13
f 28/31/13 47/38/13 15/10/13
f 48/47/13 54/66/13 20/67/13
f 10/8/13 39/35/13 37/32/13
f 40/44/14 50/141/14 19/68/14
f 31/69/2 30/29/2 6/2/2
f 56/70/1 57/51/1 22/24/1
f 36/36/14 38/60/14 11/61/14
f 18/71/14 61/142/14 62/72/14
f 63/74/14 16/143/14 18/75/14
f 60/77/14 15/80/14 24/78/14
f 15/80/14 18/71/14 64/73/14
f 79/81/15 68/112/15 67/82/15
f 91/84/1 93/107/1 72/85/1
f 72/85/16 70/115/16 69/87/16
f 98/88/3 99/118/3 79/89/3
f 100/91/17 78/101/17 77/92/17
f 80/94/18 66/144/18 96/95/18
f 86/97/19 88/110/19 87/98/19
f 73/100/20 74/105/20 77/92/20
f 81/99/21 87/98/21 92/102/21
f 75/104/22 76/106/22 74/105/22
f 76/106/23 75/104/23 93/107/23
f 85/109/24 84/135/24 88/110/24
f 79/81/25 66/145/25 80/111/25
f 75/104/1 81/124/1 89/113/1
f 72/85/26 82/131/26 83/114/26
f 77/116/3 84/128/3 96/117/3
f 73/100/1 78/101/1 85/119/1
f 74/121/3 76/130/3 87/122/3
f 73/100/1 86/120/1 81/124/1
f 94/125/3 70/146/3 83/126/3
f 74/121/3 88/123/3 84/128/3
f 100/91/1 68/112/1 80/111/1
f 76/130/3 94/125/3 92/127/3
f 93/107/1 89/113/1 82/131/1
f 89/103/21 92/102/21 83/114/21
f 70/115/3 94/108/3 90/132/3
f 94/108/27 93/107/27 91/84/27
f 78/101/1 100/91/1 97/129/1
f 99/118/3 96/117/3 66/133/3
f 68/112/1 100/91/1 95/134/1
f 97/96/18 96/95/18 84/135/18
f 98/136/28 95/147/28 100/91/28
f 91/137/14 95/148/14 98/138/14
