# Blender v2.80 (sub 75) OBJ File: 'Hallway 8.blend'
# www.blender.org
mtllib Hallway 8.mtl
o Hallway_6_Cube.037
v -1.000000 2.000000 1.935340
v -0.289639 -2.000000 1.935340
v -0.289639 2.000000 1.935340
v -0.289639 -2.000000 -2.064660
v -0.289639 2.000000 -2.064660
v -5.000000 -2.000000 6.541584
v -5.000000 2.000000 6.541584
v -5.000000 -2.000000 -2.064660
v -5.000000 2.000000 -2.064660
v -1.000000 -2.000000 6.541584
v -1.000000 2.000000 6.541584
v -1.000000 -2.000000 -2.064660
v -1.000000 2.000000 -2.064660
v -1.975124 -2.000000 6.541584
v -1.975124 2.000000 6.541584
v -3.975124 -2.000000 6.541584
v -3.975124 2.000000 6.541584
v -5.000000 -2.000000 1.935340
v -5.000000 2.000000 1.935340
v -1.000000 -2.000000 1.935340
v -0.289639 -2.000000 -1.078415
v -0.289639 2.000000 -1.078415
v -0.289639 -2.000000 0.921585
v -0.289639 2.000000 0.921585
vt 0.625000 0.250000
vt 0.375000 0.500000
vt 0.375000 0.250000
vt 0.625000 0.750000
vt 0.375000 1.000000
vt 0.375000 0.750000
vt 0.125000 0.500000
vt 0.125000 0.750000
vt 0.625000 0.125000
vt 0.375000 0.250000
vt 0.375000 0.125000
vt 0.625000 0.250000
vt 0.375000 0.500000
vt 0.625000 0.625000
vt 0.375000 0.750000
vt 0.375000 0.625000
vt 0.625000 0.750000
vt 0.375000 0.750000
vt 0.125000 0.750000
vt 0.125000 0.625000
vt 0.375000 0.000000
vt 0.625000 0.000000
vt 0.625000 0.000000
vt 0.125000 0.500000
vt 0.625000 0.500000
vt 0.375000 0.500000
vt 0.625000 0.750000
vt 0.625000 1.000000
vt 0.625000 0.500000
vt 0.625000 0.750000
vt 0.375000 0.000000
vt 0.625000 0.500000
vt 0.375000 0.750000
vn 0.0000 0.0000 -1.0000
vn 0.0000 0.0000 1.0000
vn 0.0000 -1.0000 0.0000
vn -1.0000 0.0000 0.0000
vn 1.0000 0.0000 0.0000
usemtl None
s off
f 13/1/1 4/2/1 12/3/1
f 3/4/2 20/5/2 2/6/2
f 12/7/3 2/6/3 20/8/3
f 19/9/4 8/10/4 18/11/4
f 9/12/1 12/13/1 8/10/1
f 1/14/5 10/15/5 20/16/5
f 11/17/2 14/18/2 10/15/2
f 20/16/3 6/19/3 18/20/3
f 6/21/2 17/22/2 7/23/2
f 12/13/3 18/20/3 8/24/3
f 7/23/4 18/11/4 6/21/4
f 5/25/5 21/26/5 4/2/5
f 2/6/5 24/27/5 3/4/5
f 13/1/1 5/25/1 4/2/1
f 3/4/2 1/28/2 20/5/2
f 12/7/3 4/2/3 2/6/3
f 19/9/4 9/12/4 8/10/4
f 9/12/1 13/29/1 12/13/1
f 1/14/5 11/17/5 10/15/5
f 11/17/2 15/30/2 14/18/2
f 20/16/3 10/15/3 6/19/3
f 6/21/2 16/31/2 17/22/2
f 12/13/3 20/16/3 18/20/3
f 7/23/4 19/9/4 18/11/4
f 5/25/5 22/32/5 21/26/5
f 2/6/5 23/33/5 24/27/5
