# Blender v2.80 (sub 75) OBJ File: 'Kitchen.blend'
# www.blender.org
mtllib Kitchen.mtl
o Kitchen.001_Cube.000
v 5.000000 -2.000000 12.000000
v 5.000000 2.000000 12.000000
v -5.000000 -2.000000 12.000000
v -5.000000 2.000000 12.000000
v 5.000000 -2.000000 -12.000000
v 5.000000 2.000000 -12.000000
v -5.000000 -2.000000 -12.000000
v -5.000000 2.000000 -12.000000
v -19.000000 -2.000000 2.000003
v -19.000000 2.000000 2.000003
v -18.999998 -2.000000 12.000004
v -18.999998 2.000000 12.000004
v -5.000000 -2.000000 2.000000
v -5.000000 2.000000 2.000000
v 5.000000 -2.000000 2.000000
v 5.000000 2.000000 2.000000
v -1.021248 -2.000000 -12.000000
v -1.021248 2.000000 -12.000000
v 0.962733 -2.000000 -12.000000
v 0.962733 2.000000 -12.000000
v -18.999998 -2.000000 6.004957
v -18.999998 2.000000 6.004957
v -18.999998 -2.000000 8.004955
v -18.999998 2.000000 8.004955
v 4.727208 -2.000000 11.345298
v 4.727208 2.000000 11.345298
v -5.000000 2.000000 11.074111
v -5.000000 -2.000000 11.074111
v -4.727207 2.000000 2.654703
v -4.727208 2.000000 -11.345298
v -4.727208 -2.000000 -11.345298
v 4.727207 2.000000 -11.345298
v 4.727207 -2.000000 -11.345298
v 4.614213 -2.000000 2.000000
v -18.727205 2.000000 11.345302
v -18.727205 -2.000000 11.345302
v -18.614212 2.000000 6.004956
v -18.727207 2.000000 2.654705
v -18.727207 -2.000000 2.654705
v -4.727207 -2.000000 2.654703
v -18.614212 -2.000000 6.004956
v 4.614213 2.000000 2.000000
v -18.614210 2.000000 8.004955
v -18.614210 -2.000000 8.004955
v -1.021248 2.000000 -11.074111
v -1.021248 -2.000000 -11.074111
v 0.962733 2.000000 -11.074111
v 0.962733 -2.000000 -11.074111
v 5.000001 -2.000000 12.000000
v -5.000000 -2.000000 12.000000
v 5.000000 -2.000000 -12.000000
v -5.000001 -2.000000 -12.000000
v -19.000002 -2.000000 2.000003
v -19.000000 -2.000000 12.000004
v -5.000000 -2.000000 2.000000
v 5.000000 -2.000000 2.000000
v -1.021247 -2.000000 -13.000004
v -1.021250 1.790588 -13.000004
v 0.978754 -2.000000 -12.000004
v 0.962735 1.790588 -12.000004
v 0.978754 -2.000000 -13.000004
v 0.962735 1.790588 -13.000004
v -0.021164 2.061248 -13.000004
v -0.021164 2.061248 -12.000004
v 0.457739 1.966729 -13.000004
v 0.457739 1.966729 -12.000004
v -0.507618 1.963687 -12.000004
v -0.507617 1.963687 -13.000004
v -1.021250 1.790588 -12.000004
v -1.021247 2.000000 -13.000004
v 0.478753 2.313313 -13.000004
v 0.978754 2.000000 -13.000004
v 0.978754 2.000000 -12.000004
v -0.528790 2.310205 -12.000004
v -0.528791 2.310205 -13.000004
v -0.021247 2.411996 -13.000004
v 0.478753 2.313313 -12.000004
v -0.021247 2.411996 -12.000004
v 0.728753 2.156657 -13.000004
v 0.728753 -2.000000 -12.000004
v 0.728753 -2.000000 -13.000004
v 0.728753 2.156657 -12.000004
v 0.710237 1.808507 -13.000004
v 0.710237 1.808507 -12.000004
v -0.775019 -2.000000 -13.000004
v -0.775019 2.155103 -12.000004
v -0.775019 2.155103 -13.000004
v -0.775019 -2.000000 -12.000004
v -0.756383 1.806986 -12.000004
v -0.756383 1.806986 -13.000004
v -1.021248 -2.000000 -12.000000
v -1.021248 2.000000 -12.000000
v -20.000000 -2.000000 8.004957
v -20.000000 1.790588 8.004956
v -19.000000 -2.000000 6.004957
v -19.000000 1.790588 6.004954
v -20.000000 -2.000000 6.004957
v -20.000000 1.790588 6.004954
v -20.000000 2.061248 7.004874
v -19.000000 2.061248 7.004874
v -20.000000 1.966729 6.525971
v -19.000000 1.966729 6.525971
v -19.000000 1.963687 7.491328
v -20.000000 1.963687 7.491328
v -19.000000 1.790588 8.004956
v -20.000000 2.000000 8.004957
v -20.000000 2.313313 6.504956
v -20.000000 2.000000 6.004957
v -19.000000 2.000000 6.004957
v -19.000000 2.310205 7.512501
v -20.000000 2.310205 7.512501
v -20.000000 2.411996 7.004957
v -19.000000 2.313313 6.504956
v -19.000000 2.411996 7.004957
v -20.000000 2.156657 6.254957
v -19.000000 -2.000000 6.254957
v -20.000000 -2.000000 6.254957
v -19.000000 2.156657 6.254957
v -20.000000 1.808507 6.273473
v -19.000000 1.808507 6.273473
v -20.000000 -2.000000 7.758729
v -19.000000 2.155103 7.758729
v -20.000000 2.155103 7.758729
v -19.000000 -2.000000 7.758729
v -19.000000 1.806986 7.740092
v -20.000000 1.806986 7.740092
v -19.000000 -2.000000 8.004955
v -19.000000 2.000000 8.004955
vt 0.625000 0.357905
vt 0.375000 0.500000
vt 0.375000 0.357905
vt 0.375000 0.750000
vt 0.625000 0.750000
vt 0.625000 0.750000
vt 0.625000 0.000000
vt 0.375000 0.250000
vt 0.375000 0.000000
vt 0.625000 0.358430
vt 0.375000 0.500000
vt 0.375000 0.358430
vt 0.625000 0.892095
vt 0.375000 1.000000
vt 0.375000 0.892095
vt 0.625000 0.750000
vt 0.375000 0.891570
vt 0.375000 0.750000
vt 0.625000 0.500000
vt 0.375000 0.500000
vt 0.625000 0.500000
vt 0.375000 0.500000
vt 0.625000 0.750000
vt 0.375000 0.500000
vt 0.625000 0.357905
vt 0.375000 0.357905
vt 0.625000 0.750000
vt 0.375000 0.750000
vt 0.625000 0.750000
vt 0.375000 0.250000
vt 0.625000 0.000000
vt 0.375000 0.000000
vt 0.375000 0.500000
vt 0.625000 0.358430
vt 0.375000 0.358430
vt 0.375000 1.000000
vt 0.625000 0.892095
vt 0.375000 0.892095
vt 0.375000 0.891570
vt 0.625000 0.750000
vt 0.375000 0.750000
vt 0.375000 0.500000
vt 0.625000 0.500000
vt 0.375000 0.500000
vt 0.625000 0.500000
vt 0.625000 0.750000
vt 0.375000 0.750000
vt 0.375000 0.750000
vt 0.625000 0.500000
vt 0.625000 0.891570
vt 0.375000 0.750000
vt 0.375000 0.750000
vt 0.625000 0.250000
vt 0.625000 0.500000
vt 0.625000 1.000000
vt 0.625000 1.000000
vt 0.625000 0.500000
vt 0.625000 0.500000
vt 0.232905 0.750000
vt 0.375000 0.500000
vt 0.232905 0.500000
vt 0.375000 0.000000
vt 0.611383 0.252012
vt 0.375000 0.250000
vt 0.375000 0.468750
vt 0.611912 0.500000
vt 0.375000 0.500000
vt 0.375000 0.750000
vt 0.375000 0.969221
vt 0.611383 0.997988
vt 0.375000 1.000000
vt 0.611867 0.283108
vt 0.612824 0.935796
vt 0.612103 0.966892
vt 0.875000 0.500000
vt 0.844221 0.750000
vt 0.844221 0.500000
vt 0.750000 0.500000
vt 0.687500 0.750000
vt 0.687500 0.500000
vt 0.613076 0.375010
vt 0.612351 0.314204
vt 0.656250 0.750000
vt 0.656250 0.500000
vt 0.612834 0.434873
vt 0.613075 0.874990
vt 0.612366 0.815127
vt 0.612373 0.467437
vt 0.611878 0.783565
vt 0.813443 0.500000
vt 0.750000 0.750000
vt 0.611912 0.000000
vt 0.625000 0.250000
vt 0.625000 0.468750
vt 0.625000 0.750000
vt 0.611389 0.752002
vt 0.625000 0.969221
vt 0.625000 0.311557
vt 0.625000 0.375000
vt 0.625000 0.812500
vt 0.625000 0.875000
vt 0.625000 0.437500
vt 0.625000 0.781250
vt 0.625000 0.938443
vt 0.625000 0.280779
vt 0.625000 0.500000
vt 0.375000 0.781250
vt 0.625000 1.000000
vt 0.375000 0.280779
vt 0.813443 0.750000
vt 0.233430 0.750000
vt 0.375000 0.500000
vt 0.233430 0.500000
vt 0.611912 0.000000
vt 0.375000 0.250000
vt 0.375000 0.000000
vt 0.375000 0.468750
vt 0.611912 0.500000
vt 0.375000 0.500000
vt 0.375000 0.750000
vt 0.375000 0.969221
vt 0.611383 0.997988
vt 0.375000 1.000000
vt 0.611867 0.283108
vt 0.612824 0.935796
vt 0.612103 0.966892
vt 0.875000 0.500000
vt 0.844221 0.750000
vt 0.844221 0.500000
vt 0.750000 0.500000
vt 0.687500 0.750000
vt 0.687500 0.500000
vt 0.613076 0.375010
vt 0.612351 0.314204
vt 0.656250 0.750000
vt 0.656250 0.500000
vt 0.612834 0.434873
vt 0.613075 0.874990
vt 0.612366 0.815127
vt 0.612373 0.467437
vt 0.611878 0.783565
vt 0.813443 0.500000
vt 0.750000 0.750000
vt 0.625000 0.250000
vt 0.611383 0.252012
vt 0.625000 0.468750
vt 0.625000 0.750000
vt 0.611389 0.752002
vt 0.625000 0.969221
vt 0.625000 0.311557
vt 0.625000 0.375000
vt 0.625000 0.812500
vt 0.625000 0.875000
vt 0.625000 0.437500
vt 0.625000 0.781250
vt 0.625000 0.938443
vt 0.625000 0.280779
vt 0.625000 0.500000
vt 0.375000 0.781250
vt 0.625000 1.000000
vt 0.375000 0.280779
vt 0.813443 0.750000
vt 0.125000 0.750000
vt 0.125000 0.500000
vt 0.625000 0.250000
vt 0.625000 0.891570
vt 0.375000 0.750000
vt 0.875000 0.750000
vt 0.625000 0.000000
vt 0.155779 0.500000
vt 0.375000 0.750000
vt 0.875000 0.750000
vt 0.625000 0.000000
vt 0.155779 0.500000
vn -1.0000 0.0000 0.0000
vn 0.0000 0.0000 -1.0000
vn 0.0000 0.0000 1.0000
vn 1.0000 0.0000 -0.0000
vn 0.0719 0.0000 0.9974
vn 0.0279 0.0000 -0.9996
vn -0.0198 0.0000 -0.9998
vn -0.9999 0.0000 0.0121
vn -1.0000 0.0000 -0.0085
vn -0.0730 0.0000 0.9973
vn 0.9994 0.0000 0.0338
vn 0.9994 0.0000 -0.0337
vn 0.0000 -1.0000 0.0000
vn 0.0000 1.0000 0.0000
vn 1.0000 0.0042 -0.0000
vn 0.5330 -0.8461 0.0000
vn -0.5330 0.8461 0.0000
vn 0.1936 0.9811 0.0000
vn 0.1966 -0.9805 0.0000
vn 0.5310 0.8474 0.0000
vn -0.1936 -0.9811 0.0000
vn -0.5310 -0.8474 0.0000
vn -0.1966 0.9805 -0.0000
vn 0.9971 -0.0763 -0.0000
vn -1.0000 -0.0049 0.0000
vn 1.0000 -0.0049 -0.0000
vn 0.0000 -0.8461 -0.5330
vn 0.0000 0.8461 0.5330
vn 0.0000 0.9811 -0.1936
vn 0.0000 -0.9805 -0.1966
vn 0.0000 0.8474 -0.5310
vn 0.0000 -0.9811 0.1936
vn 0.0000 -0.8474 0.5310
vn 0.0000 0.9805 0.1966
vn 0.0000 -0.0049 1.0000
vn 0.0000 -0.0049 -1.0000
usemtl None
s off
f 14/1/1 7/2/1 13/3/1
f 5/4/2 20/5/2 6/6/2
f 2/7/3 3/8/3 1/9/3
f 4/10/3 11/11/3 3/12/3
f 16/13/4 1/14/4 15/15/4
f 10/16/2 13/17/2 9/18/2
f 6/6/4 15/15/4 5/4/4
f 8/19/2 17/20/2 7/2/2
f 12/21/1 23/22/1 11/11/1
f 9/18/1 22/23/1 10/16/1
f 31/24/4 29/25/4 40/26/4
f 47/27/5 33/28/5 32/29/5
f 28/30/6 26/31/6 25/32/6
f 36/33/7 27/34/7 28/35/7
f 25/36/8 42/37/8 34/38/8
f 40/39/3 38/40/3 39/41/3
f 34/38/9 32/29/9 33/28/9
f 46/42/10 30/43/10 31/24/10
f 44/44/11 35/45/11 36/33/11
f 37/46/12 39/41/12 38/40/12
f 17/20/13 31/24/13 7/2/13
f 13/17/13 39/41/13 9/18/13
f 41/47/3 22/23/3 21/48/3
f 4/10/14 35/45/14 12/21/14
f 30/43/14 18/49/14 8/19/14
f 14/1/14 30/43/14 8/19/14
f 38/40/14 14/50/14 10/16/14
f 36/33/13 3/12/13 11/11/13
f 48/51/1 20/5/1 19/52/1
f 3/8/13 25/32/13 1/9/13
f 31/24/13 13/3/13 7/2/13
f 20/5/14 32/29/14 6/6/14
f 26/31/14 4/53/14 2/7/14
f 39/41/13 21/48/13 9/18/13
f 33/28/13 19/52/13 5/4/13
f 15/15/13 33/28/13 5/4/13
f 35/45/14 24/54/14 12/21/14
f 32/29/14 16/13/14 6/6/14
f 16/13/14 26/55/14 2/56/14
f 23/22/13 36/33/13 11/11/13
f 43/57/2 23/22/2 24/54/2
f 22/23/14 38/40/14 10/16/14
f 45/58/4 17/20/4 18/49/4
f 25/36/13 15/15/13 1/14/13
f 56/59/14 52/60/14 55/61/14
f 91/62/1 58/63/1 57/64/1
f 81/65/2 62/66/2 61/67/2
f 62/66/15 59/68/15 61/67/15
f 88/69/3 69/70/3 91/71/3
f 90/72/16 67/73/16 89/74/16
f 70/75/17 86/76/17 87/77/17
f 76/78/18 77/79/18 71/80/18
f 63/81/19 67/73/19 68/82/19
f 71/80/20 82/83/20 79/84/20
f 65/85/21 64/86/21 63/81/21
f 66/87/22 83/88/22 84/89/22
f 75/90/23 78/91/23 76/78/23
f 69/92/1 70/93/1 58/63/1
f 65/85/2 79/94/2 83/88/2
f 62/66/24 73/95/24 60/96/24
f 67/73/3 86/97/3 89/74/3
f 63/81/2 75/98/2 76/99/2
f 64/86/3 77/100/3 78/101/3
f 63/81/2 71/102/2 65/85/2
f 84/89/3 73/95/3 82/103/3
f 64/86/3 74/104/3 67/73/3
f 90/72/2 70/93/2 87/105/2
f 66/87/3 82/103/3 77/100/3
f 83/88/2 72/106/2 62/66/2
f 79/84/20 73/95/20 72/106/20
f 60/96/3 80/107/3 59/68/3
f 84/89/25 81/65/25 80/107/25
f 68/82/2 87/105/2 75/98/2
f 89/74/3 92/108/3 69/70/3
f 58/63/2 85/109/2 57/64/2
f 87/77/17 74/110/17 75/90/17
f 88/69/26 90/72/26 89/74/26
f 55/111/14 54/112/14 50/113/14
f 81/65/14 88/69/14 80/107/14
f 105/114/3 93/115/3 127/116/3
f 117/117/1 98/118/1 97/119/1
f 98/118/2 95/120/2 97/119/2
f 124/121/4 105/122/4 127/123/4
f 126/124/27 103/125/27 125/126/27
f 106/127/28 122/128/28 123/129/28
f 112/130/29 113/131/29 107/132/29
f 99/133/30 103/125/30 104/134/30
f 107/132/31 118/135/31 115/136/31
f 101/137/32 100/138/32 99/133/32
f 102/139/33 119/140/33 120/141/33
f 111/142/34 114/143/34 112/130/34
f 105/114/3 106/144/3 94/145/3
f 101/137/1 115/146/1 119/140/1
f 98/118/2 109/147/2 96/148/2
f 103/125/4 122/149/4 125/126/4
f 99/133/1 111/150/1 112/151/1
f 100/138/4 113/152/4 114/153/4
f 99/133/1 107/154/1 101/137/1
f 120/141/4 109/147/4 118/155/4
f 100/138/4 110/156/4 103/125/4
f 126/124/1 106/144/1 123/157/1
f 102/139/4 118/155/4 113/152/4
f 119/140/1 108/158/1 98/118/1
f 115/136/31 109/147/31 108/158/31
f 96/148/4 116/159/4 95/120/4
f 120/141/35 117/117/35 116/159/35
f 104/134/1 123/157/1 111/150/1
f 125/126/4 128/160/4 105/122/4
f 94/145/1 121/161/1 93/115/1
f 123/129/28 110/162/28 111/142/28
f 124/121/36 126/124/36 125/126/36
f 117/117/14 124/121/14 116/159/14
f 49/163/14 55/61/14 50/164/14
f 14/1/1 8/19/1 7/2/1
f 5/4/2 19/52/2 20/5/2
f 2/7/3 4/53/3 3/8/3
f 4/10/3 12/21/3 11/11/3
f 16/13/4 2/56/4 1/14/4
f 10/16/2 14/50/2 13/17/2
f 6/6/4 16/13/4 15/15/4
f 8/19/2 18/49/2 17/20/2
f 12/21/1 24/54/1 23/22/1
f 9/18/1 21/48/1 22/23/1
f 31/24/4 30/43/4 29/25/4
f 47/27/5 48/51/5 33/28/5
f 28/30/6 27/165/6 26/31/6
f 36/33/7 35/45/7 27/34/7
f 25/36/8 26/55/8 42/37/8
f 40/39/3 29/166/3 38/40/3
f 34/38/9 42/37/9 32/29/9
f 46/42/10 45/58/10 30/43/10
f 44/44/11 43/57/11 35/45/11
f 37/46/12 41/47/12 39/41/12
f 17/20/13 46/42/13 31/24/13
f 13/17/13 40/39/13 39/41/13
f 41/47/3 37/46/3 22/23/3
f 4/10/14 27/34/14 35/45/14
f 30/43/14 45/58/14 18/49/14
f 14/1/14 29/25/14 30/43/14
f 38/40/14 29/166/14 14/50/14
f 36/33/13 28/35/13 3/12/13
f 48/51/1 47/27/1 20/5/1
f 3/8/13 28/30/13 25/32/13
f 31/24/13 40/26/13 13/3/13
f 20/5/14 47/27/14 32/29/14
f 26/31/14 27/165/14 4/53/14
f 39/41/13 41/47/13 21/48/13
f 33/28/13 48/51/13 19/52/13
f 15/15/13 34/38/13 33/28/13
f 35/45/14 43/57/14 24/54/14
f 32/29/14 42/37/14 16/13/14
f 16/13/14 42/37/14 26/55/14
f 23/22/13 44/44/13 36/33/13
f 43/57/2 44/44/2 23/22/2
f 22/23/14 37/46/14 38/40/14
f 45/58/4 46/42/4 17/20/4
f 25/36/13 34/38/13 15/15/13
f 56/59/14 51/167/14 52/60/14
f 91/62/1 69/92/1 58/63/1
f 81/65/2 83/88/2 62/66/2
f 62/66/15 60/96/15 59/68/15
f 88/69/3 89/74/3 69/70/3
f 90/72/16 68/82/16 67/73/16
f 70/75/17 92/168/17 86/76/17
f 76/78/18 78/91/18 77/79/18
f 63/81/19 64/86/19 67/73/19
f 71/80/20 77/79/20 82/83/20
f 65/85/21 66/87/21 64/86/21
f 66/87/22 65/85/22 83/88/22
f 75/90/23 74/110/23 78/91/23
f 69/92/1 92/169/1 70/93/1
f 65/85/2 71/102/2 79/94/2
f 62/66/24 72/106/24 73/95/24
f 67/73/3 74/104/3 86/97/3
f 63/81/2 68/82/2 75/98/2
f 64/86/3 66/87/3 77/100/3
f 63/81/2 76/99/2 71/102/2
f 84/89/3 60/96/3 73/95/3
f 64/86/3 78/101/3 74/104/3
f 90/72/2 58/63/2 70/93/2
f 66/87/3 84/89/3 82/103/3
f 83/88/2 79/94/2 72/106/2
f 79/84/20 82/83/20 73/95/20
f 60/96/3 84/89/3 80/107/3
f 84/89/25 83/88/25 81/65/25
f 68/82/2 90/72/2 87/105/2
f 89/74/3 86/97/3 92/108/3
f 58/63/2 90/72/2 85/109/2
f 87/77/17 86/76/17 74/110/17
f 88/69/26 85/170/26 90/72/26
f 55/111/14 53/171/14 54/112/14
f 81/65/14 85/170/14 88/69/14
f 105/114/3 94/145/3 93/115/3
f 117/117/1 119/140/1 98/118/1
f 98/118/2 96/148/2 95/120/2
f 124/121/4 125/126/4 105/122/4
f 126/124/27 104/134/27 103/125/27
f 106/127/28 128/172/28 122/128/28
f 112/130/29 114/143/29 113/131/29
f 99/133/30 100/138/30 103/125/30
f 107/132/31 113/131/31 118/135/31
f 101/137/32 102/139/32 100/138/32
f 102/139/33 101/137/33 119/140/33
f 111/142/34 110/162/34 114/143/34
f 105/114/3 128/173/3 106/144/3
f 101/137/1 107/154/1 115/146/1
f 98/118/2 108/158/2 109/147/2
f 103/125/4 110/156/4 122/149/4
f 99/133/1 104/134/1 111/150/1
f 100/138/4 102/139/4 113/152/4
f 99/133/1 112/151/1 107/154/1
f 120/141/4 96/148/4 109/147/4
f 100/138/4 114/153/4 110/156/4
f 126/124/1 94/145/1 106/144/1
f 102/139/4 120/141/4 118/155/4
f 119/140/1 115/146/1 108/158/1
f 115/136/31 118/135/31 109/147/31
f 96/148/4 120/141/4 116/159/4
f 120/141/35 119/140/35 117/117/35
f 104/134/1 126/124/1 123/157/1
f 125/126/4 122/149/4 128/160/4
f 94/145/1 126/124/1 121/161/1
f 123/129/28 122/128/28 110/162/28
f 124/121/36 121/174/36 126/124/36
f 117/117/14 121/174/14 124/121/14
f 49/163/14 56/59/14 55/61/14
