# Blender v2.80 (sub 75) OBJ File: ''
# www.blender.org
mtllib Lounge.mtl
o Lounge_Cube.001
v -6.000000 -2.000000 5.000000
v -6.000000 2.000000 5.000000
v -6.000000 -2.000000 -5.000000
v -6.000000 2.000000 -5.000000
v 6.000000 -2.000000 5.000000
v 6.000000 2.000000 5.000000
v 0.724138 -2.000000 -5.000000
v 6.000000 -2.000000 -0.603448
v 6.000000 2.000000 -0.603448
v 0.724138 2.000000 -5.000000
v -0.998518 -2.000000 5.000000
v 0.013873 -2.000000 5.000000
v -7.000000 -2.000000 1.000577
v -7.000000 1.790588 1.000577
v 6.000000 -2.000000 1.196506
v -6.000000 1.790588 -0.999424
v -7.000000 -2.000000 -0.999424
v -7.000000 1.790588 -0.999424
v -7.000000 2.061248 0.000493
v -6.000000 2.061248 0.000493
v -7.000000 1.966729 -0.478409
v -6.000000 1.966729 -0.478409
v -6.000000 1.963687 0.486947
v -7.000000 1.963687 0.486947
v -6.000000 1.790588 1.000577
v -7.000000 2.000000 1.000577
v -7.000000 2.313313 -0.499424
v -7.000000 2.000000 -0.999424
v 6.000000 -2.000000 2.198276
v -6.000000 2.310205 0.508120
v -7.000000 2.310205 0.508120
v -7.000000 2.411996 0.000577
v -6.000000 2.313313 -0.499424
v -6.000000 2.411996 0.000577
v -7.000000 2.156657 -0.749423
v -6.000000 -2.000000 -0.749423
v -7.000000 -2.000000 -0.749423
v -6.000000 2.156657 -0.749423
v -7.000000 1.808507 -0.730906
v -6.000000 1.808507 -0.730906
v -7.000000 -2.000000 0.754349
v -6.000000 2.155103 0.754349
v -7.000000 2.155103 0.754349
v -6.000000 -2.000000 0.754349
v -6.000000 1.806986 0.735712
v -7.000000 1.806986 0.735712
v -6.000000 -2.000000 0.000000
v -6.000000 -2.000000 -0.999423
v -6.000000 2.000000 -0.999423
v -6.000000 -2.000000 1.000576
v -6.000000 2.000000 1.000576
v 6.000000 1.790588 3.196506
v 7.000000 1.790588 1.196506
v 6.000000 1.790588 1.196506
v 6.000000 2.061248 2.196423
v 7.000000 2.061248 2.196423
v 6.000000 1.966729 1.717520
v 7.000000 1.966729 1.717520
v 7.000000 1.963687 2.682876
v 6.000000 1.963687 2.682877
v 7.000000 1.790588 3.196506
v 6.000000 2.313313 1.696506
v 6.000000 2.000000 1.196506
v 7.000000 2.310205 2.704049
v 6.000000 2.310205 2.704049
v 6.000000 2.411996 2.196506
v 7.000000 2.313313 1.696506
v 7.000000 2.411996 2.196506
v 6.000000 2.156657 1.446506
v 7.000000 -2.000000 1.446506
v 6.000000 -2.000000 1.446506
v 7.000000 2.156657 1.446506
v 6.000000 1.808507 1.465023
v 7.000000 1.808507 1.465023
v 6.000000 -2.000000 2.950278
v 7.000000 2.155103 2.950278
v 6.000000 2.155103 2.950278
v 7.000000 -2.000000 2.950278
v 7.000000 1.806986 2.931641
v 6.000000 1.806986 2.931641
v 7.000000 -2.000000 1.196506
v 7.000000 2.000000 1.196506
v 7.000000 -2.000000 3.196505
v 7.000000 2.000000 3.196505
v 6.000000 -2.000000 3.196506
v 6.000000 2.000000 3.196506
v 1.001482 -2.000000 6.000000
v 1.001482 1.790588 6.000000
v -0.998518 1.790588 5.000000
v -0.998518 -2.000000 6.000001
v -0.998518 1.790588 6.000001
v 0.001399 2.061248 6.000000
v 0.001399 2.061248 5.000000
v -0.477504 1.966729 6.000001
v -0.477504 1.966729 5.000000
v 0.487853 1.963686 5.000000
v 0.487853 1.963686 6.000000
v 1.001482 1.790588 5.000000
v 1.001482 2.000000 6.000000
v -0.498518 2.313313 6.000001
v -0.998518 2.000000 6.000001
v 0.509026 2.310205 5.000000
v 0.509026 2.310205 6.000000
v 0.001482 2.411996 6.000000
v -0.498518 2.313313 5.000000
v 0.001482 2.411996 5.000000
v -0.748518 2.156657 6.000001
v -0.748518 -2.000000 5.000000
v -0.748518 -2.000000 6.000001
v -0.748518 2.156657 5.000000
v -0.730001 1.808507 6.000001
v -0.730001 1.808507 5.000000
v 0.755254 -2.000000 6.000000
v 0.755254 2.155103 5.000000
v 0.755254 2.155103 6.000000
v 0.755254 -2.000000 5.000000
v 0.736618 1.806986 5.000000
v 0.736618 1.806986 6.000000
v -0.998518 2.000000 5.000000
v 1.001482 -2.000000 5.000000
v 1.001482 2.000000 5.000000
vt 0.625000 1.000000
vt 0.375000 1.000000
vt 0.375000 1.000000
vt 0.375000 0.750000
vt 0.625000 0.750000
vt 0.625000 0.750000
vt 0.375000 0.750000
vt 0.625000 0.250000
vt 0.375000 0.390086
vt 0.375000 0.250000
vt 0.375000 0.609914
vt 0.625000 0.390086
vt 0.625000 0.609914
vt 0.250289 0.750000
vt 0.125000 0.750000
vt 0.125000 0.625000
vt 0.611912 0.000000
vt 0.375000 0.250000
vt 0.375000 0.000000
vt 0.375000 0.468750
vt 0.611912 0.500000
vt 0.375000 0.500000
vt 0.375000 0.750000
vt 0.375000 0.969221
vt 0.611383 0.997988
vt 0.611867 0.283108
vt 0.612824 0.935796
vt 0.612103 0.966892
vt 0.875000 0.500000
vt 0.844221 0.750000
vt 0.844221 0.500000
vt 0.750000 0.500000
vt 0.687500 0.750000
vt 0.687500 0.500000
vt 0.613076 0.375010
vt 0.612351 0.314204
vt 0.656250 0.750000
vt 0.656250 0.500000
vt 0.612834 0.434873
vt 0.613075 0.874990
vt 0.612366 0.815127
vt 0.612373 0.467437
vt 0.611878 0.783565
vt 0.813443 0.500000
vt 0.750000 0.750000
vt 0.625000 0.250000
vt 0.611383 0.252012
vt 0.625000 0.468750
vt 0.625000 0.750000
vt 0.611389 0.752002
vt 0.625000 0.969221
vt 0.625000 0.311557
vt 0.625000 0.375000
vt 0.625000 0.812500
vt 0.625000 0.875000
vt 0.625000 0.437500
vt 0.625000 0.781250
vt 0.625000 0.938443
vt 0.625000 0.280779
vt 0.625000 0.500000
vt 0.375000 0.781250
vt 0.625000 1.000000
vt 0.375000 0.280779
vt 0.813443 0.750000
vt 0.625000 0.250000
vt 0.375000 0.609914
vt 0.625000 1.000000
vt 0.611912 0.000000
vt 0.375000 0.250000
vt 0.375000 0.000000
vt 0.375000 0.468750
vt 0.611912 0.500000
vt 0.375000 0.500000
vt 0.375000 0.750000
vt 0.375000 0.969221
vt 0.611383 0.997988
vt 0.375000 1.000000
vt 0.611867 0.283108
vt 0.612824 0.935796
vt 0.612103 0.966892
vt 0.844221 0.500000
vt 0.875000 0.750000
vt 0.844221 0.750000
vt 0.750000 0.500000
vt 0.687500 0.750000
vt 0.687500 0.500000
vt 0.613076 0.375010
vt 0.612351 0.314204
vt 0.656250 0.750000
vt 0.656250 0.500000
vt 0.612834 0.434873
vt 0.613075 0.874990
vt 0.612366 0.815127
vt 0.612373 0.467437
vt 0.611878 0.783565
vt 0.813443 0.500000
vt 0.750000 0.750000
vt 0.625000 0.250000
vt 0.611383 0.252012
vt 0.625000 0.468750
vt 0.625000 0.969221
vt 0.625000 0.311557
vt 0.625000 0.375000
vt 0.625000 0.812500
vt 0.625000 0.875000
vt 0.625000 0.437500
vt 0.625000 0.750000
vt 0.625000 0.781250
vt 0.625000 0.938443
vt 0.625000 0.280779
vt 0.625000 0.500000
vt 0.611389 0.752002
vt 0.375000 0.781250
vt 0.625000 1.000000
vt 0.375000 0.280779
vt 0.813443 0.750000
vt 0.611912 0.000000
vt 0.375000 0.250000
vt 0.375000 0.000000
vt 0.375000 0.468750
vt 0.611912 0.500000
vt 0.375000 0.500000
vt 0.375000 0.750000
vt 0.375000 0.969221
vt 0.611383 0.997988
vt 0.375000 1.000000
vt 0.612103 0.966892
vt 0.612351 0.314204
vt 0.612824 0.935796
vt 0.875000 0.500000
vt 0.844221 0.750000
vt 0.844221 0.500000
vt 0.750000 0.500000
vt 0.687500 0.750000
vt 0.687500 0.500000
vt 0.613075 0.874990
vt 0.656250 0.750000
vt 0.656250 0.500000
vt 0.613076 0.375010
vt 0.612366 0.815127
vt 0.612373 0.467437
vt 0.611878 0.783565
vt 0.813443 0.500000
vt 0.750000 0.750000
vt 0.625000 0.250000
vt 0.611383 0.252012
vt 0.612834 0.434873
vt 0.625000 0.468750
vt 0.625000 0.969221
vt 0.625000 0.311557
vt 0.625000 0.375000
vt 0.625000 0.812500
vt 0.625000 0.875000
vt 0.625000 0.437500
vt 0.625000 0.750000
vt 0.625000 0.781250
vt 0.625000 0.938443
vt 0.611867 0.283108
vt 0.625000 0.280779
vt 0.625000 0.500000
vt 0.611389 0.752002
vt 0.375000 0.781250
vt 0.625000 1.000000
vt 0.375000 0.280779
vt 0.813443 0.750000
vt 0.375000 0.750000
vt 0.625000 0.750000
vt 0.125000 0.500000
vt 0.265086 0.500000
vt 0.375000 0.679957
vt 0.875000 0.750000
vt 0.625000 0.000000
vt 0.155779 0.500000
vt 0.375000 0.250000
vt 0.625000 0.609914
vt 0.375000 1.000000
vt 0.875000 0.500000
vt 0.625000 0.000000
vt 0.155779 0.500000
vt 0.875000 0.750000
vt 0.625000 0.000000
vt 0.155779 0.500000
vn -1.0000 0.0000 0.0000
vn 1.0000 0.0000 0.0000
vn 0.0000 0.0000 1.0000
vn 0.0000 0.0000 -1.0000
vn 0.6402 0.0000 -0.7682
vn 0.0000 -1.0000 0.0000
vn 0.0000 -0.8461 -0.5330
vn 0.0000 0.8461 0.5330
vn 0.0000 0.9811 -0.1936
vn -0.0000 -0.9805 -0.1966
vn 0.0000 0.8474 -0.5310
vn 0.0000 -0.9811 0.1936
vn 0.0000 -0.8474 0.5310
vn 0.0000 0.9805 0.1966
vn 0.0000 -0.0049 1.0000
vn 0.0000 -0.0049 -1.0000
vn 0.0000 1.0000 0.0000
vn -0.5330 -0.8461 0.0000
vn 0.5330 0.8461 0.0000
vn -0.1936 0.9811 0.0000
vn -0.1966 -0.9805 0.0000
vn -0.5310 0.8474 0.0000
vn 0.1936 -0.9811 0.0000
vn 0.5310 -0.8474 0.0000
vn 0.1966 0.9805 0.0000
vn 1.0000 -0.0049 0.0000
vn -1.0000 -0.0049 0.0000
usemtl None
s off
f 2/1/1 50/2/1 1/3/1
f 5/4/2 86/5/2 6/6/2
f 6/6/3 120/7/3 5/4/3
f 4/8/4 7/9/4 3/10/4
f 8/11/5 10/12/5 9/13/5
f 12/14/6 1/15/6 47/16/6
f 25/17/3 13/18/3 50/19/3
f 37/20/1 18/21/1 17/22/1
f 18/21/4 48/23/4 17/22/4
f 44/24/2 25/25/2 50/2/2
f 46/26/7 23/27/7 45/28/7
f 26/29/8 42/30/8 43/31/8
f 32/32/9 33/33/9 27/34/9
f 19/35/10 23/27/10 24/36/10
f 27/34/11 38/37/11 35/38/11
f 21/39/12 20/40/12 19/35/12
f 22/41/13 39/42/13 40/43/13
f 31/44/14 34/45/14 32/32/14
f 25/17/3 26/46/3 14/47/3
f 21/39/1 35/48/1 39/42/1
f 18/21/4 49/49/4 16/50/4
f 23/27/2 42/51/2 45/28/2
f 19/35/1 31/52/1 32/53/1
f 20/40/2 33/54/2 34/55/2
f 19/35/1 27/56/1 21/39/1
f 40/43/2 49/49/2 38/57/2
f 20/40/2 30/58/2 23/27/2
f 46/26/1 26/46/1 43/59/1
f 22/41/2 38/57/2 33/54/2
f 39/42/1 28/60/1 18/21/1
f 35/38/11 49/49/11 28/60/11
f 16/50/2 36/61/2 48/23/2
f 40/43/15 37/20/15 36/61/15
f 24/36/1 43/59/1 31/52/1
f 45/28/2 51/62/2 25/25/2
f 14/47/1 41/63/1 13/18/1
f 43/31/8 30/64/8 31/44/8
f 44/24/16 46/26/16 45/28/16
f 3/10/1 49/65/1 4/8/1
f 37/20/17 44/24/17 36/61/17
f 9/13/2 15/66/2 8/11/2
f 1/3/3 119/67/3 2/1/3
f 61/68/3 85/69/3 83/70/3
f 71/71/1 54/72/1 15/73/1
f 54/72/4 81/74/4 15/73/4
f 78/75/2 61/76/2 83/77/2
f 80/78/7 59/79/7 79/80/7
f 77/81/8 84/82/8 76/83/8
f 66/84/9 67/85/9 62/86/9
f 55/87/10 59/79/10 60/88/10
f 62/86/11 72/89/11 69/90/11
f 57/91/12 56/92/12 55/87/12
f 58/93/13 73/94/13 74/95/13
f 65/96/14 68/97/14 66/84/14
f 61/68/3 86/98/3 52/99/3
f 57/91/1 69/100/1 73/94/1
f 59/79/2 76/101/2 79/80/2
f 55/87/1 65/102/1 66/103/1
f 56/92/2 67/104/2 68/105/2
f 55/87/1 62/106/1 57/91/1
f 74/95/2 82/107/2 72/108/2
f 56/92/2 64/109/2 59/79/2
f 80/78/1 86/98/1 77/110/1
f 58/93/2 72/108/2 67/104/2
f 73/94/1 63/111/1 54/72/1
f 69/90/11 82/107/11 63/111/11
f 53/112/2 70/113/2 81/74/2
f 74/95/15 71/71/15 70/113/15
f 60/88/1 77/110/1 65/102/1
f 79/80/2 84/114/2 61/76/2
f 52/99/1 75/115/1 85/69/1
f 77/81/8 64/116/8 65/96/8
f 78/75/16 80/78/16 79/80/16
f 71/71/17 78/75/17 70/113/17
f 54/72/4 82/107/4 53/112/4
f 98/117/2 87/118/2 120/119/2
f 109/120/3 91/121/3 90/122/3
f 91/121/1 11/123/1 90/122/1
f 116/124/4 98/125/4 120/126/4
f 117/127/18 97/128/18 96/129/18
f 99/130/19 114/131/19 115/132/19
f 104/133/20 105/134/20 100/135/20
f 97/128/21 93/136/21 96/129/21
f 100/135/22 110/137/22 107/138/22
f 92/139/23 95/140/23 93/136/23
f 95/140/24 111/141/24 112/142/24
f 103/143/25 106/144/25 104/133/25
f 98/117/2 99/145/2 88/146/2
f 94/147/3 107/148/3 111/141/3
f 96/129/4 114/149/4 117/127/4
f 92/139/3 103/150/3 104/151/3
f 93/136/4 105/152/4 106/153/4
f 92/139/3 100/154/3 94/147/3
f 112/142/4 119/155/4 110/156/4
f 93/136/4 102/157/4 96/129/4
f 118/158/3 99/145/3 115/159/3
f 95/140/4 110/156/4 105/152/4
f 111/141/3 101/160/3 91/121/3
f 107/138/22 119/155/22 101/160/22
f 89/161/4 108/162/4 11/123/4
f 112/142/26 109/120/26 108/162/26
f 97/128/3 115/159/3 103/150/3
f 117/127/4 121/163/4 98/125/4
f 88/146/3 113/164/3 87/118/3
f 115/132/19 102/165/19 103/143/19
f 116/124/27 118/158/27 117/127/27
f 109/120/17 116/124/17 108/162/17
f 91/121/1 119/155/1 89/161/1
f 2/1/1 51/62/1 50/2/1
f 5/4/2 85/166/2 86/5/2
f 6/6/3 121/167/3 120/7/3
f 4/8/4 10/12/4 7/9/4
f 8/11/5 7/9/5 10/12/5
f 47/16/6 3/168/6 7/169/6
f 7/169/6 8/11/6 47/16/6
f 8/11/6 29/170/6 12/14/6
f 47/16/6 8/11/6 12/14/6
f 29/170/6 5/4/6 12/14/6
f 25/17/3 14/47/3 13/18/3
f 37/20/1 39/42/1 18/21/1
f 18/21/4 16/50/4 48/23/4
f 44/24/2 45/28/2 25/25/2
f 46/26/7 24/36/7 23/27/7
f 26/29/8 51/171/8 42/30/8
f 32/32/9 34/45/9 33/33/9
f 19/35/10 20/40/10 23/27/10
f 27/34/11 33/33/11 38/37/11
f 21/39/12 22/41/12 20/40/12
f 22/41/13 21/39/13 39/42/13
f 31/44/14 30/64/14 34/45/14
f 25/17/3 51/172/3 26/46/3
f 21/39/1 27/56/1 35/48/1
f 18/21/4 28/60/4 49/49/4
f 23/27/2 30/58/2 42/51/2
f 19/35/1 24/36/1 31/52/1
f 20/40/2 22/41/2 33/54/2
f 19/35/1 32/53/1 27/56/1
f 40/43/2 16/50/2 49/49/2
f 20/40/2 34/55/2 30/58/2
f 46/26/1 14/47/1 26/46/1
f 22/41/2 40/43/2 38/57/2
f 39/42/1 35/48/1 28/60/1
f 35/38/11 38/37/11 49/49/11
f 16/50/2 40/43/2 36/61/2
f 40/43/15 39/42/15 37/20/15
f 24/36/1 46/26/1 43/59/1
f 45/28/2 42/51/2 51/62/2
f 14/47/1 46/26/1 41/63/1
f 43/31/8 42/30/8 30/64/8
f 44/24/16 41/173/16 46/26/16
f 3/10/1 48/174/1 49/65/1
f 37/20/17 41/173/17 44/24/17
f 9/13/2 63/175/2 15/66/2
f 1/3/3 11/176/3 119/67/3
f 61/68/3 52/99/3 85/69/3
f 71/71/1 73/94/1 54/72/1
f 54/72/4 53/112/4 81/74/4
f 78/75/2 79/80/2 61/76/2
f 80/78/7 60/88/7 59/79/7
f 77/81/8 86/177/8 84/82/8
f 66/84/9 68/97/9 67/85/9
f 55/87/10 56/92/10 59/79/10
f 62/86/11 67/85/11 72/89/11
f 57/91/12 58/93/12 56/92/12
f 58/93/13 57/91/13 73/94/13
f 65/96/14 64/116/14 68/97/14
f 61/68/3 84/178/3 86/98/3
f 57/91/1 62/106/1 69/100/1
f 59/79/2 64/109/2 76/101/2
f 55/87/1 60/88/1 65/102/1
f 56/92/2 58/93/2 67/104/2
f 55/87/1 66/103/1 62/106/1
f 74/95/2 53/112/2 82/107/2
f 56/92/2 68/105/2 64/109/2
f 80/78/1 52/99/1 86/98/1
f 58/93/2 74/95/2 72/108/2
f 73/94/1 69/100/1 63/111/1
f 69/90/11 72/89/11 82/107/11
f 53/112/2 74/95/2 70/113/2
f 74/95/15 73/94/15 71/71/15
f 60/88/1 80/78/1 77/110/1
f 79/80/2 76/101/2 84/114/2
f 52/99/1 80/78/1 75/115/1
f 77/81/8 76/83/8 64/116/8
f 78/75/16 75/179/16 80/78/16
f 71/71/17 75/179/17 78/75/17
f 54/72/4 63/111/4 82/107/4
f 98/117/2 88/146/2 87/118/2
f 109/120/3 111/141/3 91/121/3
f 91/121/1 89/161/1 11/123/1
f 116/124/4 117/127/4 98/125/4
f 117/127/18 118/158/18 97/128/18
f 99/130/19 121/180/19 114/131/19
f 104/133/20 106/144/20 105/134/20
f 97/128/21 92/139/21 93/136/21
f 100/135/22 105/134/22 110/137/22
f 92/139/23 94/147/23 95/140/23
f 95/140/24 94/147/24 111/141/24
f 103/143/25 102/165/25 106/144/25
f 98/117/2 121/181/2 99/145/2
f 94/147/3 100/154/3 107/148/3
f 96/129/4 102/157/4 114/149/4
f 92/139/3 97/128/3 103/150/3
f 93/136/4 95/140/4 105/152/4
f 92/139/3 104/151/3 100/154/3
f 112/142/4 89/161/4 119/155/4
f 93/136/4 106/153/4 102/157/4
f 118/158/3 88/146/3 99/145/3
f 95/140/4 112/142/4 110/156/4
f 111/141/3 107/148/3 101/160/3
f 107/138/22 110/137/22 119/155/22
f 89/161/4 112/142/4 108/162/4
f 112/142/26 111/141/26 109/120/26
f 97/128/3 118/158/3 115/159/3
f 117/127/4 114/149/4 121/163/4
f 88/146/3 118/158/3 113/164/3
f 115/132/19 114/131/19 102/165/19
f 116/124/27 113/182/27 118/158/27
f 109/120/17 113/182/17 116/124/17
f 91/121/1 101/160/1 119/155/1
