# Blender v2.80 (sub 75) OBJ File: 'Master Bathroom.blend'
# www.blender.org
mtllib Master Bathroom.mtl
o Bathroom_1_Cube.008
v 6.000000 -2.000000 5.000000
v 6.000000 2.000000 5.000000
v -6.000000 -2.000000 5.000000
v -6.000000 2.000000 5.000000
v 6.000000 -2.000000 -5.000000
v 6.000000 2.000000 -5.000000
v -6.000000 -2.000000 -5.000000
v -6.000000 2.000000 -5.000000
v -5.999998 -2.000000 0.993615
v -5.999998 2.000000 0.993615
v -6.999998 -2.000000 0.993615
v -6.999998 1.790588 0.993615
v -5.999998 -2.000000 -1.006385
v -5.999998 1.790588 -1.006385
v -6.999998 -2.000000 -1.006385
v -6.999998 1.790588 -1.006385
v -6.999998 2.061248 -0.006468
v -5.999998 2.061248 -0.006468
v -6.999998 1.966729 -0.485370
v -5.999998 1.966729 -0.485370
v -5.999998 1.963686 0.479986
v -6.999998 1.963686 0.479986
v -5.999998 1.790588 0.993615
v -6.999998 2.000000 0.993615
v -6.999998 2.313313 -0.506385
v -6.999998 2.000000 -1.006385
v -5.999998 2.000000 -1.006385
v -5.999998 2.310205 0.501159
v -6.999998 2.310205 0.501159
v -6.999998 2.411996 -0.006385
v -5.999998 2.313313 -0.506385
v -5.999998 2.411996 -0.006385
v -6.999998 2.156657 -0.756385
v -5.999998 -2.000000 -0.756385
v -6.999998 -2.000000 -0.756385
v -5.999998 2.156657 -0.756385
v -6.999998 1.808507 -0.737868
v -5.999998 1.808507 -0.737868
v -6.999998 -2.000000 0.747387
v -5.999998 2.155103 0.747387
v -6.999998 2.155103 0.747387
v -5.999998 -2.000000 0.747387
v -5.999998 1.806986 0.728751
v -6.999998 1.806986 0.728751
vt 0.625000 0.000000
vt 0.375000 0.250000
vt 0.375000 0.000000
vt 0.625000 0.500000
vt 0.375000 0.750000
vt 0.375000 0.500000
vt 0.625000 0.500000
vt 0.625000 0.750000
vt 0.375000 1.000000
vt 0.375000 0.969221
vt 0.375000 0.468750
vt 0.155779 0.500000
vt 0.625000 0.250000
vt 0.375000 0.250000
vt 0.125000 0.750000
vt 0.125000 0.500000
vt 0.611912 0.000000
vt 0.375000 0.250000
vt 0.375000 0.000000
vt 0.611912 0.500000
vt 0.375000 0.500000
vt 0.375000 0.750000
vt 0.611383 0.997988
vt 0.375000 1.000000
vt 0.611867 0.283108
vt 0.612824 0.935796
vt 0.612103 0.966892
vt 0.875000 0.500000
vt 0.844221 0.750000
vt 0.844221 0.500000
vt 0.750000 0.500000
vt 0.687500 0.750000
vt 0.687500 0.500000
vt 0.613076 0.375010
vt 0.612351 0.314204
vt 0.656250 0.750000
vt 0.656250 0.500000
vt 0.612834 0.434873
vt 0.613075 0.874990
vt 0.612366 0.815127
vt 0.612373 0.467437
vt 0.611878 0.783565
vt 0.813443 0.500000
vt 0.750000 0.750000
vt 0.625000 0.250000
vt 0.611383 0.252012
vt 0.625000 0.468750
vt 0.625000 0.750000
vt 0.611389 0.752002
vt 0.625000 0.969221
vt 0.625000 0.311557
vt 0.625000 0.375000
vt 0.625000 0.812500
vt 0.625000 0.875000
vt 0.625000 0.437500
vt 0.625000 0.781250
vt 0.625000 0.938443
vt 0.625000 0.280779
vt 0.625000 0.500000
vt 0.375000 0.781250
vt 0.625000 1.000000
vt 0.375000 0.280779
vt 0.813443 0.750000
vt 0.375000 0.500000
vt 0.625000 1.000000
vt 0.625000 0.250000
vt 0.875000 0.750000
vt 0.625000 0.000000
vn 0.0000 0.0000 1.0000
vn -0.0000 0.0000 -1.0000
vn -1.0000 0.0000 0.0000
vn 1.0000 0.0000 0.0000
vn 0.0000 1.0000 0.0000
vn 0.0000 -1.0000 0.0000
vn 0.0000 -0.8461 -0.5330
vn 0.0000 0.8461 0.5330
vn -0.0000 0.9811 -0.1936
vn -0.0000 -0.9805 -0.1966
vn -0.0000 0.8474 -0.5310
vn 0.0000 -0.9811 0.1936
vn 0.0000 -0.8474 0.5310
vn 0.0000 0.9805 0.1966
vn 0.0000 -0.0049 1.0000
vn -0.0000 -0.0049 -1.0000
usemtl None
s off
f 2/1/1 3/2/1 1/3/1
f 8/4/2 5/5/2 7/6/2
f 7/6/3 27/7/3 8/4/3
f 6/8/4 1/9/4 5/5/4
f 42/10/5 35/11/5 39/12/5
f 4/13/3 9/14/3 3/2/3
f 7/6/6 1/15/6 3/16/6
f 23/17/1 11/18/1 9/19/1
f 35/11/3 16/20/3 15/21/3
f 16/20/2 13/22/2 15/21/2
f 42/10/4 23/23/4 9/24/4
f 44/25/7 21/26/7 43/27/7
f 24/28/8 40/29/8 41/30/8
f 30/31/9 31/32/9 25/33/9
f 17/34/10 21/26/10 22/35/10
f 25/33/11 36/36/11 33/37/11
f 19/38/12 18/39/12 17/34/12
f 20/40/13 37/41/13 38/42/13
f 29/43/14 32/44/14 30/31/14
f 23/17/1 24/45/1 12/46/1
f 19/38/3 33/47/3 37/41/3
f 16/20/2 27/48/2 14/49/2
f 21/26/4 40/50/4 43/27/4
f 17/34/3 29/51/3 30/52/3
f 18/39/4 31/53/4 32/54/4
f 17/34/3 25/55/3 19/38/3
f 38/42/4 27/48/4 36/56/4
f 18/39/4 28/57/4 21/26/4
f 44/25/3 24/45/3 41/58/3
f 20/40/4 36/56/4 31/53/4
f 37/41/3 26/59/3 16/20/3
f 33/37/11 27/48/11 26/59/11
f 14/49/4 34/60/4 13/22/4
f 38/42/15 35/11/15 34/60/15
f 22/35/3 41/58/3 29/51/3
f 43/27/4 10/61/4 23/23/4
f 12/46/3 39/62/3 11/18/3
f 41/30/8 28/63/8 29/43/8
f 42/10/16 44/25/16 43/27/16
f 2/1/1 4/13/1 3/2/1
f 8/4/2 6/8/2 5/5/2
f 7/6/3 13/64/3 27/7/3
f 6/8/4 2/65/4 1/9/4
f 42/10/5 34/60/5 35/11/5
f 4/13/3 10/66/3 9/14/3
f 7/6/6 5/5/6 1/15/6
f 23/17/1 12/46/1 11/18/1
f 35/11/3 37/41/3 16/20/3
f 16/20/2 14/49/2 13/22/2
f 42/10/4 43/27/4 23/23/4
f 44/25/7 22/35/7 21/26/7
f 24/28/8 10/67/8 40/29/8
f 30/31/9 32/44/9 31/32/9
f 17/34/10 18/39/10 21/26/10
f 25/33/11 31/32/11 36/36/11
f 19/38/12 20/40/12 18/39/12
f 20/40/13 19/38/13 37/41/13
f 29/43/14 28/63/14 32/44/14
f 23/17/1 10/68/1 24/45/1
f 19/38/3 25/55/3 33/47/3
f 16/20/2 26/59/2 27/48/2
f 21/26/4 28/57/4 40/50/4
f 17/34/3 22/35/3 29/51/3
f 18/39/4 20/40/4 31/53/4
f 17/34/3 30/52/3 25/55/3
f 38/42/4 14/49/4 27/48/4
f 18/39/4 32/54/4 28/57/4
f 44/25/3 12/46/3 24/45/3
f 20/40/4 38/42/4 36/56/4
f 37/41/3 33/47/3 26/59/3
f 33/37/11 36/36/11 27/48/11
f 14/49/4 38/42/4 34/60/4
f 38/42/15 37/41/15 35/11/15
f 22/35/3 44/25/3 41/58/3
f 43/27/4 40/50/4 10/61/4
f 12/46/3 44/25/3 39/62/3
f 41/30/8 40/29/8 28/63/8
f 42/10/16 39/12/16 44/25/16
