# Blender v2.80 (sub 75) OBJ File: 'Study.blend'
# www.blender.org
mtllib Study.mtl
o Study_Cube.006
v 5.999999 -2.000000 -5.000002
v 5.999999 2.000000 -5.000002
v 6.000001 -2.000000 4.999998
v 6.000001 2.000000 4.999998
v -6.000000 -2.000000 -1.922099
v -2.306523 -2.000000 -4.999999
v -2.306523 2.000000 -4.999999
v -6.000000 2.000000 -1.922099
v -2.306519 -2.000000 5.000001
v -6.000000 -2.000000 1.922103
v -6.000000 2.000000 1.922103
v -2.306519 2.000000 5.000001
v 0.870769 -2.000000 -5.000000
v 0.870769 2.000000 -5.000000
v 0.870769 -2.000000 -6.000000
v 0.870770 1.790588 -6.000000
v 2.870768 1.790588 -5.000000
v 2.870769 -2.000000 -6.000000
v 2.870768 1.790588 -6.000000
v 1.870852 2.061248 -6.000000
v 1.870852 2.061248 -5.000000
v 2.349754 1.966729 -6.000000
v 2.349754 1.966729 -5.000000
v 1.384398 1.963687 -5.000000
v 1.384398 1.963687 -6.000000
v 0.870770 1.790588 -5.000000
v 0.870769 2.000000 -6.000000
v 2.370769 2.313313 -6.000000
v 2.870769 2.000000 -6.000000
v 1.363225 2.310205 -5.000000
v 1.363225 2.310205 -6.000000
v 1.870769 2.411996 -6.000000
v 2.370769 2.313313 -5.000000
v 1.870769 2.411996 -5.000000
v 2.620769 2.156657 -6.000000
v 2.620769 -2.000000 -5.000000
v 2.620769 -2.000000 -6.000000
v 2.620769 2.156657 -5.000000
v 2.602252 1.808507 -6.000000
v 2.602252 1.808507 -5.000000
v 1.116997 -2.000000 -6.000000
v 1.116997 2.155103 -5.000000
v 1.116997 2.155103 -6.000000
v 1.116997 -2.000000 -5.000000
v 1.135633 1.806986 -5.000000
v 1.135633 1.806986 -6.000000
v 2.870768 -2.000000 -5.000002
v 2.870768 2.000000 -5.000002
vt 0.625000 0.000000
vt 0.375000 0.250000
vt 0.375000 0.000000
vt 0.625000 0.826947
vt 0.375000 0.826947
vt 0.375000 0.826947
vt 0.625000 0.576947
vt 0.375000 0.673052
vt 0.375000 0.576947
vt 0.625000 0.250000
vt 0.375000 0.423053
vt 0.625000 0.423053
vt 0.625000 0.673052
vt 0.298052 0.750000
vt 0.125000 0.750000
vt 0.298052 0.500000
vt 0.625000 0.000000
vt 0.611912 0.000000
vt 0.375000 0.250000
vt 0.375000 0.000000
vt 0.375000 0.468750
vt 0.611912 0.500000
vt 0.375000 0.500000
vt 0.375000 0.750000
vt 0.375000 0.969221
vt 0.611383 0.997988
vt 0.375000 1.000000
vt 0.611867 0.283108
vt 0.612824 0.935796
vt 0.612103 0.966892
vt 0.875000 0.500000
vt 0.844221 0.750000
vt 0.844221 0.500000
vt 0.750000 0.500000
vt 0.687500 0.750000
vt 0.687500 0.500000
vt 0.612351 0.314204
vt 0.613075 0.874990
vt 0.656250 0.500000
vt 0.656250 0.750000
vt 0.613076 0.375010
vt 0.612366 0.815127
vt 0.612373 0.467437
vt 0.611878 0.783565
vt 0.813443 0.500000
vt 0.750000 0.750000
vt 0.625000 0.250000
vt 0.611383 0.252012
vt 0.612834 0.434873
vt 0.625000 0.468750
vt 0.625000 0.750000
vt 0.611389 0.752002
vt 0.625000 0.969221
vt 0.625000 0.311557
vt 0.625000 0.375000
vt 0.625000 0.812500
vt 0.625000 0.875000
vt 0.625000 0.437500
vt 0.625000 0.781250
vt 0.625000 0.938443
vt 0.625000 0.280779
vt 0.625000 0.500000
vt 0.375000 0.781250
vt 0.625000 1.000000
vt 0.375000 0.280779
vt 0.813443 0.750000
vt 0.625000 0.826947
vt 0.125000 0.500000
vt 0.375000 0.000000
vt 0.875000 0.750000
vt 0.625000 0.000000
vt 0.155779 0.500000
vn 1.0000 0.0000 -0.0000
vn -0.0000 0.0000 -1.0000
vn -1.0000 0.0000 0.0000
vn 0.0000 0.0000 1.0000
vn -0.6402 0.0000 0.7682
vn -0.6402 0.0000 -0.7682
vn 0.0000 -1.0000 0.0000
vn 0.5330 -0.8461 0.0000
vn -0.5330 0.8461 -0.0000
vn 0.1936 0.9811 0.0000
vn 0.1966 -0.9805 0.0000
vn 0.5310 0.8474 0.0000
vn -0.1936 -0.9811 0.0000
vn -0.5310 -0.8474 0.0000
vn -0.1966 0.9805 -0.0000
vn -1.0000 -0.0049 0.0000
vn 1.0000 -0.0049 0.0000
vn 0.0000 1.0000 0.0000
usemtl None
s off
f 2/1/1 3/2/1 1/3/1
f 7/4/2 13/5/2 6/6/2
f 11/7/3 5/8/3 10/9/3
f 4/10/4 9/11/4 3/2/4
f 10/9/5 12/12/5 11/7/5
f 6/6/6 8/13/6 7/4/6
f 6/14/7 1/15/7 9/16/7
f 1/3/2 48/17/2 2/1/2
f 26/18/3 15/19/3 13/20/3
f 37/21/2 19/22/2 18/23/2
f 19/22/1 47/24/1 18/23/1
f 44/25/4 26/26/4 13/27/4
f 46/28/8 24/29/8 45/30/8
f 27/31/9 42/32/9 43/33/9
f 32/34/10 33/35/10 28/36/10
f 25/37/11 21/38/11 24/29/11
f 35/39/12 33/35/12 38/40/12
f 20/41/13 23/42/13 21/38/13
f 23/42/14 39/43/14 40/44/14
f 31/45/15 34/46/15 32/34/15
f 26/18/3 27/47/3 16/48/3
f 22/49/2 35/50/2 39/43/2
f 19/22/1 48/51/1 17/52/1
f 24/29/4 42/53/4 45/30/4
f 20/41/2 31/54/2 32/55/2
f 21/38/4 33/56/4 34/57/4
f 20/41/2 28/58/2 22/49/2
f 40/44/4 48/51/4 38/59/4
f 21/38/4 30/60/4 24/29/4
f 46/28/2 27/47/2 43/61/2
f 23/42/4 38/59/4 33/56/4
f 39/43/2 29/62/2 19/22/2
f 35/39/12 48/51/12 29/62/12
f 17/52/4 36/63/4 47/24/4
f 40/44/16 37/21/16 36/63/16
f 25/37/2 43/61/2 31/54/2
f 45/30/4 14/64/4 26/26/4
f 16/48/2 41/65/2 15/19/2
f 43/33/9 30/66/9 31/45/9
f 44/25/17 46/28/17 45/30/17
f 37/21/18 44/25/18 36/63/18
f 2/1/1 4/10/1 3/2/1
f 7/4/2 14/67/2 13/5/2
f 11/7/3 8/13/3 5/8/3
f 4/10/4 12/12/4 9/11/4
f 10/9/5 9/11/5 12/12/5
f 6/6/6 5/8/6 8/13/6
f 1/15/7 3/68/7 9/16/7
f 9/16/7 10/9/7 5/8/7
f 5/8/7 6/14/7 9/16/7
f 1/3/2 47/69/2 48/17/2
f 26/18/3 16/48/3 15/19/3
f 37/21/2 39/43/2 19/22/2
f 19/22/1 17/52/1 47/24/1
f 44/25/4 45/30/4 26/26/4
f 46/28/8 25/37/8 24/29/8
f 27/31/9 14/70/9 42/32/9
f 32/34/10 34/46/10 33/35/10
f 25/37/11 20/41/11 21/38/11
f 35/39/12 28/36/12 33/35/12
f 20/41/13 22/49/13 23/42/13
f 23/42/14 22/49/14 39/43/14
f 31/45/15 30/66/15 34/46/15
f 26/18/3 14/71/3 27/47/3
f 22/49/2 28/58/2 35/50/2
f 19/22/1 29/62/1 48/51/1
f 24/29/4 30/60/4 42/53/4
f 20/41/2 25/37/2 31/54/2
f 21/38/4 23/42/4 33/56/4
f 20/41/2 32/55/2 28/58/2
f 40/44/4 17/52/4 48/51/4
f 21/38/4 34/57/4 30/60/4
f 46/28/2 16/48/2 27/47/2
f 23/42/4 40/44/4 38/59/4
f 39/43/2 35/50/2 29/62/2
f 35/39/12 38/40/12 48/51/12
f 17/52/4 40/44/4 36/63/4
f 40/44/16 39/43/16 37/21/16
f 25/37/2 46/28/2 43/61/2
f 45/30/4 42/53/4 14/64/4
f 16/48/2 46/28/2 41/65/2
f 43/33/9 42/32/9 30/66/9
f 44/25/17 41/72/17 46/28/17
f 37/21/18 41/72/18 44/25/18
